<?xml version="1.0" standalone="no"?>
<!DOCTYPE svg PUBLIC "-//W3C//DTD SVG 1.1//EN" "http://www.w3.org/Graphics/SVG/1.1/DTD/svg11.dtd" >
<svg xmlns="http://www.w3.org/2000/svg">
<metadata>Generated by IcoMoon</metadata>
<defs>
<font id="icomoon" horiz-adv-x="1024">
<font-face units-per-em="1024" ascent="960" descent="-64" />
<missing-glyph horiz-adv-x="1024" />
<glyph unicode="&#x20;" horiz-adv-x="512" d="" />
<glyph unicode="&#xe900;" glyph-name="cloud" horiz-adv-x="1489" d="M901.004 830.387c150.691 0 272.873-122.275 272.873-273.129 0-7.308-0.531-14.452-1.089-21.644-61.161-4.601-119.194-28.837-165.45-69.097 34.611 19.999 73.886 30.523 113.859 30.511s79.239-10.56 113.841-30.58c68.515-39.564 114.781-113.431 114.781-198.33 0-108.684-75.823-199.633-177.403-222.953-16.831-3.988-34.071-6.018-51.368-6.051h-795.369c-19.826 0-39.52 3.206-58.321 9.495-37.16 12.286-69.503 35.971-92.431 67.69s-35.277 69.858-35.29 108.996c-0.032 26.584 5.655 52.864 16.674 77.057s27.112 45.734 47.187 63.161c17.832 15.634 38.511 27.683 60.905 35.491 19.691 6.924 40.405 10.488 61.277 10.543 28.471-0.007 56.559-6.565 82.089-19.168s47.816-30.914 65.134-53.512l1.676 0.047c-19.921 36.723-48.556 67.99-83.389 91.055s-74.799 37.222-116.384 41.227c32.14 112.175 135.308 194.49 257.769 194.49 13.103 0 25.809-1.233 38.353-3.049 24.855-3.584 48.64-10.403 70.772-20.271 41.339-18.482 77.337-47.112 104.65-83.23s45.056-78.553 51.58-123.362l0.047 1.583c0 105.356-53.993 198.097-135.773 252.137 46.569 83.991 136.029 140.893 238.801 140.893zM901.004 923.477c-61.63-0.045-122.253-15.637-176.256-45.334s-99.642-72.538-132.69-124.557c-2.583 0.442-5.19 0.815-7.773 1.21-17.111 2.573-34.385 3.911-51.689 4.003-160.279 0-303.081-107.729-347.276-261.958l-10.496-36.655c-11.427-7.354-22.342-15.593-32.675-24.669-30.022-26.183-54.088-58.492-70.579-94.754s-25.024-75.635-25.025-115.469c0-120.716 77.009-227.232 191.628-265.074 28.067-9.384 57.623-14.196 87.505-14.196h795.369c24.446 0.037 48.798 2.895 72.592 8.49 146.59 33.68 249.27 162.655 249.27 313.602-0.13 59.372-16.626 117.558-47.672 168.168-31.037 50.61-75.432 91.685-128.289 118.715v2.257c0 201.914-164.147 366.219-365.945 366.219z" />
<glyph unicode="&#xe901;" glyph-name="github" horiz-adv-x="964" d="M481.882 921.309c-127.803 0-250.372-50.77-340.742-141.14s-141.14-212.939-141.14-340.742c0-127.805 50.77-250.372 141.14-340.743s212.939-141.137 340.742-141.137c127.801 0 250.374 50.766 340.745 141.137 90.365 90.371 141.137 212.938 141.137 340.743 0 127.803-50.772 250.372-141.137 340.742-90.371 90.37-212.944 141.14-340.745 141.14zM608.925 46.562h-3.771c-2.803-0.151-5.61 0.271-8.247 1.241-2.636 0.976-5.047 2.476-7.083 4.409-1.882 1.982-3.351 4.325-4.321 6.879-0.97 2.56-1.422 5.283-1.33 8.017v56.513c0.263 18.745 0.438 37.671 0.438 56.814-0.071 13.993-2.121 27.901-6.089 41.309-3.738 13.547-11.278 25.739-21.728 35.135 27.987 2.705 55.498 9.065 81.833 18.926 22.215 8.439 42.309 21.643 58.874 38.683 16.342 17.173 28.479 37.846 35.485 60.497 8.59 27.686 12.661 56.512 12.095 85.512 0.126 20.232-3.433 40.318-10.517 59.272-7.15 19.1-17.968 36.616-31.846 51.561 2.976 7.535 5.168 15.377 6.481 23.394 3.054 18.357 2.518 37.131-1.578 55.285-2.193 10.429-5.162 20.68-8.891 30.665-1.422 0.549-2.939 0.817-4.469 0.788h-4.379c-9.198-0.088-18.354-1.621-27.076-4.468-9.638-2.804-19.101-6.308-28.256-10.47-9.102-4.076-17.962-8.668-26.546-13.756-7.814-4.608-15.484-9.459-22.998-14.544-67.549 18.825-138.959 18.825-206.508 0-7.543 5.040-15.212 9.889-22.999 14.544-8.699 5.145-17.712 9.739-26.985 13.756-9.126 4.27-18.592 7.772-28.3 10.47-8.584 2.839-17.551 4.346-26.591 4.468h-4.381c-1.5 0.007-2.988-0.276-4.381-0.832-3.804-9.983-6.921-20.214-9.331-30.621-3.8-18.198-4.201-36.942-1.182-55.285 1.314-8.017 3.461-15.859 6.439-23.394-13.865-14.946-24.669-32.463-31.804-51.561-7.080-18.953-10.643-39.039-10.513-59.272-0.579-28.792 3.352-57.498 11.653-85.074 7.316-22.65 19.407-43.455 35.528-60.935 16.647-16.908 36.711-30.1 58.878-38.683 26.197-10.077 53.664-16.517 81.613-19.143-7.798-7.054-14.019-15.77-18.137-25.407-3.942-9.595-6.702-19.631-8.060-29.877-14.731-7.066-30.845-10.776-47.181-10.866-15.171-0.59-30.141 3.644-42.756 12.089-12.12 8.969-22.385 20.203-30.227 33.075-3.507 5.397-7.417 10.523-11.696 15.336-4.522 5.042-9.509 9.65-14.895 13.752-5.336 3.982-11.186 7.222-17.391 9.638-6.090 2.68-12.667 4.066-19.319 4.078-1.614-0.054-3.223-0.199-4.819-0.44-2.191 0-4.381-0.265-6.484-0.789-1.881-0.488-3.66-1.301-5.257-2.409-0.706-0.404-1.296-0.982-1.71-1.681s-0.641-1.494-0.655-2.307c0.175-1.934 0.772-3.807 1.748-5.487s2.309-3.126 3.903-4.235c3.68-2.982 6.79-5.259 9.288-6.879l1.139-0.831c5.388-4.12 10.513-8.59 15.332-13.366 4.556-3.939 8.63-8.409 12.091-13.27 3.636-4.734 6.746-9.903 9.287-15.288 2.935-5.391 6.045-11.565 9.287-18.577 7.535-19.010 20.94-35.135 38.288-45.996 18.18-9.77 38.638-14.631 59.272-14.107 7.009 0 14.019 0.44 21.028 1.223 6.834 1.096 13.712 2.283 20.59 3.638v-70.005c0.116-2.813-0.361-5.626-1.4-8.246s-2.619-4.994-4.635-6.963c-2.015-1.97-4.423-3.494-7.067-4.475-2.643-0.976-5.463-1.391-8.276-1.211h-2.497c-93.634 30.25-173.391 92.943-224.91 176.779s-71.412 183.307-56.1 280.508c15.312 97.201 64.825 185.742 139.622 249.678s169.964 99.068 268.363 99.068c98.4 0 193.569-35.132 268.363-99.068 74.8-63.936 124.314-152.477 139.625-249.678s-4.584-196.672-56.103-280.508c-51.519-83.835-131.277-146.528-224.907-176.779v-0.217h0.042z" />
<glyph unicode="&#xe902;" glyph-name="next-weather" d="M219.423 717.97l33.646-2.926c15.416 56.86 49.129 107.060 95.93 142.844s104.083 55.158 162.996 55.13c71.129 0 139.344-28.256 189.639-78.551 50.297-50.295 78.553-118.51 78.553-189.639l-3.899-46.324c22.426 14.141 48.757 21.943 77.041 21.943 38.795 0 76.003-15.413 103.439-42.846s42.847-64.642 42.847-103.44c0-38.797-15.411-76.006-42.847-103.439s-64.644-42.846-103.439-42.846h-633.906c-51.73 0-101.341 20.55-137.92 57.128s-57.128 86.19-57.128 137.92c0 51.73 20.55 101.341 57.128 137.92s86.189 57.128 137.92 57.128zM219.423 620.447c-25.865 0-50.67-10.275-68.96-28.564s-28.564-43.095-28.564-68.96c0-25.865 10.274-50.67 28.564-68.96s43.095-28.564 68.96-28.564h633.906c12.932 0 25.337 5.138 34.48 14.282s14.285 21.547 14.285 34.48c0 12.933-5.142 25.335-14.285 34.48s-21.548 14.282-34.48 14.282h-170.668v121.905c0 45.264-17.981 88.673-49.987 120.679s-75.415 49.987-120.679 49.987c-45.264 0-88.673-17.981-120.68-49.987s-49.987-75.415-49.987-120.679v-24.381h-121.904zM999.614 132.827l-146.286-146.286v97.521h-828.953v97.529h828.953v97.521l146.286-146.286z" />
<glyph unicode="&#xe903;" glyph-name="pressure" horiz-adv-x="751" d="M413.477 438.283l278.529 256.303c5.168 4.764 8.82 11.041 10.465 18.001 1.638 6.959 1.201 14.272-1.256 20.968-2.464 6.696-6.833 12.459-12.534 16.525s-12.455 6.243-19.375 6.242h-102.4v176.687h-68.267v-247.362h80.896l-217.429-200.081-217.429 200.081h80.896v247.362h-68.267v-176.687h-102.4c-6.921 0.001-13.678-2.176-19.376-6.242s-10.068-9.829-12.53-16.525c-2.462-6.696-2.9-14.009-1.255-20.968s5.293-13.237 10.463-18.001l278.528-256.303-278.528-256.304c-5.17-4.765-8.819-11.039-10.463-18.002-1.644-6.956-1.207-14.268 1.255-20.965s6.832-12.459 12.53-16.527c5.698-4.062 12.456-6.24 19.376-6.24h102.4v-176.688h68.267v247.364h-80.896l217.429 200.080 217.429-200.080h-80.896v-247.364h68.267v176.688h102.4c6.917 0.007 13.668 2.191 19.361 6.26s10.063 9.83 12.52 16.521c2.458 6.697 2.888 14.008 1.242 20.965s-5.291 13.23-10.458 17.988l-278.495 256.304z" />
<glyph unicode="&#xe904;" glyph-name="rain" horiz-adv-x="964" d="M0 466.235c0 55.27 16.709 104.457 50.128 147.561s75.701 70.814 126.846 83.13c14.53 65.482 47.222 119.25 98.076 161.303s108.974 63.079 174.358 63.079c63.931 0 120.961-20.501 171.088-61.502s82.751-93.643 97.858-157.924h14.824c41.556 0 80.059-10.438 115.513-31.315 35.448-20.876 63.494-49.412 84.125-85.608s30.949-75.771 30.949-118.725c0-42.053-9.806-81.177-29.425-117.37-19.613-36.195-46.423-65.108-80.42-86.739-34.003-21.624-71.198-33.039-111.592-34.244-6.102 0-9.15 2.705-9.15 8.114v63.982c0 5.704 3.048 8.559 9.15 8.559 39.52 2.102 73.306 18.474 101.346 49.111 28.046 30.639 42.068 66.835 42.068 108.587s-15.113 78.023-45.333 108.813c-30.226 30.789-65.97 46.183-107.231 46.183h-74.975c-5.524 0-8.282 2.703-8.282 8.11l-3.488 27.935c-5.228 51.966-26.811 95.445-64.731 130.44-37.923 34.994-82.021 52.491-132.294 52.491-50.855 0-95.098-17.497-132.73-52.491s-58.773-78.474-63.423-130.44l-3.487-25.683c0-6.007-3.052-9.011-9.154-9.011l-24.41-1.352c-38.649-4.806-71.124-21.927-97.423-51.365s-39.449-63.98-39.449-103.631c0-41.752 13.949-77.948 41.846-108.587 27.897-30.637 61.752-47.009 101.563-49.111 5.231 0 7.846-2.855 7.846-8.559v-63.982c0-5.409-2.615-8.114-7.846-8.114-62.188 3.006-114.858 27.485-158.012 73.445s-64.731 100.927-64.731 164.908zM248.896 144.98c0 2.102 0.581 5.259 1.743 9.463l75.846 277.098c2.906 9.312 7.919 16.371 15.038 21.177s14.312 7.209 21.577 7.209c3.197 0 6.975-0.451 11.333-1.352 11.043-2.103 19.398-7.96 25.064-17.572s6.902-20.276 3.705-31.99l-75.846-275.297c-5.812-20.426-18.598-30.642-38.358-30.642-1.744 0-3.487 0.301-5.231 0.904-2.615 0.904-4.213 1.349-4.795 1.349-10.171 3.006-17.727 8.337-22.667 15.998s-7.41 15.547-7.41 23.654zM370.947 9.812l113.333 421.729c2.034 9.312 6.684 16.371 13.949 21.177s14.82 7.209 22.667 7.209c4.068 0 8.282-0.451 12.641-1.352 10.171-3.004 17.727-9.236 22.667-18.698s5.957-19.75 3.052-30.864l-112.897-422.181c-1.743-8.114-6.248-15.023-13.513-20.727-7.265-5.71-15.111-8.559-23.538-8.559-4.359 0-8.282 0.747-11.769 2.253-9.299 2.403-17.291 8.71-23.974 18.92-5.231 8.415-6.102 18.775-2.615 31.093zM562.741 143.631c0 1.801 0.581 5.403 1.744 10.812l75.846 277.098c2.614 9.312 7.337 16.371 14.167 21.177 6.825 4.806 14.017 7.209 21.576 7.209 3.777 0 7.843-0.451 12.204-1.352 9.589-2.703 16.782-7.66 21.576-14.868s7.192-14.718 7.192-22.529c0-1.502-0.289-3.68-0.873-6.533-0.578-2.854-0.867-4.731-0.867-5.632l-75.848-275.297c-1.741-9.312-6.102-16.745-13.077-22.305-6.975-5.554-14.818-8.337-23.54-8.337l-11.331 2.253c-9.299 2.705-16.419 7.891-21.359 15.547-4.94 7.662-7.41 15.246-7.41 22.757z" />
<glyph unicode="&#xe905;" glyph-name="visibility" horiz-adv-x="1365" d="M682.673 761.925c104.603 0.376 207.183-31.145 295.946-90.939 88.755-59.793 160.094-145.433 205.815-247.072-93.867-207.109-286.157-338.010-501.762-338.010-215.609 0-407.893 130.9-501.76 338.010 45.717 101.639 117.057 187.279 205.817 247.072s191.34 91.315 295.943 90.939zM682.673 884.839c-284.444 0-527.36-191.13-625.778-460.924 98.418-269.795 341.334-460.924 625.778-460.924s527.362 191.129 625.777 460.924c-98.415 269.794-341.333 460.924-625.777 460.924zM682.673 577.556c37.72 0 73.894-16.187 100.566-45.001s41.656-67.893 41.656-108.64c0-40.748-14.985-79.828-41.656-108.641s-62.846-45.001-100.566-45.001c-37.72 0-73.894 16.187-100.566 45.001s-41.656 67.893-41.656 108.641c0 40.748 14.985 79.827 41.656 108.64s62.846 45.001 100.566 45.001zM682.673 700.469c-141.084 0-256-124.142-256-276.554s114.916-276.555 256-276.555c141.084 0 256.002 124.142 256.002 276.555s-114.918 276.554-256.002 276.554z" />
<glyph unicode="&#xe906;" glyph-name="weather" horiz-adv-x="964" d="M533.172 849.744l-51.29-150.484-51.29 150.484c-2.765 8.15-3.548 16.842-2.285 25.355s4.538 16.603 9.552 23.599c5.014 6.995 11.622 12.695 19.278 16.628s16.139 5.983 24.745 5.983c8.606 0 17.089-2.051 24.745-5.983s14.264-9.632 19.278-16.628c5.013-6.996 8.288-15.085 9.552-23.599s0.48-17.205-2.285-25.355zM71.566 490.716l150.483-51.289-150.483-51.29c-8.15-2.765-16.842-3.549-25.356-2.285s-16.603 4.538-23.599 9.552c-6.996 5.013-12.696 11.622-16.628 19.278s-5.983 16.138-5.983 24.745c0 8.606 2.051 17.089 5.983 24.745s9.632 14.264 16.628 19.278c6.996 5.014 15.085 8.288 23.599 9.552s17.205 0.481 25.356-2.285zM430.593 29.112l51.29 150.48 51.29-150.48c2.765-8.15 3.549-16.842 2.285-25.359-1.264-8.511-4.538-16.601-9.552-23.6-5.014-6.993-11.622-12.692-19.278-16.625s-16.139-5.981-24.745-5.981c-8.606 0-17.089 2.048-24.745 5.981s-14.264 9.632-19.278 16.625c-5.013 6.999-8.288 15.089-9.552 23.6-1.263 8.517-0.48 17.209 2.285 25.359zM892.199 388.239l-150.486 51.29 150.486 51.29c8.15 2.765 16.842 3.548 25.353 2.285 8.517-1.264 16.607-4.538 23.6-9.552 6.999-5.014 12.698-11.622 16.631-19.278s5.981-16.139 5.981-24.745c0-8.606-2.048-17.089-5.981-24.745s-9.632-14.264-16.631-19.278c-6.993-5.013-15.083-8.288-23.6-9.552-8.511-1.264-17.203-0.48-25.353 2.285zM227.998 765.834l70.113-142.637-142.637 70.113c-7.751 3.793-14.485 9.381-19.642 16.301s-8.587 14.97-10.006 23.482c-1.419 8.512-0.785 17.24 1.848 25.458s7.191 15.689 13.293 21.791c6.102 6.102 13.572 10.659 21.79 13.293s16.946 3.267 25.458 1.848c8.512-1.419 16.563-4.85 23.482-10.006s12.508-11.89 16.3-19.642zM155.475 185.597l142.637 70.108-70.113-142.637c-3.792-7.746-9.381-14.481-16.3-19.637-6.919-5.162-14.97-8.59-23.482-10.011-8.512-1.416-17.24-0.783-25.458 1.849s-15.688 7.192-21.79 13.294c-6.102 6.102-10.659 13.571-13.293 21.793-2.633 8.216-3.267 16.944-1.848 25.455s4.849 16.565 10.006 23.48c5.157 6.921 11.891 12.511 19.642 16.306zM735.714 113.068l-70.114 142.637 142.637-70.108c7.752-3.795 14.487-9.385 19.643-16.306 5.156-6.915 8.59-14.968 10.005-23.48 1.422-8.511 0.789-17.239-1.849-25.455-2.632-8.222-7.186-15.691-13.288-21.793s-13.577-10.662-21.793-13.294c-8.216-2.632-16.944-3.265-25.455-1.849-8.517 1.422-16.565 4.849-23.486 10.011-6.915 5.156-12.505 11.89-16.3 19.637zM808.189 693.412l-142.691-70.164 70.168 142.688c3.789 7.751 9.379 14.485 16.3 19.642 6.915 5.157 14.968 8.587 23.48 10.006s17.239 0.785 25.461-1.848c8.216-2.633 15.685-7.191 21.787-13.293s10.662-13.572 13.294-21.79c2.632-8.218 3.265-16.946 1.849-25.458-1.422-8.512-4.849-16.562-10.005-23.482-5.162-6.919-11.89-12.508-19.643-16.301zM481.882 208.625c-127.249 0-230.804 103.55-230.804 230.802 0 127.249 103.554 230.803 230.804 230.803 127.247 0 230.804-103.554 230.804-230.803 0-127.251-103.557-230.802-230.804-230.802zM481.882 567.651c-70.728 0-128.224-57.496-128.224-128.224s57.496-128.227 128.224-128.227c70.728 0 128.223 57.498 128.223 128.227s-57.495 128.224-128.223 128.224z" />
<glyph unicode="&#xe907;" glyph-name="wind" horiz-adv-x="887" d="M45.511 532.516c-12.070 0-23.646 4.964-32.181 13.801s-13.33 20.82-13.33 33.316c0 12.496 4.795 24.48 13.33 33.317s20.111 13.8 32.181 13.8h364.089c24.14 0 47.292 9.928 64.362 27.6s26.659 41.641 26.659 66.633c0 24.992-9.589 48.961-26.659 66.633s-40.222 27.6-64.362 27.6c-25.031 0-47.787-10.366-64.171-27.799-4.142-4.576-9.146-8.223-14.705-10.717s-11.551-3.781-17.608-3.781c-6.058 0-12.050 1.287-17.609 3.781s-10.562 6.141-14.705 10.717c-17.749 18.375-17.749 48.53 0 66.905 33.223 33.924 78.735 55.127 128.797 55.127 48.281 0 94.585-19.856 128.725-55.2s53.32-83.282 53.32-133.266c0-49.985-19.18-97.922-53.32-133.266s-80.444-55.201-128.725-55.201h-364.089zM728.18 438.283c12.070 0 23.641 4.964 32.181 13.8 8.533 8.836 13.326 20.821 13.326 33.317s-4.792 24.48-13.326 33.316c-8.54 8.836-20.111 13.8-32.181 13.8-12.745 0-24.125-5.183-32.317-13.664-4.205-4.368-9.209-7.833-14.715-10.198s-11.408-3.581-17.368-3.581c-5.96 0-11.863 1.217-17.368 3.581s-10.507 5.83-14.718 10.198c-17.294 18.375-17.294 48.059 0 66.434 24.576 25.443 58.707 41.463 96.486 41.463 36.209 0 70.936-14.892 96.543-41.401s39.991-62.461 39.991-99.949c0-37.489-14.384-73.441-39.991-99.95s-60.334-41.4-96.543-41.4h-637.158c-12.070 0-23.646 4.964-32.181 13.8s-13.33 20.821-13.33 33.317c0 12.496 4.795 24.48 13.33 33.316s20.111 13.8 32.181 13.8h637.158zM682.667 155.58h-637.156c-12.070 0-23.646 4.97-32.181 13.804s-13.33 20.821-13.33 33.314c0 12.5 4.795 24.48 13.33 33.321 8.535 8.834 20.111 13.797 32.181 13.797h637.156c36.209 0 70.936-14.889 96.543-41.397s39.991-62.464 39.991-99.949c0-37.492-14.384-73.441-39.991-99.949s-60.334-41.404-96.543-41.404c-37.774 0-71.907 16.022-96.483 41.465-17.295 18.371-17.295 48.060 0 66.43 4.21 4.369 9.211 7.837 14.717 10.199s11.407 3.584 17.368 3.584c5.96 0 11.862-1.222 17.368-3.584s10.507-5.83 14.718-10.199c8.192-8.479 19.569-13.66 32.313-13.66 12.070 0 23.648 4.963 32.181 13.797 8.533 8.841 13.332 20.821 13.332 33.321 0 12.493-4.799 24.48-13.332 33.314s-20.111 13.797-32.181 13.797z" />
<glyph unicode="&#xe908;" glyph-name="hail" horiz-adv-x="1126" d="M223.2 115.2c-13.6-13.6-13.6-36 0-49.6 38.4-39.2 40-93.2 40-94.8 0-19.2 15.6-34.8 34.8-34.8 19.6 0 35.2 15.6 35.2 35.2v0.4c0 8.4-2.8 85.6-60.8 143.6-13.6 13.6-35.6 13.6-49.2 0zM504 115.2c-57.6-58-60.4-135.2-60.4-143.6l-0.4-0.4c0-19.2 15.6-34.8 34.8-35.2h0.4c19.2 0 34.8 15.6 34.8 34.8v0.4c0.4 3.6 2.4 56.4 40.4 94.4 13.6 13.6 13.6 36 0 49.6-14 13.6-36 13.6-49.6 0zM388 44c-19.2 0-34.8-16-34.8-35.2v-6c0-19.2 15.6-35.2 34.8-35.2s34.8 16 34.8 35.2v6c0 19.2-15.6 35.2-34.8 35.2zM849.6 177.6c-58.8-58.8-60.8-136.8-60.8-143.6v-0.4c0-19.2 15.6-34.8 34.8-34.8h0.4c18.8 0 34.4 15.6 34.8 34.8 0 0.4 1.2 55.2 40 94.4 13.6 13.6 13.6 36 0 49.6-13.6 14-35.6 14-49.2 0zM733.6 106.4c-19.6 0-35.2-15.6-35.2-35.2v-5.6c0-19.6 15.6-35.2 35.2-35.2 19.2 0 34.8 15.6 34.8 35.2v5.6c0 19.6-15.6 35.2-34.8 35.2zM388 384c-19.2 0-34.8-15.6-34.8-35.2v-252c0-19.6 15.6-35.2 34.8-35.2s34.8 15.6 34.8 35.2v252c0 19.6-15.6 35.2-34.8 35.2zM738 450.4c-19.2 0-35.2-15.6-35.2-34.8v-252.4c0-19.6 16-35.2 35.2-35.2s34.8 15.6 34.8 35.2v252.4c0 19.2-15.6 34.8-34.8 34.8zM562 216c-19.2 0-35.2-16-35.2-35.2v-6c0-19.2 16-35.2 35.2-35.2s34.8 16 34.8 35.2v6c0 19.2-15.6 35.2-34.8 35.2zM562.8 450.4c-19.2 0-34.8-15.6-34.8-34.8v-153.6c0-19.6 15.6-35.2 34.8-35.2 19.6 0 35.2 15.6 35.2 35.2v153.6c0 19.2-15.6 34.8-35.2 34.8zM525.2 960c-138.8 0-265.6-80-326.4-204.4-114.4-30.4-198.8-135.2-198.8-259.2 0-148 119.6-268 266.4-268 19.2 0 34.8 15.6 34.8 35.2 0 19.2-15.6 35.2-34.8 35.2-108.4 0-196.4 88.4-196.4 197.6 0 108.8 88 197.2 196.4 197.2 36.4 0 72-10 103.2-29.2 16.4-10.4 38-5.2 48 11.2 10.4 16.4 5.2 38-11.2 48.4-36.8 22.8-78.4 36.4-121.6 39.6 54.4 78 143.6 126 240.4 126 162 0 293.6-132.4 293.6-295.6 0-8-0.4-16.8-0.8-25.2-2-21.2-6-42.4-12.4-62.4-5.6-18.8 4.8-38.4 23.2-44 3.2-1.2 6.8-1.6 10.4-1.6 14.8 0 28.8 9.6 33.2 24.4 8 25.2 12.8 51.6 15.2 78 0.8 10.4 1.2 20.8 1.2 30.8 0 12.4-0.4 24.8-1.6 36.8 90.4-0.4 164-74.8 164-166 0-91.6-74-166-165.2-166-19.2 0-34.8-16-34.8-35.2 0-19.6 15.6-35.2 34.8-35.2 129.6 0 235.2 106 235.2 236.4s-105.6 236.4-235.2 236.4c-4.4 0-8.8 0-13.2 0-45.2 149.6-184 258.8-347.6 258.8z" />
<glyph unicode="&#xe909;" glyph-name="hail-moon" horiz-adv-x="1138" d="M215.111 94.222c-13.333-12-13.333-31.556 0-43.556 37.333-33.778 38.667-80.889 38.667-81.778 0-16.889 15.111-30.222 33.333-30.222 18.667 0 33.778 13.333 33.778 30.222v0.889c0 7.111-2.667 73.778-58.222 124.444-13.333 11.556-34.667 11.556-47.556 0zM485.778 94.222c-56-50.667-58.222-117.333-58.667-124.444v-0.889c0-16.444 15.111-30.222 33.778-30.222s33.333 13.333 33.778 30.222c0 3.556 2.222 48.889 38.667 81.778 12.889 12 12.889 31.556 0 43.556-13.333 11.556-34.667 11.556-47.556 0zM373.778 32c-18.667 0-33.778-13.333-33.778-30.222v-5.333c0-16.889 15.111-30.222 33.778-30.222s33.778 13.333 33.778 30.222v5.333c0 16.889-15.111 30.222-33.778 30.222zM818.667 148.445c-56.444-51.111-58.222-119.111-58.667-124.889v-0.444c0-16.444 15.111-30.222 33.778-30.222s33.333 13.333 33.778 30.222c0 0.444 0.889 48 38.667 81.778 13.333 12 13.333 31.556 0 43.556-13.333 11.555-34.667 11.555-47.556 0zM706.667 86.222c-18.667 0-33.778-13.333-33.778-30.222v-5.333c0-16.444 15.111-30.222 33.778-30.222s33.778 13.778 33.778 30.222v5.333c0 16.889-15.111 30.222-33.778 30.222zM373.778 327.111c-18.667 0-33.778-13.333-33.778-30.222v-219.111c0-16.889 15.111-30.222 33.778-30.222s33.778 13.333 33.778 30.222v219.111c0 16.889-15.111 30.222-33.778 30.222zM711.111 384.889c-18.667 0-33.778-13.778-33.778-30.222v-219.111c0-16.889 15.111-30.667 33.778-30.667s33.778 13.778 33.778 30.667v219.111c0 16.444-15.111 30.222-33.778 30.222zM541.333 181.333c-18.667 0-33.333-13.778-33.333-30.667v-4.889c0-16.889 14.667-30.667 33.333-30.667s33.778 13.778 33.778 30.667v4.889c0 16.889-15.111 30.667-33.778 30.667zM542.222 384.889c-18.222 0-33.333-13.778-33.333-30.222v-133.333c0-16.889 15.111-30.667 33.333-30.667 18.667 0 33.778 13.778 33.778 30.667v133.333c0 16.444-15.111 30.222-33.778 30.222zM820 960c9.778 0 20-0.444 30.222-1.333 10.667-0.889 20.445-6.222 25.778-14.667 5.778-8.444 6.222-18.667 2.222-27.555-8-16.889-12-35.111-12-53.778 0-76 68.445-138.222 152.889-138.222 21.778 0 43.111 4 62.667 12 9.778 4.445 20.889 4 30.222-0.889s16-13.333 17.333-22.667c1.333-11.556 2.222-23.111 2.222-35.111 0-69.333-27.111-134.222-76.889-185.778 16-28 25.333-60.444 25.333-94.667 0-113.333-101.333-205.333-226.222-205.333-18.667 0-33.778 13.778-33.778 30.667s15.111 30.667 33.778 30.667c87.556 0 159.111 64.445 159.111 144 0 79.111-71.111 143.555-158.222 144 1.333-10.222 1.778-20.889 1.778-32 0-8.889-0.444-17.778-1.333-26.667-2.222-23.111-7.111-45.778-14.222-67.556-4.445-12.889-17.778-21.333-32.444-21.333-3.111 0-6.667 0.444-9.778 1.333-17.778 4.889-28 22.222-22.222 38.222 5.778 17.778 9.778 36 11.555 54.222 0.889 7.556 1.333 14.667 1.333 21.778 0 141.333-127.111 256.445-283.111 256.445-93.333 0-179.556-41.778-232-109.333 41.778-2.667 81.778-14.222 117.333-34.222 16-8.889 20.889-27.556 11.111-42.222-10.222-14.222-30.667-18.667-46.667-9.778-29.778 16.889-64 25.778-99.556 25.778-104 0-188.889-76.889-188.889-171.555 0-94.222 84.889-171.111 188.889-171.111 18.667 0 33.778-13.778 33.778-30.667s-15.111-30.667-33.778-30.667c-141.333 0-256.444 104.444-256.444 232.444 0 108 81.333 198.667 191.556 224.889 58.667 108.444 180.889 177.778 314.667 177.778 16 0 32-1.333 47.556-3.111 56 84.444 156 136 266.222 136zM802.222 898.222c-72-4.444-136.889-37.333-178.667-89.778 103.556-33.333 185.333-110.222 217.778-206.222 4 0 8 0.444 12.444 0.444 62.222 0 118.667-23.111 159.556-60 30.667 36 48.444 79.111 50.667 124.889-14.667-2.667-29.778-4-44.889-4-121.333 0-220 89.333-220 199.111 0 12 0.889 24 3.111 35.556z" />
<glyph unicode="&#xe90a;" glyph-name="hail-sun" horiz-adv-x="1138" d="M201.778 81.778c-12.445-11.111-12.445-29.333 0-40.444 35.111-31.555 36-75.555 36-76.889 0.444-15.556 14.222-28.444 32-28.444 17.333 0 31.556 12.889 31.556 28.444v0.889c-0.445 6.667-2.667 69.333-55.111 116.445-12 11.111-32 11.111-44.444 0zM455.556 81.778c-52-47.111-54.667-109.778-54.667-116.445v-0.889c0-15.556 14.222-28.444 31.555-28.444s31.556 12.889 31.556 28.444c0 3.111 2.222 46.222 36.445 76.889 12.444 11.111 12.444 29.333 0 40.444s-32.445 11.111-44.889 0zM350.667 24c-17.333 0-31.555-12.889-31.555-28.889v-4.444c0-16 14.222-28.889 31.555-28.889s31.556 12.889 31.556 28.889v4.444c0 16-14.222 28.889-31.556 28.889zM768 132.889c-52.889-48-54.667-111.556-54.667-116.889v-0.444c0-15.556 13.778-28.444 31.111-28.444h0.444c17.333 0 31.556 12.444 31.556 28.444 0 0.444 0.889 44.889 36.444 76.889 12 11.111 12 28.889 0 40.444-12.444 11.111-32.444 11.111-44.889 0zM663.111 74.667c-17.333 0-31.556-12.889-31.556-28.444v-4.889c0-15.556 14.222-28.444 31.556-28.444s31.556 12.889 31.556 28.444v4.889c0 15.556-14.222 28.444-31.556 28.444zM350.667 300.444c-17.333 0-31.555-12.444-31.555-28.444v-205.333c0-15.556 14.222-28.444 31.555-28.444s31.556 12.889 31.556 28.444v205.333c0 16-14.222 28.444-31.556 28.444zM667.111 354.667c-17.333 0-31.555-12.889-31.555-28.444v-205.333c0-16 14.222-28.889 31.555-28.889s31.556 12.889 31.556 28.889v205.333c0 15.555-14.222 28.444-31.556 28.444zM508 164c-17.333 0-31.556-12.889-31.556-28.889v-4.889c0-15.556 14.222-28.444 31.556-28.444s31.556 12.889 31.556 28.444v4.889c0 16-14.222 28.889-31.556 28.889zM508.889 354.667c-17.333 0-31.556-12.889-31.556-28.444v-124.889c0-16 14.222-28.889 31.556-28.889s31.556 12.889 31.556 28.889v124.889c0 15.555-14.222 28.444-31.556 28.444zM774.667 960c17.333 0 31.556-12.889 31.556-28.444v-96c32.889-4 63.555-14.667 90.222-29.778l68 73.333c11.556 12 31.111 13.778 44.889 3.556 13.333-10.222 15.111-28 3.556-40.444l-68-73.333c21.778-21.778 38.222-47.111 48.444-75.555l104 16.889c17.333 2.667 33.778-8 36.445-23.556 3.111-15.555-8.444-30.222-25.333-32.889l-104.444-16.889c0-2.222 0.444-4.889 0.444-7.556 0-27.111-5.778-53.778-16.889-78.222l91.555-48c15.111-7.556 20.444-25.333 11.556-39.111-5.778-8.889-16.445-14.222-27.556-14.222-5.333 0-10.667 1.333-15.556 4l-91.555 48c-0.889-0.889-1.333-1.333-1.778-2.222 36.444-34.667 59.111-81.333 59.111-133.333 0-105.778-95.111-192.444-212.445-192.444-17.333 0-31.555 12.889-31.555 28.889 0 15.556 14.222 28.444 31.555 28.444 82.222 0 149.333 60.889 149.333 135.111s-66.222 134.667-148.444 135.111c1.333-9.778 1.778-19.556 1.778-29.778 0-8.444-0.444-16.889-1.333-25.333-1.778-21.333-6.222-42.667-13.333-63.111-4.445-12.445-16.889-20-30.222-20-3.111 0-6.222 0.444-9.333 1.333-16.889 4.445-26.222 20.444-20.889 35.556 5.778 16.444 9.333 33.778 11.111 51.111 0.444 6.667 0.889 13.778 0.889 20.444 0 132.445-119.111 240.444-265.333 240.444-87.556 0-168.444-39.111-217.778-102.667 39.111-2.667 76.889-13.333 110.222-32 14.667-8.444 19.111-26.222 10.222-39.556-9.333-13.333-28.889-17.333-43.555-9.333-28 16-60.444 24-93.333 24-98.222 0-177.778-72-177.778-160.445 0-88.889 79.555-160.889 177.778-160.889 17.333 0 31.555-12.889 31.555-28.444 0-16-14.222-28.889-31.555-28.889-132.889 0-240.889 97.778-240.889 218.222 0 100.889 76.444 186.222 180 210.667 54.667 101.778 169.333 166.667 295.111 166.667 39.556 0 77.778-6.667 112.889-18.222 5.333 6.222 10.222 12 16 17.778l-68 73.333c-11.111 12.444-9.333 30.222 4 40.444s33.333 8.444 44.444-3.556l68-73.333c27.555 15.111 58.222 25.778 90.667 29.778v96c0 15.556 13.778 28.444 31.556 28.444zM774.667 780.444c-50.222 0-97.333-20.444-128.444-55.111 67.556-37.333 119.556-96.889 143.111-166.667 4 0 7.556 0 11.555 0 37.333 0 72.444-8.444 103.111-24 5.333 6.222 10.222 12.444 14.667 19.111 0 0 0 0 0 0.444 0 0 0 0 0.444 0 14.222 22.667 21.778 48.444 21.778 75.111 0 83.111-74.667 151.111-166.222 151.111z" />
<glyph unicode="&#xe90b;" glyph-name="moon" d="M473.6 864c-212-20-378.4-197.6-378.4-412.8 0-228.4 187.6-414.4 418.8-414.4 172.8 0 326.4 106 389.2 260.4-13.2-1.2-26.4-1.6-39.6-1.6-231.2 0-419.6 186-419.6 414.8 0 53.2 10.4 105.2 29.6 153.6zM514-57.2c-283.6 0-514 228-514 508.4 0 280.8 230.4 508.8 514 508.8 14 0 28-0.4 42-1.6 16.4-1.6 31.2-11.6 38.4-26.4 7.6-14.8 6.4-32.4-2.8-46.4-34.4-52-52.4-112.4-52.4-175.2 0-176.8 145.6-320.8 324.4-320.8 32 0 63.6 4.4 93.6 13.6 16 4.8 33.2 0.8 45.6-10.4 12.4-10.8 18-27.6 14.8-44-48.8-235.2-260.4-406-503.6-406z" />
<glyph unicode="&#xe90c;" glyph-name="rain-heavy" d="M510.8 386.8c-17.6 0-31.6-15.6-31.6-34.8v-375.6c0-19.6 14-35.2 31.6-35.2s32 15.6 32 35.2v375.6c0 19.2-14.4 34.8-32 34.8zM352.8 473.2c-17.6 0-32-16-32-35.2v-375.6c0-19.2 14.4-34.8 32-34.8s31.6 15.6 31.6 34.8v375.6c0 19.2-14 35.2-31.6 35.2zM669.2 473.2c-17.6 0-32-16-32-35.2v-375.6c0-19.2 14.4-34.8 32-34.8s31.6 15.6 31.6 34.8v375.6c0 19.2-14 35.2-31.6 35.2zM477.6 960c-126.4 0-241.6-79.2-296.8-203.2-104-29.6-180.8-133.6-180.8-257.2 0-146.4 108.4-265.6 242-265.6 17.6 0 32 15.6 32 34.8s-14.4 34.8-32 34.8c-98.4 0-178.4 88-178.4 196 0 108.4 80 196 178.4 196 33.2 0 66-10 94-29.2 14.8-10 34.4-5.2 43.6 11.2s4.8 38-10 48.4c-33.6 22.4-71.6 36-110.8 38.8 49.6 77.6 130.8 125.2 218.8 125.2 147.2 0 266.8-131.2 266.8-293.2 0-8-0.4-16.4-0.8-24.8-1.6-21.2-5.6-42-11.2-62.4-5.2-18.4 4.4-38 20.8-43.6 3.2-1.2 6.4-1.6 9.6-1.6 13.6 0 26 9.6 30.4 24.4 7.2 25.2 11.6 51.2 13.6 77.2 0.8 10.4 1.2 20.8 1.2 30.8 0 12.4-0.4 24.8-1.6 36.8 82.4-0.8 149.2-74.4 149.2-164.8 0-91.2-67.2-165.2-150-165.2-17.6 0-32-15.6-32-34.8s14.4-34.8 32-34.8c117.6 0 213.6 105.2 213.6 234.8 0 129.2-96 234.4-213.6 234.4-4 0-8 0-12-0.4-41.2 148.8-167.2 257.2-316 257.2z" />
<glyph unicode="&#xe90d;" glyph-name="rain-heavy-moon" horiz-adv-x="1138" d="M541.333 325.778c-18.222 0-33.333-13.778-33.333-30.667v-328c0-16.889 15.111-30.667 33.333-30.667 18.667 0 33.778 13.778 33.778 30.667v328c0 16.889-15.111 30.667-33.778 30.667zM373.778 401.333c-18.667 0-33.778-13.778-33.778-30.667v-328.444c0-16.889 15.111-30.222 33.778-30.222s33.778 13.333 33.778 30.222v328.444c0 16.889-15.111 30.667-33.778 30.667zM709.333 401.333c-18.667 0-33.778-13.778-33.778-30.667v-328.444c0-16.889 15.111-30.222 33.778-30.222 18.222 0 33.333 13.333 33.333 30.222v328.444c0 16.889-15.111 30.667-33.333 30.667zM820 960c9.778 0 20-0.444 30.222-1.333 10.667-0.889 20.445-6.222 25.778-14.667 5.778-8.444 6.222-18.667 2.222-27.555-8-16.889-12-35.111-12-53.778 0-76 68.445-138.222 152.889-138.222 21.778 0 43.111 4 62.667 12 9.778 4.445 20.889 4 30.222-0.889s16-13.333 17.333-22.667c1.333-11.556 2.222-23.111 2.222-35.111 0-69.333-27.111-134.222-76.889-185.778 16-28 25.333-60.444 25.333-94.667 0-113.333-101.333-205.333-226.222-205.333-18.667 0-33.778 13.778-33.778 30.667s15.111 30.667 33.778 30.667c87.556 0 159.111 64.445 159.111 144 0 79.111-71.111 143.555-158.222 144 1.333-10.222 1.778-20.889 1.778-32 0-8.889-0.444-17.778-1.333-26.667-2.222-23.111-7.111-45.778-14.222-67.556-4.445-12.889-17.778-21.333-32.444-21.333-3.111 0-6.667 0.444-9.778 1.333-17.778 4.889-28 22.222-22.222 38.222 5.778 17.778 9.778 36 11.555 54.222 0.889 7.556 1.333 14.667 1.333 21.778 0 141.333-127.111 256.445-283.111 256.445-93.333 0-179.556-41.778-232-109.333 41.778-2.667 81.778-14.222 117.333-34.222 16-8.889 20.889-27.556 11.111-42.222-10.222-14.222-30.667-18.667-46.667-9.778-29.778 16.889-64 25.778-99.556 25.778-104 0-188.889-76.889-188.889-171.555 0-94.222 84.889-171.111 188.889-171.111 18.667 0 33.778-13.778 33.778-30.667s-15.111-30.667-33.778-30.667c-141.333 0-256.444 104.444-256.444 232.444 0 108 81.333 198.667 191.556 224.889 58.667 108.444 180.889 177.778 314.667 177.778 16 0 32-1.333 47.556-3.111 56 84.444 156 136 266.222 136zM802.222 898.222c-72-4.444-136.889-37.333-178.667-89.778 103.556-33.333 185.333-110.222 217.778-206.222 4 0 8 0.444 12.444 0.444 62.222 0 118.667-23.111 159.556-60 30.667 36 48.444 79.111 50.667 124.889-14.667-2.667-29.778-4-44.889-4-121.333 0-220 89.333-220 199.111 0 12 0.889 24 3.111 35.556z" />
<glyph unicode="&#xe90e;" glyph-name="rain-heavy-sun" d="M457.2 303.2c-15.6 0-28.4-12.4-28.4-28.4v-306c0-15.6 12.8-28.4 28.4-28.4s28.4 12.8 28.4 28.4v306c0 16-12.8 28.4-28.4 28.4zM315.6 373.6c-15.6 0-28.4-12.8-28.4-28.4v-306c0-16 12.8-28.4 28.4-28.4s28.4 12.4 28.4 28.4v306c0 15.6-12.8 28.4-28.4 28.4zM598.8 373.6c-15.6 0-28.4-12.8-28.4-28.4v-306c0-16 12.8-28.4 28.4-28.4s28.4 12.4 28.4 28.4v306c0 15.6-12.8 28.4-28.4 28.4zM697.2 960c15.6 0 28.4-12.8 28.4-28.4v-95.2c29.6-4 57.2-14.4 81.2-29.6l61.2 72.8c10.4 12 28 13.6 40.4 3.6 12-10 13.6-28 3.2-40l-61.2-73.2c19.6-21.2 34.4-46.8 43.6-74.8l93.6 16.4c15.6 2.8 30.4-7.6 32.8-23.2 2.8-15.2-7.6-30-22.8-32.8l-94-16.4c0-2.8 0.4-5.2 0.4-7.6 0-27.2-5.2-53.6-15.2-78l82.4-47.6c13.6-7.6 18.4-25.2 10.4-38.8-5.2-9.2-14.8-14-24.8-14-4.8 0-9.6 1.2-14 3.6l-82.4 47.6c-0.8-0.4-1.2-1.2-1.6-2 32.8-34.4 53.2-80.8 53.2-132.4 0-105.6-85.6-191.2-191.2-191.2-15.6 0-28.4 12.8-28.4 28.4s12.8 28.4 28.4 28.4c74 0 134.4 60.4 134.4 134.4s-59.6 134-133.6 134.4c1.2-10 1.6-19.6 1.6-30 0-8-0.4-16.8-1.2-24.8-1.6-21.6-5.6-42.8-12-62.8-4-12.4-15.2-20-27.2-20-2.8 0-5.6 0.4-8.4 1.2-15.2 4.4-23.6 20.4-18.8 35.6 5.2 16.4 8.4 33.2 10 50.8 0.4 6.4 0.8 13.6 0.8 20 0 132-107.2 239.2-238.8 239.2-78.8 0-151.6-39.2-196-102 35.2-2.4 69.2-13.6 99.2-32 13.2-8.4 17.2-26 9.2-39.2-8.4-13.2-26-17.6-39.2-9.2-25.2 15.6-54.4 24-84 24-88.4 0-160-71.6-160-160 0-88 71.6-159.6 160-159.6 15.6 0 28.4-12.8 28.4-28.4s-12.8-28.4-28.4-28.4c-119.6 0-216.8 97.2-216.8 216.4 0 100.8 68.8 185.6 162 209.6 49.2 101.2 152.4 165.6 265.6 165.6 35.6 0 70-6.4 101.6-18 4.8 6 9.2 12 14.4 17.6l-61.2 73.2c-10 12-8.4 30 3.6 40s30 8.4 40-3.6l61.2-73.2c24.8 15.6 52.4 26 81.6 30v95.2c0 15.6 12.4 28.4 28.4 28.4zM697.2 781.6c-45.2 0-87.6-20.4-115.6-54.8 60.8-37.2 107.6-96 128.8-166 3.6 0.4 6.8 0.4 10.4 0.4 33.6 0 65.2-8.8 92.8-24 4.8 6 9.2 12.4 13.2 19.2 0 0.4 0 0.4 0.4 0.4 12.8 22.4 19.6 48 19.6 74.8 0 82.4-67.2 150-149.6 150z" />
<glyph unicode="&#xe90f;" glyph-name="rain-light" d="M510.8 11.6c-17.6 0-31.6-15.6-31.6-35.2v-2c0-19.2 14-34.8 31.6-34.8s32 15.6 32 34.8v2c0 19.6-14.4 35.2-32 35.2zM352.8 97.6c-17.6 0-32-15.6-32-34.8v-2c0-19.2 14.4-34.8 32-34.8s31.6 15.6 31.6 34.8v2c0 19.2-14 34.8-31.6 34.8zM669.2 97.6c-17.6 0-32-15.6-32-34.8v-2c0-19.2 14.4-34.8 32-34.8s31.6 15.6 31.6 34.8v2c0 19.2-14 34.8-31.6 34.8zM510.8 178c-17.6 0-31.6-15.6-31.6-34.8v-56.4c0-19.2 14-34.8 31.6-34.8s32 15.6 32 34.8v56.4c0 19.2-14.4 34.8-32 34.8zM352.8 264.4c-17.6 0-32-15.6-32-34.8v-56.4c0-19.6 14.4-35.2 32-35.2s31.6 15.6 31.6 35.2v56.4c0 19.2-14 34.8-31.6 34.8zM669.2 264.4c-17.6 0-32-15.6-32-34.8v-56.4c0-19.6 14.4-35.2 32-35.2s31.6 15.6 31.6 35.2v56.4c0 19.2-14 34.8-31.6 34.8zM510.8 386.8c-17.6 0-31.6-15.6-31.6-34.8v-87.6c0-19.2 14-34.8 31.6-34.8s32 15.6 32 34.8v87.6c0 19.2-14.4 34.8-32 34.8zM477.6 960c-126.4 0-241.6-79.2-296.8-203.2-104-29.6-180.8-133.6-180.8-257.2 0-146.4 108.4-265.6 242-265.6 17.6 0 32 15.6 32 34.8s-14.4 34.8-32 34.8c-98.4 0-178.4 88-178.4 196 0 108.4 80 196 178.4 196 33.2 0 66-10 94-29.2 14.8-10 34.4-5.2 43.6 11.2s4.8 38-10 48.4c-33.6 22.4-71.6 36-110.8 38.8 49.6 77.6 130.8 125.2 218.8 125.2 147.2 0 266.8-131.2 266.8-293.2 0-8-0.4-16.4-0.8-24.8-1.6-21.2-5.6-42-11.2-62.4-5.2-18.4 4.4-38 20.8-43.6 3.2-1.2 6.4-1.6 9.6-1.6 13.6 0 26 9.6 30.4 24.4 7.2 25.2 11.6 51.2 13.6 77.2 0.8 10.4 1.2 20.8 1.2 30.8 0 12.4-0.4 24.8-1.6 36.8 82.4-0.8 149.2-74.4 149.2-164.8 0-91.2-67.2-165.2-150-165.2-17.6 0-32-15.6-32-34.8s14.4-34.8 32-34.8c117.6 0 213.6 105.2 213.6 234.8 0 129.2-96 234.4-213.6 234.4-4 0-8 0-12-0.4-41.2 148.8-167.2 257.2-316 257.2zM352.8 473.2c-17.6 0-32-16-32-35.2v-87.2c0-19.2 14.4-34.8 32-34.8s31.6 15.6 31.6 34.8v87.2c0 19.2-14 35.2-31.6 35.2zM669.2 473.2c-17.6 0-32-16-32-35.2v-87.2c0-19.2 14.4-34.8 32-34.8s31.6 15.6 31.6 34.8v87.2c0 19.2-14 35.2-31.6 35.2z" />
<glyph unicode="&#xe910;" glyph-name="rain-light-moon" d="M487.2 4c-16.4 0-30-13.6-30-30.4v-1.6c0-16.8 13.6-30.4 30-30.4 16.8 0 30.4 13.6 30.4 30.4v1.6c0 16.8-13.6 30.4-30.4 30.4zM336.4 78.8c-16.8 0-30.4-13.6-30.4-30v-2c0-16.8 13.6-30.4 30.4-30.4s30.4 13.6 30.4 30.4v2c0 16.4-13.6 30-30.4 30zM638.4 78.8c-16.8 0-30.4-13.6-30.4-30v-2c0-16.8 13.6-30.4 30.4-30.4 16.4 0 30 13.6 30 30.4v2c0 16.4-13.6 30-30 30zM487.2 148.8c-16.4 0-30-13.6-30-30.4v-48.8c0-16.8 13.6-30.4 30-30.4 16.8 0 30.4 13.6 30.4 30.4v48.8c0 16.8-13.6 30.4-30.4 30.4zM336.4 223.6c-16.8 0-30.4-13.6-30.4-30.4v-48.8c0-16.8 13.6-30.4 30.4-30.4s30.4 13.6 30.4 30.4v48.8c0 16.8-13.6 30.4-30.4 30.4zM638.4 223.6c-16.8 0-30.4-13.6-30.4-30.4v-48.8c0-16.8 13.6-30.4 30.4-30.4 16.4 0 30 13.6 30 30.4v48.8c0 16.8-13.6 30.4-30 30.4zM487.2 330c-16.4 0-30-13.6-30-30.4v-76c0-16.4 13.6-30 30-30 16.8 0 30.4 13.6 30.4 30v76c0 16.8-13.6 30.4-30.4 30.4zM738 960c8.8 0 18-0.4 27.2-1.2 9.6-0.8 18.4-6.4 23.2-14.8 5.2-8 5.6-18.4 2-27.2-7.2-16.8-10.8-34.8-10.8-53.2 0-76 61.6-137.6 137.6-137.6 19.6 0 38.8 4 56.4 12 8.8 4 18.8 3.6 27.2-0.8 8.4-4.8 14.4-13.2 15.6-22.8 1.2-11.2 2-22.8 2-34.8 0-68.8-24.4-133.2-69.2-184.4 14.4-28 22.8-60 22.8-94 0-112.4-91.2-204-203.6-204-16.8 0-30.4 13.6-30.4 30.4s13.6 30.4 30.4 30.4c78.8 0 143.2 64 143.2 143.2 0 78.4-64 142.4-142.4 143.2 1.2-10.8 1.6-21.2 1.6-32 0-8.8-0.4-17.6-1.2-26.8-2-22.8-6.4-45.2-12.8-66.8-4-13.2-16-21.2-29.2-21.2-2.8 0-6 0.4-8.8 1.2-16 4.8-25.2 22-20 38 5.2 17.6 8.8 35.6 10.4 54 0.8 7.2 1.2 14.4 1.2 21.6 0 140.4-114.4 254.8-254.8 254.8-84 0-161.6-41.6-208.8-108.8 37.6-2.4 73.6-14 105.6-34 14.4-8.8 18.8-27.6 10-41.6-9.2-14.4-27.6-18.8-42-10-26.8 16.8-57.6 25.6-89.6 25.6-93.6 0-170-76.4-170-170.4 0-93.6 76.4-170 170-170 16.8 0 30.4-13.6 30.4-30.4s-13.6-30.4-30.4-30.4c-127.2 0-230.8 103.6-230.8 230.8 0 107.2 73.2 197.6 172.4 223.6 52.8 107.2 162.8 176 283.2 176 14.4 0 28.8-0.8 42.8-2.8 50.4 84 140.4 135.2 239.6 135.2zM336.4 404.8c-16.8 0-30.4-13.6-30.4-30.4v-75.6c0-16.8 13.6-30.4 30.4-30.4s30.4 13.6 30.4 30.4v75.6c0 16.8-13.6 30.4-30.4 30.4zM638.4 404.8c-16.8 0-30.4-13.6-30.4-30.4v-75.6c0-16.8 13.6-30.4 30.4-30.4 16.4 0 30 13.6 30 30.4v75.6c0 16.8-13.6 30.4-30 30.4zM722 898.8c-64.8-4.8-123.2-37.2-160.8-89.2 93.2-33.2 166.8-109.6 196-205.2 3.6 0.4 7.2 0.4 11.2 0.4 56 0 106.8-22.4 143.6-59.2 27.6 35.6 43.6 78.4 45.6 124-13.2-2.8-26.8-4.4-40.4-4.4-109.2 0-198 88.8-198 198.4 0 11.6 0.8 23.6 2.8 35.2z" />
<glyph unicode="&#xe911;" glyph-name="rain-light-sun" d="M457.2-2.4c-15.6 0-28.4-12.8-28.4-28.4v-2c0-15.6 12.8-28.4 28.4-28.4s28.4 12.8 28.4 28.4v2c0 15.6-12.8 28.4-28.4 28.4zM315.6 67.6c-15.6 0-28.4-12.4-28.4-28.4v-1.6c0-15.6 12.8-28.4 28.4-28.4s28.4 12.8 28.4 28.4v1.6c0 16-12.8 28.4-28.4 28.4zM598.8 67.6c-15.6 0-28.4-12.4-28.4-28.4v-1.6c0-15.6 12.8-28.4 28.4-28.4s28.4 12.8 28.4 28.4v1.6c0 16-12.8 28.4-28.4 28.4zM457.2 133.2c-15.6 0-28.4-12.8-28.4-28.4v-46c0-15.6 12.8-28.4 28.4-28.4s28.4 12.8 28.4 28.4v46c0 15.6-12.8 28.4-28.4 28.4zM315.6 203.6c-15.6 0-28.4-12.8-28.4-28.4v-46c0-15.6 12.8-28.4 28.4-28.4s28.4 12.8 28.4 28.4v46c0 15.6-12.8 28.4-28.4 28.4zM598.8 203.6c-15.6 0-28.4-12.8-28.4-28.4v-46c0-15.6 12.8-28.4 28.4-28.4s28.4 12.8 28.4 28.4v46c0 15.6-12.8 28.4-28.4 28.4zM457.2 303.2c-15.6 0-28.4-12.4-28.4-28.4v-71.2c0-15.6 12.8-28.4 28.4-28.4s28.4 12.8 28.4 28.4v71.2c0 16-12.8 28.4-28.4 28.4zM697.2 960c15.6 0 28.4-12.8 28.4-28.4v-95.2c29.6-4 57.2-14.4 81.2-29.6l61.2 72.8c10.4 12 28 13.6 40.4 3.6 12-10 13.6-28 3.2-40l-61.2-73.2c19.6-21.2 34.4-46.8 43.6-74.8l93.6 16.4c15.6 2.8 30.4-7.6 32.8-23.2 2.8-15.2-7.6-30-22.8-32.8l-94-16.4c0-2.8 0.4-5.2 0.4-7.6 0-27.2-5.2-53.6-15.2-78l82.4-47.6c13.6-7.6 18.4-25.2 10.4-38.8-5.2-9.2-14.8-14-24.8-14-4.8 0-9.6 1.2-14 3.6l-82.4 47.6c-0.8-0.4-1.2-1.2-1.6-2 32.8-34.4 53.2-80.8 53.2-132.4 0-105.6-85.6-191.2-191.2-191.2-15.6 0-28.4 12.8-28.4 28.4s12.8 28.4 28.4 28.4c74 0 134.4 60.4 134.4 134.4s-59.6 134-133.6 134.4c1.2-10 1.6-19.6 1.6-30 0-8-0.4-16.4-1.2-24.8-1.6-21.6-5.6-42.8-12-62.8-4-12.4-15.2-20-27.2-20-2.8 0-5.6 0.4-8.4 1.2-15.2 4.4-23.6 20.4-18.8 35.6 5.2 16.4 8.4 33.2 10 50.8 0.4 6.4 0.8 13.6 0.8 20 0 132-107.2 239.2-238.8 239.2-78.8 0-151.6-39.2-196-102 35.2-2.4 69.2-13.6 99.2-32 13.2-8.4 17.2-26 9.2-39.2-8.4-13.2-26-17.6-39.2-9.2-25.2 15.6-54.4 24-84 24-88.4 0-160-71.6-160-160 0-88 71.6-159.6 160-159.6 15.6 0 28.4-12.8 28.4-28.4s-12.8-28.4-28.4-28.4c-119.6 0-216.8 97.2-216.8 216.4 0 100.8 68.8 185.6 162 209.6 49.2 101.2 152.4 165.6 265.6 165.6 35.6 0 70-6.4 101.6-18 4.8 6 9.2 12 14.4 17.6l-61.2 73.2c-10 12-8.4 30 3.6 40s30 8.4 40-3.6l61.2-73.2c24.8 15.6 52.4 26 81.6 30v95.2c0 15.6 12.4 28.4 28.4 28.4zM315.6 373.6c-15.6 0-28.4-12.8-28.4-28.4v-71.2c0-15.6 12.8-28.4 28.4-28.4s28.4 12.8 28.4 28.4v71.2c0 15.6-12.8 28.4-28.4 28.4zM598.8 373.6c-15.6 0-28.4-12.8-28.4-28.4v-71.2c0-15.6 12.8-28.4 28.4-28.4s28.4 12.8 28.4 28.4v71.2c0 15.6-12.8 28.4-28.4 28.4zM697.2 781.6c-45.2 0-87.6-20.4-115.6-54.8 60.8-37.2 107.6-96 128.8-166 3.6 0.4 6.8 0.4 10.4 0.4 33.6 0 65.2-8.8 92.8-24 4.8 6 9.2 12.4 13.2 19.2 0 0.4 0 0.4 0.4 0.4 12.8 22.4 19.6 48 19.6 74.8 0 82.4-67.2 150-149.6 150z" />
<glyph unicode="&#xe912;" glyph-name="rain-medium" d="M510.8 128.8c-17.6 0-31.6-15.6-31.6-34.8v-118.8c0-19.2 14-34.8 31.6-34.8s32 15.6 32 34.8v118.8c0 19.2-14.4 34.8-32 34.8zM352.8 214.8c-17.6 0-32-15.6-32-34.8v-118.4c0-19.2 14.4-34.8 32-34.8s31.6 15.6 31.6 34.8v118.4c0 19.2-14 34.8-31.6 34.8zM669.2 214.8c-17.6 0-32-15.6-32-34.8v-118.4c0-19.2 14.4-34.8 32-34.8s31.6 15.6 31.6 34.8v118.4c0 19.2-14 34.8-31.6 34.8zM510.8 386.8c-17.6 0-31.6-15.6-31.6-34.8v-118.4c0-19.6 14-35.2 31.6-35.2s32 15.6 32 35.2v118.4c0 19.2-14.4 34.8-32 34.8zM477.6 960c-126.4 0-241.6-79.2-296.8-203.2-104-29.6-180.8-133.6-180.8-257.2 0-146.4 108.4-265.6 242-265.6 17.6 0 32 15.6 32 34.8s-14.4 34.8-32 34.8c-98.4 0-178.4 88-178.4 196 0 108.4 80 196 178.4 196 33.2 0 66-10 94-29.2 14.8-10 34.4-5.2 43.6 11.2s4.8 38-10 48.4c-33.6 22.4-71.6 36-110.8 38.8 49.6 77.6 130.8 125.2 218.8 125.2 147.2 0 266.8-131.2 266.8-293.2 0-8-0.4-16.4-0.8-24.8-1.6-21.2-5.6-42-11.2-62.4-5.2-18.4 4.4-38 20.8-43.6 3.2-1.2 6.4-1.6 9.6-1.6 13.6 0 26 9.6 30.4 24.4 7.2 25.2 11.6 51.2 13.6 77.2 0.8 10.4 1.2 20.8 1.2 30.8 0 12.4-0.4 24.8-1.6 36.8 82.4-0.8 149.2-74.4 149.2-164.8 0-91.2-67.2-165.2-150-165.2-17.6 0-32-15.6-32-34.8s14.4-34.8 32-34.8c117.6 0 213.6 105.2 213.6 234.8 0 129.2-96 234.4-213.6 234.4-4 0-8 0-12-0.4-41.2 148.8-167.2 257.2-316 257.2zM352.8 473.2c-17.6 0-32-16-32-35.2v-118.4c0-19.2 14.4-34.8 32-34.8s31.6 15.6 31.6 34.8v118.4c0 19.2-14 35.2-31.6 35.2zM669.2 473.2c-17.6 0-32-16-32-35.2v-118.4c0-19.2 14.4-34.8 32-34.8s31.6 15.6 31.6 34.8v118.4c0 19.2-14 35.2-31.6 35.2z" />
<glyph unicode="&#xe913;" glyph-name="rain-medium-moon" d="M487.2 106c-16.4 0-30-13.6-30-30.4v-102.8c0-16.8 13.6-30.4 30-30.4 16.8 0 30.4 13.6 30.4 30.4v102.8c0 16.8-13.6 30.4-30.4 30.4zM336.4 180.8c-16.8 0-30.4-13.6-30.4-30.4v-102.8c0-16.8 13.6-30.4 30.4-30.4s30.4 13.6 30.4 30.4v102.8c0 16.8-13.6 30.4-30.4 30.4zM638.4 180.8c-16.8 0-30.4-13.6-30.4-30.4v-102.8c0-16.8 13.6-30.4 30.4-30.4 16.4 0 30 13.6 30 30.4v102.8c0 16.8-13.6 30.4-30 30.4zM487.2 330c-16.4 0-30-13.6-30-30.4v-102.8c0-16.8 13.6-30.4 30-30.4 16.8 0 30.4 13.6 30.4 30.4v102.8c0 16.8-13.6 30.4-30.4 30.4zM738 960c8.8 0 18-0.4 27.2-1.2 9.6-0.8 18.4-6.4 23.2-14.8 5.2-8 5.6-18.4 2-27.2-7.2-16.8-10.8-34.8-10.8-53.2 0-76 61.6-137.6 137.6-137.6 19.6 0 38.8 4 56.4 12 8.8 4 18.8 3.6 27.2-0.8 8.4-4.8 14.4-13.2 15.6-22.8 1.2-11.2 2-22.8 2-34.8 0-68.8-24.4-133.2-69.2-184.4 14.4-28 22.8-60 22.8-94 0-112.4-91.2-204-203.6-204-16.8 0-30.4 13.6-30.4 30.4s13.6 30.4 30.4 30.4c78.8 0 143.2 64 143.2 143.2 0 78.4-64 142.4-142.4 143.2 1.2-10.8 1.6-21.2 1.6-32 0-8.8-0.4-17.6-1.2-26.8-2-22.8-6.4-45.2-12.8-66.8-4-13.2-16-21.2-29.2-21.2-2.8 0-6 0.4-8.8 1.2-16 4.8-25.2 22-20 38 5.2 17.6 8.8 35.6 10.4 54 0.8 7.2 1.2 14.4 1.2 21.6 0 140.4-114.4 254.8-254.8 254.8-84 0-161.6-41.6-208.8-108.8 37.6-2.4 73.6-14 105.6-34 14.4-8.8 18.8-27.6 10-41.6-9.2-14.4-27.6-18.8-42-10-26.8 16.8-57.6 25.6-89.6 25.6-93.6 0-170-76.4-170-170.4 0-93.6 76.4-170 170-170 16.8 0 30.4-13.6 30.4-30.4s-13.6-30.4-30.4-30.4c-127.2 0-230.8 103.6-230.8 230.8 0 107.2 73.2 197.6 172.4 223.6 52.8 107.2 162.8 176 283.2 176 14.4 0 28.8-0.8 42.8-2.8 50.4 84 140.4 135.2 239.6 135.2zM336.4 404.8c-16.8 0-30.4-13.6-30.4-30.4v-102.8c0-16.8 13.6-30 30.4-30s30.4 13.2 30.4 30v102.8c0 16.8-13.6 30.4-30.4 30.4zM638.4 404.8c-16.8 0-30.4-13.6-30.4-30.4v-102.8c0-16.8 13.6-30 30.4-30 16.4 0 30 13.2 30 30v102.8c0 16.8-13.6 30.4-30 30.4zM722 898.8c-64.8-4.8-123.2-37.2-160.8-89.2 93.2-33.2 166.8-109.6 196-205.2 3.6 0.4 7.2 0.4 11.2 0.4 56 0 106.8-22.4 143.6-59.2 27.6 35.6 43.6 78.4 45.6 124-13.2-2.8-26.8-4.4-40.4-4.4-109.2 0-198 88.8-198 198.4 0 11.6 0.8 23.6 2.8 35.2z" />
<glyph unicode="&#xe914;" glyph-name="rain-medium-sun" d="M457.2 93.2c-15.6 0-28.4-12.8-28.4-28.4v-96.8c0-15.6 12.8-28.4 28.4-28.4s28.4 12.8 28.4 28.4v96.8c0 15.6-12.8 28.4-28.4 28.4zM315.6 163.2c-15.6 0-28.4-12.8-28.4-28.4v-96.4c0-15.6 12.8-28.4 28.4-28.4s28.4 12.8 28.4 28.4v96.4c0 15.6-12.8 28.4-28.4 28.4zM598.8 163.2c-15.6 0-28.4-12.8-28.4-28.4v-96.4c0-15.6 12.8-28.4 28.4-28.4s28.4 12.8 28.4 28.4v96.4c0 15.6-12.8 28.4-28.4 28.4zM457.2 303.2c-15.6 0-28.4-12.4-28.4-28.4v-96.4c0-15.6 12.8-28.4 28.4-28.4s28.4 12.8 28.4 28.4v96.4c0 16-12.8 28.4-28.4 28.4zM697.2 960c15.6 0 28.4-12.8 28.4-28.4v-95.2c29.6-4 57.2-14.4 81.2-29.6l61.2 72.8c10.4 12 28 13.6 40.4 3.6 12-10 13.6-28 3.2-40l-61.2-73.2c19.6-21.2 34.4-46.8 43.6-74.8l93.6 16.4c15.6 2.8 30.4-7.6 32.8-23.2 2.8-15.2-7.6-30-22.8-32.8l-94-16.4c0-2.8 0.4-5.2 0.4-7.6 0-27.2-5.2-53.6-15.2-78l82.4-47.6c13.6-7.6 18.4-25.2 10.4-38.8-5.2-9.2-14.8-14-24.8-14-4.8 0-9.6 1.2-14 3.6l-82.4 47.6c-0.8-0.4-1.2-1.2-1.6-2 32.8-34.4 53.2-80.8 53.2-132.4 0-105.6-85.6-191.2-191.2-191.2-15.6 0-28.4 12.8-28.4 28.4s12.8 28.4 28.4 28.4c74 0 134.4 60.4 134.4 134.4s-59.6 134-133.6 134.4c1.2-10 1.6-19.6 1.6-30 0-8-0.4-16.8-1.2-24.8-1.6-21.6-5.6-42.8-12-62.8-4-12.4-15.2-20-27.2-20-2.8 0-5.6 0.4-8.4 1.2-15.2 4.4-23.6 20.4-18.8 35.6 5.2 16.4 8.4 33.2 10 50.8 0.4 6.4 0.8 13.6 0.8 20 0 132-107.2 239.2-238.8 239.2-78.8 0-151.6-39.2-196-102 35.2-2.4 69.2-13.6 99.2-32 13.2-8.4 17.2-26 9.2-39.2-8.4-13.2-26-17.6-39.2-9.2-25.2 15.6-54.4 24-84 24-88.4 0-160-71.6-160-160 0-88 71.6-159.6 160-159.6 15.6 0 28.4-12.8 28.4-28.4s-12.8-28.4-28.4-28.4c-119.6 0-216.8 97.2-216.8 216.4 0 100.8 68.8 185.6 162 209.6 49.2 101.2 152.4 165.6 265.6 165.6 35.6 0 70-6.4 101.6-18 4.8 6 9.2 12 14.4 17.6l-61.2 73.2c-10 12-8.4 30 3.6 40s30 8.4 40-3.6l61.2-73.2c24.8 15.6 52.4 26 81.6 30v95.2c0 15.6 12.4 28.4 28.4 28.4zM315.6 373.6c-15.6 0-28.4-12.8-28.4-28.4v-96.4c0-16 12.8-28.4 28.4-28.4s28.4 12.4 28.4 28.4v96.4c0 15.6-12.8 28.4-28.4 28.4zM598.8 373.6c-15.6 0-28.4-12.8-28.4-28.4v-96.4c0-16 12.8-28.4 28.4-28.4s28.4 12.4 28.4 28.4v96.4c0 15.6-12.8 28.4-28.4 28.4zM697.2 781.6c-45.2 0-87.6-20.4-115.6-54.8 60.8-37.2 107.6-96 128.8-166 3.6 0.4 6.8 0.4 10.4 0.4 33.6 0 65.2-8.8 92.8-24 4.8 6 9.2 12.4 13.2 19.2 0 0.4 0 0.4 0.4 0.4 12.8 22.4 19.6 48 19.6 74.8 0 82.4-67.2 150-149.6 150z" />
<glyph unicode="&#xe915;" glyph-name="snow-one" d="M352.8 178c-17.6 0-32-15.6-32-34.8v-24l-18.8 12c-15.2 9.6-34.4 3.6-43.2-13.2s-3.2-38 12-47.6l15.6-10-16-9.2c-15.6-8.8-21.6-30-13.6-47.2 6-12 16.8-18.8 28.4-18.8 4.8 0 10 1.6 14.8 4l20.8 12.4v-26.4c0-19.2 14.4-34.8 32-34.8s31.6 15.6 31.6 34.8v24l18.8-12c4.8-3.2 10.4-4.4 15.6-4.4 11.2 0 22 6.4 27.6 17.6 8.8 16.8 3.6 38-11.6 47.6l-16 10 16.4 9.2c15.2 8.8 21.2 30 13.2 47.2-8 16.8-27.2 23.6-42.8 14.8l-21.2-12.4v26.4c0 19.2-14 34.8-31.6 34.8zM669.6 178c-17.6 0-31.6-15.6-31.6-34.8v-24l-18.8 12c-15.2 9.6-34.8 3.6-43.6-13.2-8.4-16.8-3.2-38 12-47.6l16-10-16.4-9.2c-15.6-8.8-21.6-30-13.2-47.2 5.6-12 16.4-18.8 28-18.8 5.2 0 10 1.6 14.8 4l21.2 12.4v-26.4c0-19.2 14-34.8 31.6-34.8s31.6 15.6 31.6 34.8v24l18.8-12c5.2-3.2 10.4-4.4 16-4.4 10.8 0 21.6 6.4 27.6 17.6 8.4 16.8 3.2 38-12 47.6l-16 10 16.4 9.2c15.6 8.8 21.6 30 13.2 47.2-8 16.8-27.2 23.6-42.8 14.8l-21.2-12.4v26.4c0 19.2-14 34.8-31.6 34.8zM510.8 392c-17.6 0-31.6-15.6-31.6-34.8v-23.6l-18.8 11.6c-15.2 9.6-34.8 3.6-43.2-12.8-8.8-16.8-3.6-38.4 11.6-48l16-9.6-16.4-9.6c-15.6-8.8-21.6-30-13.2-46.8 5.6-12 16.8-18.8 28-18.8 5.2 0 10 1.2 14.8 4l21.2 12v-26c0-19.2 14-34.8 31.6-34.8s32 15.6 32 34.8v23.6l18.4-11.6c5.2-3.2 10.4-4.8 16-4.8 10.8 0 21.6 6.4 27.6 17.6 8.8 16.8 3.2 38-12 47.6l-15.6 10 16 9.2c15.6 9.2 21.6 30 13.6 47.2-8.4 17.2-27.6 23.6-43.2 14.8l-20.8-12v26c0 19.2-14.4 34.8-32 34.8zM477.6 960c-126.4 0-241.6-79.2-296.8-203.2-104-29.6-180.8-133.6-180.8-257.2 0-146.4 108.4-265.6 242-265.6 17.6 0 32 15.6 32 34.8s-14.4 34.8-32 34.8c-98.4 0-178.4 88-178.4 196 0 108.4 80 196 178.4 196 33.2 0 66-10 94-29.2 14.8-10 34.4-5.2 43.6 11.2s4.8 38-10 48.4c-33.6 22.4-71.6 36-110.8 38.8 49.6 77.6 130.8 125.2 218.8 125.2 147.2 0 266.8-131.2 266.8-293.2 0-8-0.4-16.4-0.8-24.8-1.6-21.2-5.6-42-11.2-62.4-5.2-18.4 4.4-38 20.8-43.6 3.2-1.2 6.4-1.6 9.6-1.6 13.6 0 26 9.6 30.4 24.4 7.2 25.2 11.6 51.2 13.6 77.2 0.8 10.4 1.2 20.8 1.2 30.8 0 12.4-0.4 24.8-1.6 36.8 82.4-0.8 149.2-74.4 149.2-164.8 0-91.2-67.2-165.2-150-165.2-17.6 0-32-15.6-32-34.8s14.4-34.8 32-34.8c117.6 0 213.6 105.2 213.6 234.8 0 129.2-96 234.4-213.6 234.4-4 0-8 0-12-0.4-41.2 148.8-167.2 257.2-316 257.2z" />
<glyph unicode="&#xe916;" glyph-name="snow-one-moon" d="M340.4 144c-16.4 0-30-12.8-30.4-29.2 0-0.8 0-1.2 0-2l1.2-6.8c1.6-7.6-7.6-12.8-13.6-7.6l-4.4 4.4c-0.8 0.4-1.2 0.8-2 1.2-14.4 7.6-32.4 2.4-40.4-12-8-14-3.6-32 10.4-40.4 0.4-0.4 1.2-0.8 2-1.2 8.4-2.4 8-13.6 0-16h-0.4c-0.8 0-1.2-0.4-2-0.8-14-8-19.2-26-12-40.4 5.6-10.4 16-16.4 27.2-16.4 4.8 0 9.6 1.2 14 3.6l8.8 6.8c6 4.8 14.4-0.4 13.2-8l-2-10c0-0.8 0-1.2 0-2 0.4-16.4 14-29.2 30.4-29.2s29.6 12.8 30.4 29.2c0 0.8-0.4 1.2-0.4 2l-1.2 6.8c-1.2 8 8 12.8 14 7.6l4.4-4.4c0.8-0.4 1.2-0.8 2-1.2 4.4-2.4 9.2-3.2 14-3.2 10.4 0 20.8 5.2 26.4 15.2 8 14 3.2 32-10.4 40.4-0.8 0.8-1.6 0.8-2.4 1.2-8 2.4-8 13.6 0.4 16 0.8 0.4 1.6 0.4 2.4 0.8 14 8 19.2 26 11.6 40.4s-25.2 20.4-40 13.2c-0.4 0-1.2-0.4-1.6-1.2l-7.6-6c-6-4.8-14.8 0.4-13.6 7.6l2 11.6c0 16.4-13.6 30-30.4 30zM638.8 144c-16.4 0-29.6-12.8-30.4-29.2 0-0.8 0-1.2 0.4-2l1.2-6.8c1.2-7.6-8-12.8-14-7.6l-4.4 4.4c-0.8 0.4-1.2 0.8-2 1.2-14.4 7.6-32.4 2.4-40.4-12-8-14-3.6-32 10.4-40.4 0.4-0.4 1.2-0.8 2-1.2h0.4c8-2.4 8-13.6-0.4-16h-0.4c-0.4 0-1.2-0.4-2-0.8-14-8-19.2-26-11.6-40.4 5.2-10.4 16-16.4 26.8-16.4 4.8 0 9.6 1.2 14 3.6l8.8 6.8c6 4.8 14.8-0.4 13.2-8l-1.6-10c-0.4-0.8-0.4-1.2-0.4-2 0.8-16.4 14-29.2 30.4-29.2s29.6 12.8 30.4 29.2c0 0.8 0 1.2-0.4 2l-1.2 6.8c-1.2 8 8 12.8 14 7.6l4.4-4.4c0.8-0.4 1.2-0.8 2-1.2 4.4-2.4 9.2-3.2 14-3.2 10.4 0 20.8 5.2 26.4 15.2 8 14 3.6 32-10.4 40.4-0.4 0.8-1.2 0.8-2 1.2-8.4 2.4-8.4 13.6 0 16h0.4c0.4 0.4 1.2 0.4 2 0.8 14 8 19.2 26 11.6 40.4s-25.2 20.4-40 13.2c-0.4 0-1.2-0.4-1.6-1.2l-7.6-6c-6-4.8-14.4 0.4-13.6 7.6l2 11.6c0 16.4-13.6 30-30.4 30zM487.2 334.4c-16.4 0-29.6-12.8-30-29.2 0-0.8 0-1.2 0-2l1.2-6.8c1.2-7.6-8-12.8-13.6-7.6l-4.8 4.4c-0.4 0.4-1.2 0.8-2 1.2-14.4 7.6-32 2.4-40-11.6-8.4-14.4-3.6-32.4 10-40.8 0.8-0.4 1.6-0.8 2.4-1.2 8-2.4 8-13.6 0-16h-0.4c-0.8 0-1.6-0.4-2.4-0.8-14-8-19.2-26-11.6-40.4 5.6-10.4 16-16.4 26.8-16.4 4.8 0 9.6 1.2 14 3.6l9.2 6.8c6 4.8 14.4-0.4 13.2-8l-2-10c0-0.4 0-1.2 0-2 0.4-16 13.6-29.2 30-29.2s30 13.2 30.4 29.2c0 0.8 0 1.6 0 2l-1.2 6.8c-1.6 8 8 13.2 13.6 7.6l4.8-4c0.4-0.8 1.2-1.2 1.6-1.6 4.4-2.4 9.2-3.2 14-3.2 10.8 0 20.8 5.2 26.4 15.2 8 14 3.6 32-10 40.8-0.8 0.4-1.6 0.8-2.4 0.8-8 2.4-8 14 0 16h0.4c0.8 0.4 1.6 0.4 2 0.8 14 8.4 19.6 26 12 40.4-7.6 14.8-25.6 20.4-40 13.2-0.8 0-1.2-0.4-2-0.8l-7.6-6.4c-5.6-4.8-14.4 0.4-13.2 7.6l1.6 11.6c0 16.8-13.6 30-30.4 30zM738 960c8.8 0 18-0.4 27.2-1.2 9.6-0.8 18.4-6.4 23.2-14.8 5.2-8 5.6-18.4 2-27.2-7.2-16.8-10.8-34.8-10.8-53.2 0-76 61.6-137.6 137.6-137.6 19.6 0 38.8 4 56.4 12 8.8 4 18.8 3.6 27.2-0.8 8.4-4.8 14.4-13.2 15.6-22.8 1.2-11.2 2-22.8 2-34.8 0-68.8-24.4-133.2-69.2-184.4 14.4-28 22.8-60 22.8-94 0-112.4-91.2-204-203.6-204-16.8 0-30.4 13.6-30.4 30.4s13.6 30.4 30.4 30.4c78.8 0 143.2 64 143.2 143.2 0 78.4-64 142.4-142.4 143.2 1.2-10.8 1.6-21.2 1.6-32 0-8.8-0.4-17.6-1.2-26.8-2-22.8-6.4-45.2-12.8-66.8-4-13.2-16-21.2-29.2-21.2-2.8 0-6 0.4-8.8 1.2-16 4.8-25.2 22-20 38 5.2 17.6 8.8 35.6 10.4 54 0.8 7.2 1.2 14.4 1.2 21.6 0 140.4-114.4 254.8-254.8 254.8-84 0-161.6-41.6-208.8-108.8 37.6-2.4 73.6-14 105.6-34 14.4-8.8 18.8-27.6 10-41.6-9.2-14.4-27.6-18.8-42-10-26.8 16.8-57.6 25.6-89.6 25.6-93.6 0-170-76.4-170-170.4 0-93.6 76.4-170 170-170 16.8 0 30.4-13.6 30.4-30.4s-13.6-30.4-30.4-30.4c-127.2 0-230.8 103.6-230.8 230.8 0 107.2 73.2 197.6 172.4 223.6 52.8 107.2 162.8 176 283.2 176 14.4 0 28.8-0.8 42.8-2.8 50.4 84 140.4 135.2 239.6 135.2zM722 898.8c-64.8-4.8-123.2-37.2-160.8-89.2 93.2-33.2 166.8-109.6 196-205.2 3.6 0.4 7.2 0.4 11.2 0.4 56 0 106.8-22.4 143.6-59.2 27.6 35.6 43.6 78.4 45.6 124-13.2-2.8-26.8-4.4-40.4-4.4-109.2 0-198 88.8-198 198.4 0 11.6 0.8 23.6 2.8 35.2z" />
<glyph unicode="&#xe917;" glyph-name="snow-one-sun" d="M315.6 133.2c-15.6 0-28.4-12.8-28.4-28.4v-19.2l-16.8 9.2c-13.6 8-30.8 3.2-38.8-10.4-7.6-13.6-2.8-31.2 10.8-38.8l14-8-14.4-7.6c-14-7.2-19.2-24.4-12-38.4 5.2-9.6 14.8-15.2 25.2-15.2 4.4 0 8.8 0.8 13.2 3.2l18.8 10v-21.6c0-15.6 12.8-28.4 28.4-28.4s28.4 12.8 28.4 28.4v19.6l16.8-9.6c4.4-2.8 9.2-4 14-4 10 0 19.6 5.2 24.8 14.4 8 13.6 3.2 31.2-10.4 38.8l-14.4 8 14.4 7.6c14 7.6 19.6 24.4 12 38.4-7.2 14-24.4 19.6-38.4 12l-18.8-9.6v21.2c0 15.6-12.8 28.4-28.4 28.4zM599.2 133.2c-15.6 0-28.4-12.8-28.4-28.4v-19.2l-16.8 9.2c-13.6 8-30.8 3.2-38.8-10.4-7.6-13.6-2.8-31.2 10.8-38.8l14-8-14.4-7.6c-14-7.2-19.2-24.4-12-38.4 5.2-9.6 15.2-15.2 25.2-15.2 4.4 0 9.2 0.8 13.2 3.2l18.8 10v-21.6c0-15.6 12.8-28.4 28.4-28.4 16 0 28.4 12.8 28.4 28.4v19.6l16.8-9.6c4.4-2.8 9.6-4 14.4-4 9.6 0 19.2 5.2 24.4 14.4 8 13.6 3.2 31.2-10.4 38.8l-14.4 8 14.8 7.6c13.6 7.6 19.2 24.4 12 38.4-7.6 14-24.8 19.6-38.4 12l-19.2-9.6v21.2c0 15.6-12.4 28.4-28.4 28.4zM457.2 307.6c-15.6 0-28.4-12.8-28.4-28.4v-19.2l-16.8 9.6c-13.6 7.6-30.8 2.8-38.8-10.8-7.6-13.6-2.8-30.8 10.8-38.8l14-8-14.4-7.6c-14-7.2-19.2-24.4-12-38.4 5.2-9.6 14.8-15.2 25.2-15.2 4.4 0 8.8 1.2 13.2 3.2l18.8 10v-21.2c0-16 12.8-28.8 28.4-28.8s28.4 12.8 28.4 28.8v19.2l16.8-9.6c4.4-2.8 9.2-4 14-4 10 0 19.6 5.2 24.8 14.4 8 13.6 3.2 31.2-10.4 38.8l-14.4 8.4 14.4 7.2c14 7.6 19.6 24.8 12 38.4-7.2 14-24.4 19.6-38.4 12l-18.8-9.6v21.2c0 15.6-12.8 28.4-28.4 28.4zM697.2 960c15.6 0 28.4-12.8 28.4-28.4v-95.2c29.6-4 57.2-14.4 81.2-29.6l61.2 72.8c10.4 12 28 13.6 40.4 3.6 12-10 13.6-28 3.2-40l-61.2-73.2c19.6-21.2 34.4-46.8 43.6-74.8l93.6 16.4c15.6 2.8 30.4-7.6 32.8-23.2 2.8-15.2-7.6-30-22.8-32.8l-94-16.4c0-2.8 0.4-5.2 0.4-7.6 0-27.2-5.2-53.6-15.2-78l82.4-47.6c13.6-7.6 18.4-25.2 10.4-38.8-5.2-9.2-14.8-14-24.8-14-4.8 0-9.6 1.2-14 3.6l-82.4 47.6c-0.8-0.4-1.2-1.2-1.6-2 32.8-34.4 53.2-80.8 53.2-132.4 0-105.6-85.6-191.2-191.2-191.2-15.6 0-28.4 12.8-28.4 28.4s12.8 28.4 28.4 28.4c74 0 134.4 60.4 134.4 134.4s-59.6 134-133.6 134.4c1.2-10 1.6-19.6 1.6-30 0-8-0.4-16.8-1.2-24.8-1.6-21.6-5.6-42.8-12-62.8-4-12.4-15.2-20-27.2-20-2.8 0-5.6 0.4-8.4 1.2-15.2 4.4-23.6 20.4-18.8 35.6 5.2 16.4 8.4 33.2 10 50.8 0.4 6.4 0.8 13.6 0.8 20 0 132-107.2 239.2-238.8 239.2-78.8 0-151.6-39.2-196-102 35.2-2.4 69.2-13.6 99.2-32 13.2-8.4 17.2-26 9.2-39.2-8.4-13.2-26-17.6-39.2-9.2-25.2 15.6-54.4 24-84 24-88.4 0-160-71.6-160-160 0-88 71.6-159.6 160-159.6 15.6 0 28.4-12.8 28.4-28.4s-12.8-28.4-28.4-28.4c-119.6 0-216.8 97.2-216.8 216.4 0 100.8 68.8 185.6 162 209.6 49.2 101.2 152.4 165.6 265.6 165.6 35.6 0 70-6.4 101.6-18 4.8 6 9.2 12 14.4 17.6l-61.2 73.2c-10 12-8.4 30 3.6 40s30 8.4 40-3.6l61.2-73.2c24.8 15.6 52.4 26 81.6 30v95.2c0 15.6 12.4 28.4 28.4 28.4zM697.2 781.6c-45.2 0-87.6-20.4-115.6-54.8 60.8-37.2 107.6-96 128.8-166 3.6 0.4 6.8 0.4 10.4 0.4 33.6 0 65.2-8.8 92.8-24 4.8 6 9.2 12.4 13.2 19.2 0 0.4 0 0.4 0.4 0.4 12.8 22.4 19.6 48 19.6 74.8 0 82.4-67.2 150-149.6 150z" />
<glyph unicode="&#xe918;" glyph-name="snow-two" horiz-adv-x="1126" d="M562.4 185.6c-19.2 0-34.8-16.4-34.8-36v-24.4l-20.4 12c-16.8 10-38.4 4-48-13.6-9.6-17.2-3.6-39.2 13.2-48.8l17.2-10.4-17.6-9.6c-17.2-9.2-23.6-30.8-14.8-48.4 6.4-12.4 18.4-19.6 31.2-19.6 5.2 0 10.8 1.6 16 4.4l23.2 12.4v-26.8c0-20 15.6-36 34.8-36 19.6 0 35.2 16 35.2 36v24.4l20.4-12.4c5.6-3.2 11.6-4.8 17.6-4.8 12 0 23.6 6.8 30.4 18.4 9.2 17.2 3.6 39.2-13.2 49.2l-17.6 10 18 9.6c17.2 9.2 23.6 31.2 14.8 48.8-9.2 17.6-30.4 24.4-47.2 15.2l-23.2-12.8v27.2c0 19.6-15.6 36-35.2 36zM705.2 446.8c-19.2 0-34.8-16.4-34.8-36v-24.4l-20.8 12c-16.8 9.6-38 4-47.6-13.6-9.6-17.2-3.6-39.2 12.8-48.8l17.6-10.4-17.6-9.6c-17.2-9.2-24-30.8-14.8-48.8 6-12 18.4-19.2 30.8-19.2 5.6 0 11.2 1.6 16.4 4.4l23.2 12.4v-27.2c0-19.6 15.6-36 34.8-36s34.8 16.4 34.8 36v24.4l20.8-12c5.6-3.2 11.2-4.8 17.2-4.8 12 0 24 6.8 30.4 18.4 9.6 17.2 3.6 39.2-12.8 48.8l-17.6 10.4 17.6 9.6c17.2 9.2 24 31.2 14.8 48.8-8.8 17.6-30 24.4-47.2 15.2l-23.2-12.8v27.2c0 19.6-15.6 36-34.8 36zM525.2 960c-138.8 0-265.6-81.6-326.4-209.2-114.4-30.8-198.8-138.4-198.8-265.6 0-151.2 119.6-274 266.4-274 19.2 0 34.8 16 34.8 36s-15.6 36-34.8 36c-108.4 0-196.4 90.8-196.4 202 0 111.6 88 202.4 196.4 202.4 36.4 0 72-10.4 103.2-30.4 16.4-10.4 38-5.2 48 11.6 10.4 17.2 5.2 39.2-11.2 49.6-36.8 23.6-78.4 37.2-121.6 40.4 54.4 80 143.6 129.2 240.4 129.2 162 0 293.6-135.6 293.6-302.4 0-8.4-0.4-17.2-0.8-25.6-2-22-6-43.6-12.4-64.4-5.6-18.8 4.8-39.2 23.2-45.2 3.2-0.8 6.8-1.6 10.4-1.6 14.8 0 28.8 10 33.2 25.6 8 25.6 12.8 52.4 15.2 79.2 0.8 10.8 1.2 21.6 1.2 32 0 12.8-0.4 25.2-1.6 37.6 90.4-0.4 164-76.4 164-170s-74-170-165.2-170c-19.2 0-34.8-16-34.8-36s15.6-36 34.8-36c129.6 0 235.2 108.4 235.2 242s-105.6 242-235.2 242c-4.4 0-8.8 0-13.2-0.4-45.2 153.2-184 265.2-347.6 265.2zM388 525.2c-19.2 0-35.2-16.4-35.2-36v-24.4l-20.4 12c-16.8 10-38 4-47.6-13.6-9.6-17.2-4-39.2 12.8-48.8l17.6-10.4-18-9.6c-16.8-9.2-23.6-30.8-14.4-48.4 6-12.4 18.4-19.6 30.8-19.6 5.6 0 11.2 1.6 16.4 4.4l22.8 12.4v-26.8c0-20 16-36 35.2-36s34.8 16 34.8 36v24.4l20.8-12.4c5.2-3.2 11.2-4.8 17.2-4.8 12 0 24 6.8 30.4 18.4 9.6 17.2 3.6 39.2-13.2 49.2l-17.2 10 17.6 9.6c17.2 9.2 24 31.2 14.8 48.8-8.8 17.6-30 24.4-47.2 15.2l-23.2-12.8v27.2c0 19.6-15.6 36-34.8 36z" />
<glyph unicode="&#xe919;" glyph-name="snow-two-moon" horiz-adv-x="1138" d="M542.222 154.222c-18.667 0-33.778-13.778-33.778-31.111v-20.889l-20 10.222c-16 8.444-36.445 3.556-45.778-11.555-9.333-14.667-3.556-33.778 12.444-42.222l16.889-8.889-17.333-8.444c-16.445-8-22.667-26.667-14.222-41.778 6.222-10.667 17.778-16.889 30.222-16.889 4.889 0 10.222 1.333 15.556 3.556l22.222 10.667v-23.111c0-17.333 15.111-31.111 33.778-31.111s33.333 13.778 33.333 31.111v20.889l20-10.222c5.333-2.667 11.111-4 16.889-4 11.556 0 23.111 5.333 28.889 15.556 9.333 14.667 4 33.778-12.444 42.222l-16.445 8.889 16.889 8.444c16.444 8 22.667 26.667 14.222 42.222-8.444 15.111-28.889 20.889-45.333 12.889l-22.667-10.667v23.111c0 17.333-14.667 31.111-33.333 31.111zM679.556 380.444c-18.667 0-33.778-14.222-33.778-31.556v-20.889l-20 10.667c-16 8.444-36.444 3.111-45.778-12-9.333-14.667-3.556-33.778 12.444-42.222l16.889-8.889-16.889-8.444c-16.889-8-23.111-26.667-14.222-41.778 5.778-10.667 17.333-16.889 29.778-16.889 5.333 0 10.667 1.333 15.556 3.556l22.222 10.667v-23.111c0-17.333 15.111-31.111 33.778-31.111s33.778 13.778 33.778 31.111v21.333l19.556-10.667c5.333-2.667 11.111-4 16.889-4 11.555 0 23.111 5.333 29.333 15.556 9.333 15.111 3.556 33.778-12.444 42.667l-16.889 8.889 16.889 8c16.444 8 23.111 27.111 14.222 42.222-8.444 15.111-28.889 20.889-45.333 12.889l-22.222-10.667v23.111c0 17.333-15.111 31.556-33.778 31.556zM820 960c9.778 0 20-0.444 30.222-1.333 10.667-0.889 20.445-6.667 25.778-15.111 5.778-8.444 6.222-18.667 2.222-28-8-17.333-12-35.556-12-54.667 0-77.778 68.445-141.333 152.889-141.333 21.778 0 43.111 4.444 62.667 12.444 9.778 4.444 20.889 4 30.222-0.889s16-13.778 17.333-23.556c1.333-11.111 2.222-23.111 2.222-35.556 0-70.667-27.111-136.889-76.889-189.333 16-28.889 25.333-61.778 25.333-96.889 0-115.111-101.333-209.333-226.222-209.333-18.667 0-33.778 14.222-33.778 31.111 0 17.333 15.111 31.111 33.778 31.111 87.556 0 159.111 66.222 159.111 147.111s-71.111 146.667-158.222 147.111c1.333-10.667 1.778-21.333 1.778-32.444 0-9.333-0.444-18.222-1.333-27.556-2.222-23.556-7.111-46.667-14.222-68.889-4.445-13.333-17.778-21.778-32.444-21.778-3.111 0-6.667 0.444-9.778 1.333-17.778 5.333-28 22.667-22.222 39.111 5.778 17.778 9.778 36.444 11.555 55.556 0.889 7.111 1.333 14.667 1.333 22.222 0 144-127.111 261.333-283.111 261.333-93.333 0-179.556-42.667-232-111.555 41.778-2.667 81.778-14.667 117.333-34.667 16-9.333 20.889-28.444 11.111-43.111-10.222-14.667-30.667-19.111-46.667-10.222-29.778 17.333-64 26.222-99.556 26.222-104 0-188.889-78.222-188.889-174.667s84.889-175.111 188.889-175.111c18.667 0 33.778-13.778 33.778-31.111 0-16.889-15.111-31.111-33.778-31.111-141.333 0-256.444 106.667-256.444 237.333 0 109.778 81.333 202.667 191.556 229.333 58.667 110.222 180.889 180.889 314.667 180.889 16 0 32-0.889 47.556-2.667 56 85.778 156 138.667 266.222 138.667zM373.778 448c-18.667 0-33.778-13.778-33.778-31.111v-20.889l-19.556 10.222c-16.444 8.444-36.889 3.556-46.222-11.555-8.889-15.111-3.556-33.778 12.444-42.667l16.889-8.444-16.889-8.444c-16.444-8-23.111-26.667-14.222-42.222 5.778-10.667 17.778-16.444 29.778-16.444 5.333 0 10.667 0.889 15.556 3.556l22.222 10.667v-23.111c0-17.333 15.111-31.111 33.778-31.111s33.778 13.778 33.778 31.111v20.889l20-10.222c4.889-3.111 10.667-4.444 16.445-4.444 11.555 0 23.111 5.778 29.333 16 9.333 14.667 3.556 33.778-12.444 42.222l-16.889 8.889 16.889 8.444c16.889 8 23.111 26.667 14.222 41.778-8.444 15.556-28.889 21.333-45.333 13.333l-22.222-10.667v23.111c0 17.333-15.111 31.111-33.778 31.111zM802.222 897.333c-72-4.889-136.889-38.667-178.667-92 103.556-34.222 185.333-112.444 217.778-210.222 4 0 8 0 12.444 0 62.222 0 118.667-23.111 159.556-60.889 30.667 36.445 48.444 80.445 50.667 127.556-14.667-3.111-29.778-4.444-44.889-4.444-121.333 0-220 91.111-220 203.555 0 12 0.889 24.444 3.111 36.445z" />
<glyph unicode="&#xe91a;" glyph-name="snow-two-sun" horiz-adv-x="1138" d="M508.444 138.222c-17.333 0-31.556-13.333-31.556-29.333v-19.556l-18.667 9.778c-15.111 8-34.222 3.111-43.111-11.111-8.444-13.778-3.111-31.556 12-39.556l15.556-8.444-16-7.556c-15.556-7.556-21.333-25.333-13.333-39.556 5.778-9.778 16.889-15.556 28-15.556 4.889 0 10.222 0.889 14.667 3.111l20.889 10.222v-21.778c0-16 14.222-29.333 31.556-29.333 17.778 0 31.556 13.333 31.556 29.333v20l18.667-9.778c5.333-2.667 10.667-4 16-4 10.667 0 21.333 5.333 27.111 14.667 8.889 13.778 3.556 32-11.555 40l-16 8 16.444 8c15.111 7.111 21.333 24.889 13.333 39.111-8.444 14.222-27.556 20-42.667 12.444l-21.333-10.222v21.778c0 16-13.778 29.333-31.556 29.333zM637.778 349.778c-17.778 0-32-12.889-32-29.333v-19.556l-18.222 9.778c-15.555 8-34.667 3.111-43.111-11.111-8.889-13.778-3.556-31.555 11.556-39.556l15.556-8.444-16-7.556c-15.111-7.556-21.333-25.333-13.333-39.556 5.778-9.778 16.889-15.556 28-15.556 4.889 0 10.222 0.889 14.667 3.111l20.889 10.222v-21.778c0-16 14.222-28.889 32-28.889 17.333 0 31.555 12.889 31.555 28.889v20l18.667-9.778c4.889-2.667 10.222-4 15.556-4 10.667 0 21.333 5.333 27.555 14.667 8.444 13.778 3.111 32-12 40l-15.555 8 16 8c15.556 7.556 21.333 24.889 13.333 39.111s-27.111 20-42.667 12.444l-20.889-10.222v21.778c0 16.445-14.222 29.333-31.555 29.333zM774.667 960c17.333 0 31.556-12.889 31.556-29.333v-97.333c32.889-4.445 63.555-15.111 90.222-30.667l68 75.111c11.556 12 31.111 13.778 44.889 3.556 13.333-10.667 15.111-28.889 3.556-41.333l-68-74.667c21.778-22.222 38.222-48 48.444-76.889l104 16.889c17.333 2.667 33.778-8 36.445-23.556 3.111-16-8.444-31.111-25.333-33.778l-104.444-16.889c0-2.667 0.444-5.333 0.444-8 0-27.555-5.778-54.667-16.889-79.555l91.555-48.889c15.111-8 20.444-25.778 11.556-40-5.778-9.333-16.445-14.667-27.556-14.667-5.333 0-10.667 1.333-15.556 4l-91.555 48.889c-0.889-0.444-1.333-1.333-1.778-1.778 36.444-35.556 59.111-83.111 59.111-136 0-108-95.111-196-212.445-196-17.333 0-31.555 12.889-31.555 28.889 0 16.444 14.222 29.333 31.555 29.333 82.222 0 149.333 61.778 149.333 137.778 0 75.555-66.222 137.333-148.444 137.778 1.333-10.222 1.778-20.444 1.778-30.667 0-8.444-0.444-17.333-1.333-25.778-1.778-21.778-6.222-43.556-13.333-64.445-4.445-12.444-16.889-20.444-30.222-20.444-3.111 0-6.222 0.444-9.333 1.333-16.889 4.889-26.222 21.333-20.889 36.445 5.778 16.889 9.333 34.222 11.111 52 0.444 7.111 0.889 14.222 0.889 20.889 0 135.111-119.111 244.889-265.333 244.889-87.556 0-168.444-40-217.778-104.444 39.111-2.667 76.889-13.778 110.222-32.889 14.667-8.444 19.111-26.222 10.222-40-9.333-13.778-28.889-17.778-43.555-9.333-28 16-60.444 24.444-93.333 24.444-98.222 0-177.778-73.333-177.778-164 0-90.222 79.555-163.556 177.778-163.556 17.333 0 31.555-12.889 31.555-29.333 0-16-14.222-28.889-31.555-28.889-132.889 0-240.889 99.556-240.889 221.778 0 103.111 76.444 190.222 180 215.111 54.667 103.556 169.333 169.778 295.111 169.778 39.556 0 77.778-6.667 112.889-18.667 5.333 6.222 10.222 12.444 16 18.222l-68 74.667c-11.111 12.445-9.333 30.667 4 41.333 13.333 10.222 33.333 8.444 44.444-3.556l68-75.111c27.555 16 58.222 26.222 90.667 30.667v97.333c0 16.444 13.778 29.333 31.556 29.333zM350.667 413.333c-17.333 0-31.555-13.333-31.555-29.333v-19.556l-18.667 9.778c-15.111 8-34.222 3.111-43.111-11.111-8.444-13.778-3.111-31.556 12-39.556l15.555-8.444-16-7.556c-15.556-7.556-21.333-25.333-13.333-39.556 5.778-9.778 16.444-15.556 28-15.556 4.889 0 9.778 0.889 14.667 3.111l20.889 10.222v-21.778c0-16 14.222-28.889 31.555-28.889s31.556 12.889 31.556 28.889v20l18.667-9.778c4.889-2.667 10.222-4 15.555-4 11.111 0 21.778 5.333 27.556 14.667 8.889 13.778 3.556 32-11.556 40l-16 8 16 8c15.556 7.111 21.778 24.889 13.333 39.111-8 14.222-27.111 20-42.667 12.445l-20.889-10.222v21.778c0 16-14.222 29.333-31.556 29.333zM774.667 776.889c-50.222 0-96.889-20.889-128.444-56 67.556-38.222 119.556-98.667 143.111-170.222 4 0.444 7.556 0.444 11.555 0.444 37.333 0 72.444-8.889 103.111-24.444 5.333 6.222 10.222 12.444 14.667 19.556 0 0 0 0.445 0.444 0.445 14.222 23.111 21.778 49.333 21.778 76.444 0 84.889-74.667 153.778-166.222 153.778z" />
<glyph unicode="&#xe91b;" glyph-name="sun" d="M512.8 135.2c-15.6 0-28.4-12.4-28.4-28.4v-139.6c0-15.6 12.8-28.4 28.4-28.4s28.4 12.8 28.4 28.4v139.6c0 16-12.8 28.4-28.4 28.4zM290 225.6c-11.2 11.2-29.2 11.2-40 0l-98.8-98.4c-11.2-11.2-11.2-29.2 0-40.4 5.6-5.6 12.8-8.4 20-8.4s14.8 2.8 20.4 8.4l98.4 98.8c11.2 10.8 11.2 28.8 0 40zM774.4 229.2c-10.8 10.8-28.8 10.8-40 0-11.2-11.2-11.2-29.2 0-40.4l98.4-98.8c5.6-5.6 12.8-8 20.4-8 7.2 0 14.4 2.4 20 8 11.2 11.2 11.2 29.2 0 40.4l-98.8 98.8zM510.4 716.8c147.6 0 267.2-120 267.2-267.2 0-147.6-119.6-267.2-267.2-267.2-147.2 0-267.2 119.6-267.2 267.2 0 147.2 120 267.2 267.2 267.2zM510.4 659.6c-116 0-210-94-210-210s94-210.4 210-210.4c116 0 210.4 94.4 210.4 210.4s-94.4 210-210.4 210zM28.4 475.6c-15.6 0-28.4-12.8-28.4-28.4s12.8-28.4 28.4-28.4h139.6c15.6 0 28.4 12.8 28.4 28.4s-12.8 28.4-28.4 28.4zM824.8 480.4v-57.2h196.4v57.2zM188 808.8c-11.2 11.2-29.2 11.2-40 0-11.2-11.2-11.2-29.2 0-40.4l98.4-98.4c5.6-5.6 12.8-8.4 20.4-8.4 7.2 0 14.4 2.8 20 8.4 11.2 11.2 11.2 29.2 0 40l-98.8 98.8zM870 812c-11.2 11.2-29.2 11.2-40.4 0l-98.8-98.4c-10.8-11.2-10.8-29.2 0-40.4 5.6-5.6 13.2-8.4 20.4-8.4s14.4 2.8 20 8.4l98.8 98.8c10.8 11.2 10.8 29.2 0 40zM508 960c-15.6 0-28.4-12.8-28.4-28.4v-139.6c0-15.6 12.8-28.4 28.4-28.4 16 0 28.8 12.8 28.8 28.4v139.6c0 15.6-12.8 28.4-28.8 28.4z" />
<glyph unicode="&#xe91c;" glyph-name="thunder" d="M448.4 492.4h186.4c10.8 0 21.2-6.4 26.8-16.4 6-10.4 6.4-23.2 1.6-34l-39.6-87.2 64 5.2c12.4 0.8 24-6 30-18s5.2-26.8-2.4-37.6l-237.6-350.8c-6-9.2-15.6-14-25.2-14-4 0-8.4 0.8-12.4 2.8-13.2 6-21.2 21.2-19.2 37.2l27.6 208.4-95.2-2.4c-10.8 0-20.8 5.6-26.8 15.6s-7.2 22.8-2.8 33.6l95.6 236.8c5.2 12.8 16.4 20.8 29.2 20.8zM468.8 422.8l-66.8-166 82.4 2c0 0 0.4 0 0.8 0 8.8 0 17.6-4.4 23.6-11.6 6.4-8 9.2-18 7.6-28.4l-14.8-113.2 121.2 178.8-50-4c-11.6-0.8-22.4 4.8-28.8 15.6-6.4 10.4-7.2 23.6-2 34.8l41.6 91.6zM477.6 960c-126.4 0-241.6-79.2-296.8-203.2-104-29.6-180.8-133.6-180.8-257.2 0-146.4 108.4-265.6 242-265.6 17.6 0 32 15.6 32 34.8s-14.4 34.8-32 34.8c-98.4 0-178.4 88-178.4 196 0 108.4 80 196 178.4 196 33.2 0 66-10 94-29.2 14.8-10 34.4-5.2 43.6 11.2s4.8 38-10 48.4c-33.6 22.4-71.6 36-110.8 38.8 49.6 77.6 130.8 125.2 218.8 125.2 147.2 0 266.8-131.2 266.8-293.2 0-8-0.4-16.4-0.8-24.8-1.6-21.2-5.6-42-11.2-62.4-5.2-18.4 4.4-38 20.8-43.6 3.2-1.2 6.4-1.6 9.6-1.6 13.6 0 26 9.6 30.4 24.4 7.2 25.2 11.6 51.2 13.6 77.2 0.8 10.4 1.2 20.8 1.2 30.8 0 12.4-0.4 24.8-1.6 36.8 82.4-0.8 149.2-74.4 149.2-164.8 0-91.2-67.2-165.2-150-165.2-17.6 0-32-15.6-32-34.8s14.4-34.8 32-34.8c117.6 0 213.6 105.2 213.6 234.8 0 129.2-96 234.4-213.6 234.4-4 0-8 0-12-0.4-41.2 148.8-167.2 257.2-316 257.2z" />
<glyph unicode="&#xe91d;" glyph-name="thunder-moon" d="M427.6 421.6h178c10.4 0 20-5.2 25.6-14.4 5.6-8.8 6-20 1.6-29.2l-38-76 61.2 4.8c11.6 0.8 22.8-5.2 28.8-15.6 5.6-10.4 4.8-23.2-2.4-32.8l-226.8-304.4c-5.6-8-14.8-12.4-24-12.4-4 0-8 0.8-11.6 2.4-12.8 5.2-20.4 18.4-18.4 32.4l26 181.2-90.4-2c-10.4-0.4-20.4 4.8-26 13.2-5.6 8.8-6.8 19.6-2.4 29.2l91.2 205.6c4.8 11.2 15.6 18 27.6 18zM447.2 361.2l-63.6-144 78.4 1.6c0.4 0 0.4 0 0.8 0 8.4 0 16.8-3.6 22.4-10 6-6.8 8.8-15.6 7.6-24.4l-14.4-98.4 115.6 155.2-47.6-3.6c-10.8-0.8-21.2 4.4-27.6 13.2-6 9.2-6.8 20.8-2 30.8l39.6 79.6zM738 960c8.8 0 18-0.4 27.2-1.2 9.6-0.8 18.4-6.4 23.2-14.8 5.2-8 5.6-18.4 2-27.2-7.2-16.8-10.8-34.8-10.8-53.2 0-76 61.6-137.6 137.6-137.6 19.6 0 38.8 4 56.4 12 8.8 4 18.8 3.6 27.2-0.8 8.4-4.8 14.4-13.2 15.6-22.8 1.2-11.2 2-22.8 2-34.8 0-68.8-24.4-133.2-69.2-184.4 14.4-28 22.8-60 22.8-94 0-112.4-91.2-204-203.6-204-16.8 0-30.4 13.6-30.4 30.4s13.6 30.4 30.4 30.4c78.8 0 143.2 64 143.2 143.2 0 78.4-64 142.4-142.4 143.2 1.2-10.8 1.6-21.2 1.6-32 0-8.8-0.4-17.6-1.2-26.8-2-22.8-6.4-45.2-12.8-66.8-4-13.2-16-21.2-29.2-21.2-2.8 0-6 0.4-8.8 1.2-16 4.8-25.2 22-20 38 5.2 17.6 8.8 35.6 10.4 54 0.8 7.2 1.2 14.4 1.2 21.6 0 140.4-114.4 254.8-254.8 254.8-84 0-161.6-41.6-208.8-108.8 37.6-2.4 73.6-14 105.6-34 14.4-8.8 18.8-27.6 10-41.6-9.2-14.4-27.6-18.8-42-10-26.8 16.8-57.6 25.6-89.6 25.6-93.6 0-170-76.4-170-170.4 0-93.6 76.4-170 170-170 16.8 0 30.4-13.6 30.4-30.4s-13.6-30.4-30.4-30.4c-127.2 0-230.8 103.6-230.8 230.8 0 107.2 73.2 197.6 172.4 223.6 52.8 107.2 162.8 176 283.2 176 14.4 0 28.8-0.8 42.8-2.8 50.4 84 140.4 135.2 239.6 135.2zM722 898.8c-64.8-4.8-123.2-37.2-160.8-89.2 93.2-33.2 166.8-109.6 196-205.2 3.6 0.4 7.2 0.4 11.2 0.4 56 0 106.8-22.4 143.6-59.2 27.6 35.6 43.6 78.4 45.6 124-13.2-2.8-26.8-4.4-40.4-4.4-109.2 0-198 88.8-198 198.4 0 11.6 0.8 23.6 2.8 35.2z" />
<glyph unicode="&#xe91e;" glyph-name="thunder-sun" d="M401.2 389.6l166.8-0.4c10 0 19.2-4.8 24.4-13.2s5.6-18.8 1.2-27.6l-35.2-71.2 56.8 4.4c11.2 0.8 22-5.2 27.2-14.8s4.4-21.6-2-30.8l-212.8-285.6c-5.6-7.2-14-11.6-22.8-11.6-3.6 0-7.2 0.8-10.8 2.4-12 4.8-19.2 17.2-17.2 30.4l24.4 170-84.8-2c-10 0-18.8 4.4-24.4 12.4-5.2 8.4-6.4 18.4-2.4 27.6l85.6 192.8c4.4 10.4 14.8 17.2 26 17.2zM419.6 332.4l-59.6-134.8 73.6 1.6c0 0 0.4 0 0.4 0 8.4 0 16-3.6 21.6-9.6 5.2-6.4 8-14.8 6.8-23.2l-13.6-92 108.8 145.6-44.8-3.2c-10.4-0.8-20 4-26 12.4-5.6 8.4-6.4 19.6-1.6 28.4l37.2 74.8zM697.2 960c15.6 0 28.4-12.8 28.4-28.4v-95.2c29.6-4 57.2-14.4 81.2-29.6l61.2 72.8c10.4 12 28 13.6 40.4 3.6 12-10 13.6-28 3.2-40l-61.2-73.2c19.6-21.2 34.4-46.8 43.6-74.8l93.6 16.4c15.6 2.8 30.4-7.6 32.8-23.2 2.8-15.2-7.6-30-22.8-32.8l-94-16.4c0-2.8 0.4-5.2 0.4-7.6 0-27.2-5.2-53.6-15.2-78l82.4-47.6c13.6-7.6 18.4-25.2 10.4-38.8-5.2-9.2-14.8-14-24.8-14-4.8 0-9.6 1.2-14 3.6l-82.4 47.6c-0.8-0.4-1.2-1.2-1.6-2 32.8-34.4 53.2-80.8 53.2-132.4 0-105.6-85.6-191.2-191.2-191.2-15.6 0-28.4 12.8-28.4 28.4s12.8 28.4 28.4 28.4c74 0 134.4 60.4 134.4 134.4s-59.6 134-133.6 134.4c1.2-10 1.6-19.6 1.6-30 0-8-0.4-16.4-1.2-24.8-1.6-21.6-5.6-42.8-12-62.8-4-12.4-15.2-20-27.2-20-2.8 0-5.6 0.4-8.4 1.2-15.2 4.4-23.6 20.4-18.8 35.6 5.2 16.4 8.4 33.2 10 50.8 0.4 6.4 0.8 13.6 0.8 20 0 132-107.2 239.2-238.8 239.2-78.8 0-151.6-39.2-196-102 35.2-2.4 69.2-13.6 99.2-32 13.2-8.4 17.2-26 9.2-39.2-8.4-13.2-26-17.6-39.2-9.2-25.2 15.6-54.4 24-84 24-88.4 0-160-71.6-160-160 0-88 71.6-159.6 160-159.6 15.6 0 28.4-12.8 28.4-28.4s-12.8-28.4-28.4-28.4c-119.6 0-216.8 97.2-216.8 216.4 0 100.8 68.8 185.6 162 209.6 49.2 101.2 152.4 165.6 265.6 165.6 35.6 0 70-6.4 101.6-18 4.8 6 9.2 12 14.4 17.6l-61.2 73.2c-10 12-8.4 30 3.6 40s30 8.4 40-3.6l61.2-73.2c24.8 15.6 52.4 26 81.6 30v95.2c0 15.6 12.4 28.4 28.4 28.4zM697.2 781.6c-45.2 0-87.6-20.4-115.6-54.8 60.8-37.2 107.6-96 128.8-166 3.6 0.4 6.8 0.4 10.4 0.4 33.6 0 65.2-8.8 92.8-24 4.8 6 9.2 12.4 13.2 19.2 0 0.4 0 0.4 0.4 0.4 12.8 22.4 19.6 48 19.6 74.8 0 82.4-67.2 150-149.6 150z" />
<glyph unicode="&#xe91f;" glyph-name="Wind" d="M351.2 139.2c-50.4 0-91.2-45.2-91.2-100.4s40.8-100.4 91.2-100.4c14 0 27.2 3.6 39.6 10 16 8.4 22.4 29.2 14.8 46.8-7.6 17.2-26.4 24.4-42.4 16-3.6-2-7.6-2.8-12-2.8-15.2 0-27.6 13.6-27.6 30.4s12.4 30.4 27.6 30.4l320-1.2c17.6 0 31.6 15.2 32 34.4 0 19.6-14.4 35.2-32 35.2l-320 1.6zM167.6 216c-50.4 0-91.2-45.2-91.2-100.4s40.8-100.4 91.2-100.4c17.6 0 32 15.6 32 34.8 0 19.6-14.4 35.2-32 35.2-15.2 0-27.6 13.6-27.6 30.4s12.4 30.4 27.6 30.4c4.4 0 8.4-0.8 12-2.8 16-8.4 34.8-1.2 42.4 16 7.6 17.6 1.2 38.4-14.8 46.8-12.4 6.4-25.6 10-39.6 10zM477.6 960c-126.4 0-241.6-79.2-296.8-203.2-104-29.6-180.8-133.6-180.8-257.2 0-146.4 108.4-265.6 242-265.6 17.6 0 32 15.6 32 34.8s-14.4 34.8-32 34.8c-98.4 0-178.4 88-178.4 196 0 108.4 80 196 178.4 196 33.2 0 66-10 94-29.2 14.8-10 34.4-5.2 43.6 11.2s4.8 38-10 48.4c-33.6 22.4-71.6 36-110.8 38.8 49.6 77.6 130.8 125.2 218.8 125.2 147.2 0 266.8-131.2 266.8-293.2 0-8-0.4-16.4-0.8-24.8-1.6-21.2-5.2-42-11.2-62.4-5.2-18.4 4.4-38 20.8-43.6 3.2-1.2 6.4-1.6 9.6-1.6 13.6 0 26 9.6 30.4 24.4 7.2 25.2 11.6 51.2 13.6 77.2 0.8 10.4 1.2 20.8 1.2 30.8 0 12.4-0.4 24.8-1.6 36.8 82.4-0.8 149.2-74.4 149.2-164.8 0-91.2-67.2-165.2-150-165.2l-320-1.2c-15.6 0-28 13.6-28 30.4s12.4 30.4 28 30.4c4 0 8-0.8 12-2.8 15.6-8.4 34.8-1.2 42.4 16 7.6 17.6 0.8 38.4-14.8 46.8-12.4 6.4-26 10-39.6 10-50.4 0-91.6-45.2-91.6-100.4s41.2-100.4 91.6-100.4l320 1.6c117.6 0 213.6 105.2 213.6 234.8 0 129.2-96 234.4-213.6 234.4-4 0-8 0-12-0.4-41.2 148.8-167.2 257.2-316 257.2z" />
<glyph unicode="&#xe920;" glyph-name="wind-moon" d="M335.2 115.6c-48 0-87.2-39.2-87.2-87.2s39.2-87.2 87.2-87.2c13.2 0 26 2.8 37.6 8.8 15.2 7.2 21.6 25.2 14.4 40.4-7.6 15.2-25.6 21.2-40.8 14-3.6-1.6-7.2-2.4-11.2-2.4-14.8 0-26.4 11.6-26.4 26.4 0 14.4 11.6 26.4 26 26.4l305.6-1.2c16.8 0 30 13.6 30.4 30 0 16.8-13.6 30.4-30.4 30.8l-305.2 1.2zM738 960c8.8 0 18-0.4 27.2-1.2 9.6-0.8 18.4-6.4 23.2-14.8 5.2-8 5.6-18.4 2-27.2-7.2-16.8-10.8-34.8-10.8-53.6 0-75.6 61.6-137.2 137.6-137.2 19.6 0 38.8 4 56.4 12 8.8 4 18.8 3.6 27.2-0.8 8.4-4.8 14.4-13.2 15.6-22.8 1.2-11.2 2-22.8 2-34.8 0-68.4-24.4-133.2-69.2-184 14.8-28.4 22.8-60 22.8-94 0-112.4-91.2-203.6-203.6-203.6 0 0 0-0.4 0-0.4l-305.2-1.2c-48 0-87.2 39.2-87.2 87.2s39.2 87.2 87.2 87.2c13.2 0 26-2.8 37.6-8.8 15.2-7.2 21.6-25.2 14.4-40.4-7.6-15.2-25.6-21.2-40.8-14-3.6 1.6-7.2 2.4-11.2 2.4-14.8 0-26.4-11.6-26.4-26.4 0-14.4 11.6-26.4 26.4-26.4l305.2 1.2c78.8 0 143.2 64.4 143.2 143.2s-64 142.8-142.4 143.2c1.2-10.4 1.6-21.2 1.6-31.6 0-8.8-0.4-18-1.2-26.8-2-22.8-6.4-45.2-12.8-67.2-4-12.8-16-21.2-29.2-21.2-2.8 0-6 0.4-8.8 1.2-16 5.2-25.2 22-20 38 5.2 17.6 8.8 36 10.4 54 0.8 7.2 1.2 14.8 1.2 22 0 120.4-84.4 222-197.6 248-2.8 0-6 0.8-8.8 2-15.6 2.8-32 4.4-48.4 4.4-84 0-161.6-41.6-208.8-108.8 37.6-2.4 73.6-14 105.6-33.6 14.4-9.2 18.8-27.6 10-42-9.2-14-27.6-18.4-42-9.6-26.8 16.4-57.6 25.2-89.6 25.2-93.6 0-170-76.4-170-170 0-94 76.4-170.4 170-170.4 16.8 0 30.4-13.6 30.4-30.4s-13.6-30.4-30.4-30.4c-127.2 0-230.8 103.6-230.8 231.2 0 107.2 73.2 197.2 172.4 223.2 52.8 107.6 162.8 176.4 283.2 176.4 14.4 0 28.8-1.2 43.2-3.2 50.4 83.6 140.4 134.8 239.2 134.8zM722 898.8c-64.4-4.4-122.8-37.2-160.8-88.8 93.6-33.2 166.8-109.6 196-204.8 3.6 0 7.2 0.4 11.2 0.4 56 0 106.8-22.8 144-59.6 27.2 35.2 43.2 78 45.2 123.6-13.2-2.8-26.8-4.4-40.4-4.4-109.2 0-198 88.8-198 198 0 12 0.8 24 2.8 35.6z" />
<glyph unicode="&#xe921;" glyph-name="wind-sun" d="M314.4 101.6c-45.2 0-81.6-36.8-81.6-82 0-44.8 36.4-81.6 81.6-81.6 12.4 0 24.4 2.8 35.6 8 14 6.8 20 24 13.2 38-6.8 14.4-24 20-38 13.2-3.6-1.6-7.2-2.4-10.8-2.4-13.6 0-24.8 11.2-24.8 24.8 0 14 11.2 24.8 24.8 24.8l286.4-0.8c15.6 0 28.4 12.4 28.4 28 0 16-12.4 28.8-28.4 28.8l-286.4 1.2zM150 164c-45.2 0-81.6-36.8-81.6-81.6 0-45.2 36.4-81.6 81.6-81.6 15.6 0 28.4 12.4 28.4 28.4 0 15.6-12.8 28.4-28.4 28.4-13.6 0-24.8 11.2-24.8 24.8s11.2 24.8 24.8 24.8c4 0 7.6-0.8 10.8-2.4 14-6.8 31.2-0.8 38 13.2s0.8 31.2-13.2 38c-11.2 5.2-23.2 8-35.6 8zM697.2 960c15.6 0 28.4-12.8 28.4-28.4v-95.2c29.6-4 57.2-14.4 81.2-29.6l61.2 72.8c10.4 12 28 13.6 40.4 3.6 12-10 13.6-28 3.2-40l-61.2-73.2c19.6-21.2 34.4-46.8 43.6-74.8l93.6 16.4c15.6 2.8 30.4-7.6 32.8-23.2 2.8-15.2-7.6-30-22.8-32.8l-94-16.4c0-2.8 0.4-5.2 0.4-7.6 0-27.2-5.2-53.6-15.2-78l82.4-47.6c13.6-7.6 18.4-25.2 10.4-38.8-5.2-9.2-14.8-14-24.8-14-4.8 0-9.6 1.2-14 3.6l-82.4 47.6c-0.8-0.4-1.2-1.2-1.6-2 32.8-34.4 53.2-80.8 53.2-132.4 0-105.6-85.6-191.2-190.8-191.2l-286.8-1.2c-44.8 0-81.6 36.8-81.6 81.6 0 45.2 36.8 82 81.6 82 12.4 0 24.4-2.8 35.6-8.4 14-6.8 20-23.6 13.2-38-6.8-14-24-20-38-13.2-3.2 1.6-6.8 2.4-10.8 2.4-13.6 0-24.8-10.8-24.8-24.8 0-13.6 11.2-24.8 24.8-24.8l286.4 1.2c74 0 134.4 60.4 134.4 134.4s-59.6 134-133.6 134.4c1.2-10 1.6-19.6 1.6-30 0-8-0.4-16.8-1.2-24.8-1.6-21.6-5.6-42.8-12-62.8-4-12.4-15.2-20-27.2-20-2.8 0-5.6 0.4-8.4 1.2-15.2 4.4-23.6 20.4-18.8 35.6 5.2 16.4 8.4 33.2 10 50.8 0.4 6.4 0.8 13.6 0.8 20 0 132-107.2 239.2-238.8 239.2-78.8 0-151.6-39.2-196-102 35.2-2.4 69.2-13.6 99.2-32 13.2-8.4 17.2-26 9.2-39.2-8.4-13.2-26-17.6-39.2-9.2-25.2 15.6-54.4 24-84 24-88.4 0-160-71.6-160-160 0-88 71.6-159.6 160-159.6 15.6 0 28.4-12.8 28.4-28.4s-12.8-28.4-28.4-28.4c-119.6 0-216.8 97.2-216.8 216.4 0 100.8 68.8 185.6 162 209.6 49.2 101.2 152.4 165.6 265.6 165.6 35.6 0 70-6.4 101.6-18 4.8 6 9.2 12 14.4 17.6l-61.2 73.2c-10 12-8.4 30 3.6 40s30 8.4 40-3.6l61.2-73.2c24.8 15.6 52.4 26 81.6 30v95.2c0 15.6 12.4 28.4 28.4 28.4zM697.2 781.6c-45.2 0-87.2-20.4-115.6-54.8 60.8-37.2 107.6-96 128.8-166 3.6 0.4 6.8 0.4 10.4 0.4 33.6 0 65.2-8.8 92.8-24 4.8 6 9.2 12.4 13.2 19.2 0 0.4 0 0.4 0.4 0.4 12.8 22.4 19.6 48 19.6 74.8 0 82.4-67.2 150-149.6 150z" />
<glyph unicode="&#xe922;" glyph-name="winterymix" d="M511.2 14.8c-17.6 0-32-15.6-32-34.8v-2c0-19.2 14.4-34.8 32-34.8s31.6 15.6 31.6 34.8v2c0 19.2-14 34.8-31.6 34.8zM669.6 184c-17.6 0-31.6-15.6-31.6-34.8v-23.6l-18.8 11.6c-15.2 9.6-34.8 4-43.6-12.8-8.4-16.8-3.2-37.6 12-47.2l16-10-16.4-9.2c-15.6-8.8-21.6-29.6-13.2-46.8 5.6-11.6 16.4-18.4 28-18.4 5.2 0 10 1.2 14.8 4l21.2 12v-26c0-19.2 14-34.8 31.6-34.8s31.6 15.6 31.6 34.8v23.6l18.8-11.6c5.2-3.2 10.4-4.8 16-4.8 10.8 0 21.6 6.4 27.6 17.6 8.4 16.4 3.2 37.6-12 47.2l-16 10 16.4 9.2c15.6 8.8 21.6 29.6 13.2 46.8-8 16.8-27.2 23.2-42.8 14.4l-21.2-12v26c0 19.2-14 34.8-31.6 34.8zM352.8 107.2c-17.6 0-32-15.6-32-34.8v-2c0-19.2 14.4-34.8 32-34.8s31.6 15.6 31.6 34.8v2c0 19.2-14 34.8-31.6 34.8zM510.8 391.6c-17.6 0-31.6-15.6-31.6-34.8v-23.2l-18.8 11.6c-15.2 9.6-34.8 3.6-43.2-12.8-8.8-16.8-3.6-38 11.6-47.6l16-9.6-16.4-9.2c-15.6-8.8-21.6-30-13.2-46.8 5.6-12 16.8-18.8 28-18.8 5.2 0 10 1.6 14.8 4l21.2 12v-25.6c0-19.2 14-34.8 31.6-34.8s32 15.6 32 34.8v23.2l18.4-11.6c5.2-3.2 10.4-4.4 16-4.4 10.8 0 21.6 6 27.6 17.2 8.8 16.8 3.2 38-12 47.6l-15.6 9.6 16 9.2c15.6 8.8 21.6 30 13.6 46.8-8.4 17.2-27.6 23.6-43.2 14.8l-20.8-12v25.6c0 19.2-14.4 34.8-32 34.8zM352.8 292c-17.6 0-32-15.6-32-34.8v-2c0-19.2 14.4-34.8 32-34.8s31.6 15.6 31.6 34.8v2c0 19.2-14 34.8-31.6 34.8zM669.2 309.6c-17.6 0-32-15.6-32-34.4v-2.4c0-18.8 14.4-34.4 32-34.4s31.6 15.6 31.6 34.4v2.4c0 18.8-14 34.4-31.6 34.4zM477.6 960c-126.4 0-241.6-78.8-296.8-201.6-104-29.6-180.8-132.8-180.8-255.2 0-145.6 108.4-264 242-264 17.6 0 32 15.6 32 34.8s-14.4 34.8-32 34.8c-98.4 0-178.4 87.2-178.4 194.4s80 194.4 178.4 194.4c33.2 0 66-10 94-28.8 14.8-10 34.4-5.2 43.6 11.2 9.2 16 4.8 37.6-10 47.6-33.6 22.4-71.6 36-110.8 38.8 49.6 76.8 130.8 124.4 218.8 124.4 147.2 0 266.8-130.8 266.8-291.2 0-8-0.4-16.4-0.8-24.8-1.6-20.8-5.6-41.6-11.2-61.6-5.2-18.4 4.4-37.6 20.8-43.6 3.2-0.8 6.4-1.6 9.6-1.6 13.6 0 26 9.6 30.4 24.4 7.2 24.8 11.6 50.8 13.6 76.8 0.8 10 1.2 20.4 1.2 30.4 0 12.4-0.4 24.4-1.6 36.4 82.4-0.8 149.2-73.6 149.2-163.6 0-90.4-67.2-163.6-150-163.6-17.6 0-32-15.6-32-34.8s14.4-34.8 32-34.8c117.6 0 213.6 104.8 213.6 233.2s-96 232.8-213.6 232.8c-4 0-8 0-12-0.4-41.2 147.6-167.2 255.2-316 255.2zM352.8 476.8c-17.6 0-32-15.6-32-34.8v-2c0-19.2 14.4-34.8 32-34.8s31.6 15.6 31.6 34.8v2c0 19.2-14 34.8-31.6 34.8z" />
<glyph unicode="&#xe923;" glyph-name="wintery-mix-moon" d="M487.6 0.8c-16.8 0-30.4-13.6-30.4-30.4v-2c0-16.4 13.6-30 30.4-30s30.4 13.6 30.4 30v2c0 16.8-13.6 30.4-30.4 30.4zM638.8 148.8c-16.8 0-30.4-13.6-30.4-30.4v-20.8l-17.6 10.4c-14.8 8.4-33.2 3.2-41.6-11.2-8.4-14.8-3.2-33.2 11.2-41.6l15.2-8.4-15.2-8.4c-15.2-7.6-20.8-26-12.8-40.8 5.2-10.4 15.6-16 26.8-16 4.8 0 9.6 0.8 14 3.2l20 10.8v-22.8c0-16.8 13.6-30.4 30.4-30.4s30.4 13.6 30.4 30.4v20.4l17.6-10c4.8-2.8 10-4 15.2-4 10.4 0 20.8 5.2 26.4 15.2 8.4 14.4 3.2 33.2-11.2 41.2l-15.2 8.8 15.2 8c14.8 8 20.8 26 12.8 40.8-7.6 14.8-26 20.8-40.8 12.8l-20-10.4v22.8c0 16.8-13.6 30.4-30.4 30.4zM336.4 81.6c-16.8 0-30.4-13.6-30.4-30.4v-1.6c0-16.8 13.6-30.4 30.4-30.4s30.4 13.6 30.4 30.4v1.6c0 16.8-13.6 30.4-30.4 30.4zM487.2 330.4c-16.8 0-30-13.6-30-30.4v-20.4l-18 10c-14.4 8.4-33.2 3.6-41.2-11.2-8.4-14.4-3.6-32.8 11.2-41.2l14.8-8.8-15.2-8c-14.8-7.6-20.4-26-12.8-40.8 5.6-10.4 16-16.4 26.8-16.4 4.8 0 9.6 1.2 14 3.6l20.4 10.4v-22.8c0-16.4 13.2-30 30-30s30.4 13.6 30.4 30v20.8l18-10.4c4.8-2.4 10-4 14.8-4 10.8 0 20.8 5.6 26.4 15.6 8.4 14.4 3.2 32.8-11.2 41.2l-15.2 8.8 15.6 8c14.8 7.6 20.4 26 12.8 40.8-8 14.8-26.4 20.4-41.2 12.8l-20-10.4v22.4c0 16.8-13.6 30.4-30.4 30.4zM336.4 243.2c-16.8 0-30.4-13.6-30.4-30.4v-1.6c0-16.8 13.6-30.4 30.4-30.4s30.4 13.6 30.4 30.4v1.6c0 16.8-13.6 30.4-30.4 30.4zM638.4 258.8c-16.8 0-30.4-13.6-30.4-30.4v-1.6c0-16.8 13.6-30.4 30.4-30.4 16.4 0 30 13.6 30 30.4v1.6c0 16.8-13.6 30.4-30 30.4zM738 960c8.8 0 18-0.4 27.2-1.2 9.6-0.8 18.4-6.4 23.2-14.8 5.2-8 5.6-18.4 2-27.2-7.2-16.8-10.8-34.8-10.8-53.6 0-75.6 61.6-137.2 137.6-137.2 19.6 0 38.8 4 56.4 12 8.8 4 18.8 3.6 27.2-0.8 8.4-4.8 14.4-13.2 15.6-22.8 1.2-11.2 2-22.8 2-34.8 0-68.8-24.4-133.2-69.2-184.4 14.4-28 22.8-60 22.8-94 0-112.4-91.2-204-203.6-204-16.8 0-30.4 13.6-30.4 30.4s13.6 30.4 30.4 30.4c78.8 0 143.2 64 143.2 143.2 0 78.4-64 142.4-142.4 143.2 1.2-10.8 1.6-21.2 1.6-32 0-8.8-0.4-17.6-1.2-26.8-2-22.8-6.4-45.2-12.8-66.8-4-13.2-16-21.2-29.2-21.2-2.8 0-6 0.4-8.8 1.2-16 4.8-25.2 22-20 38 5.2 17.6 8.8 35.6 10.4 54 0.8 7.2 1.2 14.4 1.2 21.6 0 140.4-114.4 254.8-254.8 254.8-84 0-161.6-41.6-208.8-108.8 37.6-2.4 73.6-14 105.6-34 14.4-8.8 18.8-27.6 10-41.6-9.2-14.4-27.6-18.8-42-10-26.8 16.8-57.6 25.6-89.6 25.6-93.6 0-170-76.4-170-170.4 0-93.6 76.4-170 170-170 16.8 0 30.4-13.6 30.4-30.4s-13.6-30.4-30.4-30.4c-127.2 0-230.8 103.6-230.8 230.8 0 107.2 73.2 197.6 172.4 223.6 52.8 107.2 162.8 176 283.2 176 14.4 0 28.8-0.8 42.8-2.8 50.4 84 140.4 135.2 239.6 135.2zM336.4 404.8c-16.8 0-30.4-13.6-30.4-30.4v-1.6c0-16.8 13.6-30.4 30.4-30.4s30.4 13.6 30.4 30.4v1.6c0 16.8-13.6 30.4-30.4 30.4zM722 898.8c-64.8-4.8-123.2-37.2-160.8-89.2 93.2-33.2 166.8-109.6 196-205.2 3.6 0.4 7.2 0.4 11.2 0.4 56 0 106.8-22.4 143.6-59.2 27.6 35.6 43.6 78.4 45.6 124-13.2-2.8-26.8-4.4-40.4-4.4-109.2 0-198 88.8-198 198 0 12 0.8 24 2.8 35.6z" />
<glyph unicode="&#xe924;" glyph-name="wintery-mix-sun" d="M457.6 0.4c-16 0-28.4-12.8-28.4-28.4v-1.6c0-15.6 12.4-28.4 28.4-28.4 15.6 0 28.4 12.8 28.4 28.4v1.6c0 15.6-12.8 28.4-28.4 28.4zM599.2 138.4c-15.6 0-28.4-12.8-28.4-28.4v-19.2l-16.8 9.6c-13.6 7.6-30.8 2.8-38.8-10.8-7.6-13.2-2.8-30.8 10.8-38.4l14-8-14.4-7.6c-14-7.2-19.2-24.4-12-38 5.2-9.6 15.2-15.2 25.2-15.2 4.4 0 9.2 0.8 13.2 3.2l18.8 9.6v-20.8c0-16 12.8-28.4 28.4-28.4 16 0 28.4 12.4 28.4 28.4v18.8l16.8-9.2c4.4-2.8 9.6-4 14.4-4 9.6 0 19.2 5.2 24.4 14.4 8 13.6 3.2 30.8-10.4 38.4l-14.4 8.4 14.8 7.2c13.6 7.2 19.2 24.4 12 38.4-7.6 13.6-24.8 19.2-38.4 12l-19.2-10v21.2c0 15.6-12.4 28.4-28.4 28.4zM315.6 75.6c-15.6 0-28.4-12.4-28.4-28.4v-1.6c0-15.6 12.8-28 28.4-28s28.4 12.4 28.4 28v1.6c0 16-12.8 28.4-28.4 28.4zM457.2 308c-15.6 0-28.4-12.8-28.4-28.4v-19.2l-16.8 9.6c-13.6 7.6-30.8 2.8-38.8-10.8-7.6-13.6-2.8-30.8 10.8-38.4l14-8-14.4-7.6c-14-7.2-19.2-24.4-12-38 5.2-9.6 14.8-15.2 25.2-15.2 4.4 0 8.8 0.8 13.2 3.2l18.8 9.6v-21.2c0-15.6 12.8-28 28.4-28s28.4 12.4 28.4 28v19.2l16.8-9.2c4.4-2.8 9.2-4 14-4 10 0 19.6 5.2 24.8 14.4 8 13.6 3.2 30.8-10.4 38.4l-14.4 8 14.4 7.6c14 7.2 19.6 24.4 12 38.4-7.2 13.6-24.4 19.2-38.4 12l-18.8-10v21.2c0 15.6-12.8 28.4-28.4 28.4zM315.6 226.4c-15.6 0-28.4-12.8-28.4-28.4v-1.6c0-15.6 12.8-28 28.4-28s28.4 12.4 28.4 28v1.6c0 15.6-12.8 28.4-28.4 28.4zM598.8 240.8c-15.6 0-28.4-12.4-28.4-28v-2c0-15.6 12.8-28 28.4-28s28.4 12.4 28.4 28v2c0 15.6-12.8 28-28.4 28zM697.2 960c15.6 0 28.4-12.8 28.4-28.4v-94.4c29.6-4 57.2-14.4 81.2-29.6l61.2 72.4c10.4 12 28 13.6 40.4 3.6 12-10 13.6-28 3.2-40l-61.2-72.4c19.6-21.2 34.4-46.4 43.6-74.4l93.6 16.4c15.6 2.8 30.4-7.6 32.8-22.8 2.8-15.6-7.6-30.4-22.8-32.8l-94-16.4c0-2.8 0.4-5.2 0.4-7.6 0-27.2-5.2-53.2-15.2-77.6l82.4-47.2c13.6-7.6 18.4-24.8 10.4-38.4-5.2-9.2-14.8-14.4-24.8-14.4-4.8 0-9.6 1.2-14 4l-82.4 47.2c-0.8-0.4-1.2-1.2-1.6-2 32.8-34 53.2-80.4 53.2-131.6 0-104.8-85.6-190-191.2-190-15.6 0-28.4 12.8-28.4 28.4s12.8 28 28.4 28c74 0 134.4 60 134.4 133.6 0 73.2-59.6 133.2-133.6 133.6 1.2-9.6 1.6-19.6 1.6-29.6 0-8.4-0.4-16.8-1.2-25.2-1.6-21.2-5.6-42-12-62.4-4-12-15.2-19.6-27.2-19.6-2.8 0-5.6 0.4-8.4 1.2-15.2 4.4-23.6 20.4-18.8 35.2 5.2 16.4 8.4 33.6 10 50.4 0.4 6.8 0.8 13.6 0.8 20.4 0 130.8-107.2 237.6-238.8 237.6-78.8 0-151.6-38.8-196-101.6 35.2-2.4 69.2-13.2 99.2-31.6 13.2-8.4 17.2-25.6 9.2-38.8-8.4-13.6-26-17.6-39.2-9.2-25.2 15.6-54.4 23.6-84 23.6-88.4 0-160-71.2-160-158.8s71.6-158.8 160-158.8c15.6 0 28.4-12.4 28.4-28s-12.8-28.4-28.4-28.4c-119.6 0-216.8 96.4-216.8 215.2 0 100 68.8 184 162 208.4 49.2 100 152.4 164.4 265.6 164.4 35.6 0 70-6.4 101.6-18 4.8 6 9.2 12 14.4 17.6l-61.2 72.4c-10 12-8.4 30 3.6 40s30 8.4 40-3.6l61.2-72.4c24.8 15.2 52.4 25.6 81.6 29.6v94.4c0 15.6 12.4 28.4 28.4 28.4zM315.6 377.2c-15.6 0-28.4-12.8-28.4-28.4v-1.6c0-15.6 12.8-28 28.4-28s28.4 12.4 28.4 28v1.6c0 15.6-12.8 28.4-28.4 28.4zM697.2 782.4c-45.2 0-87.6-20-115.6-54 60.8-37.2 107.6-95.6 128.8-164.8 3.6 0 6.8 0 10.4 0 33.6 0 65.2-8.4 92.8-23.6 4.8 6 9.2 12 13.2 18.8 0 0 0 0 0 0.4 0 0 0 0 0.4 0 12.8 22.4 19.6 48 19.6 74.4 0 82-67.2 148.8-149.6 148.8z" />
<glyph unicode="&#xe925;" glyph-name="cloud-two" horiz-adv-x="1536" d="M1208 38.4h-844.8c-147.6 0-268 123.6-268 275.2 0 152 120.4 275.2 268 275.2 50 0 98.4-14 140.8-40.8 22.4-14.4 51.6-7.2 65.6 15.6 14 23.2 6.8 53.2-15.6 67.6-50 32-106.8 50.8-165.6 54.8 74 108.8 196 176 328 176 220.8 0 400.4-184.8 400.4-412 0-11.6-0.4-23.2-1.6-34.8-2.4-30-8-59.2-16.4-87.6-8-25.6 6-53.2 31.2-61.2 4.8-1.6 9.6-2.4 14.4-2.4 20 0 39.2 13.6 45.2 34.4 10.8 35.2 17.6 71.6 20.8 108.4 1.2 14.4 1.6 29.2 1.6 43.2 0 17.6-0.8 34.8-2.4 51.6 123.6-0.8 223.6-104.4 223.6-231.6 0-127.6-100.8-231.6-225.2-231.6zM1208 599.6c-5.6 0-11.6 0-17.6-0.4-62 208.4-251.2 360.8-474 360.8-189.2 0-362-111.2-445.2-285.2-156-42-271.2-188-271.2-361.2 0-205.6 162.8-373.2 363.2-373.2h844.8c176.8 0 320.8 148 320.8 329.6s-144 329.6-320.8 329.6z" />
<glyph unicode="&#xe926;" glyph-name="cloud-moon" horiz-adv-x="1331" d="M998.8 23.6h-698.8c-122 0-221.2 102-221.2 227.2s99.2 226.8 221.2 226.8c41.6 0 81.6-11.6 116.4-33.6 18.8-12 42.8-6 54.4 12.8 11.6 19.2 6 44-12.8 55.6-41.2 26.4-88.4 42-136.8 45.6 61.2 89.6 162 144.8 271.2 144.8 182.4 0 330.8-152.4 330.8-339.6 0-9.6-0.4-19.2-1.2-28.8-2-24.4-6.4-48.8-13.6-72-6.4-21.2 5.2-44 26-50.8 3.6-1.2 7.6-1.6 11.6-1.6 16.8 0 32.4 11.2 37.6 28.4 8.8 28.8 14.4 58.8 17.2 89.2 0.8 12 1.2 24 1.2 35.6 0 14.4-0.8 28.4-2 42.4 102-0.8 185.2-86 185.2-190.8 0-105.2-83.6-191.2-186.4-191.2zM938.8 878.4c-2.8-15.6-4-31.2-4-47.2 0-145.6 115.6-264 257.6-264 17.6 0 35.2 1.6 52.4 5.2-2.8-60.4-23.2-117.6-59.2-165.2-48 49.2-114 79.2-186.8 79.2-4.8 0-9.6 0-14.4-0.4-38 127.2-133.6 229.2-255.2 273.6 49.2 69.2 125.2 112.8 209.6 118.8zM1324 586.4c0 15.6-1.2 31.2-2.8 46-1.6 12.8-9.2 24-20 30.4-10.8 6-24 6.8-35.6 1.2-22.8-10.4-47.6-16-73.2-16-98.8 0-178.8 82-178.8 183.2 0 24.8 4.8 48.8 14 71.2 4.8 12 4 25.2-2.8 36.4-6.4 11.2-17.6 18.4-30 19.6-12 1.2-23.6 1.6-35.2 1.6-129.2 0-246-68.4-311.6-180.4-18.4 2.8-36.8 4-55.6 4-156.8 0-299.6-91.6-368-234.8-129.2-34.8-224.4-155.2-224.4-298 0-169.6 134.8-308 300-308h698.8c146 0 265.2 122 265.2 272 0 45.2-11.2 88-30.4 125.6 58.4 68 90.4 154.4 90.4 246z" />
<glyph unicode="&#xe927;" glyph-name="cloud-sun" horiz-adv-x="1229" d="M867.2 16.8h-605.2c-106 0-192 92.8-192 207.2 0 114 86 206.8 192 206.8 35.6 0 70.4-10.4 100.8-30.8 16-10.8 37.2-5.2 46.8 12 10 17.2 5.2 40-10.8 50.8-36 24-76.8 38-118.8 41.2 53.2 81.6 140.4 132.4 234.8 132.4 158 0 286.8-139.2 286.8-310 0-8.4-0.4-17.6-1.2-26.4-1.6-22-5.6-44.4-11.6-65.6-5.6-19.2 4.4-40 22.4-46 3.2-1.2 6.8-1.6 10-1.6 14.8 0 28 10 32.8 25.6 7.6 26.4 12.4 54 14.4 81.6 0.8 10.8 1.6 21.6 1.6 32.4 0 13.2-0.8 26-2 38.8 88.4-0.8 160.4-78.4 160.4-174 0-96-72.4-174.4-161.2-174.4zM838.4 724.4c99.2 0 180-87.2 180-194.4 0-34.4-8.4-67.6-24-96.8 0 0 0-0.4-0.4-0.4 0 0 0-0.4 0-0.4-4.8-8.4-10-16.8-15.6-24.8-33.2 20-71.2 31.2-111.2 31.2-4.4 0-8.8 0-12.8-0.4-25.6 90.4-81.6 166.8-154.4 215.2 33.6 44.4 84.4 70.8 138.4 70.8zM1226.8 604c-3.6 20-21.2 33.2-39.6 29.6l-112.8-21.2c-10.8 36.4-28.8 69.2-52 97.2l73.6 94.4c12 15.6 10.4 38.8-4.4 52-14.4 13.2-35.6 11.2-48-4.4l-73.6-94.8c-28.8 20-62 33.2-97.6 38.4v123.6c0 20.4-15.2 36.8-34 36.8s-34-16.4-34-36.8v-123.6c-35.2-5.2-68.4-18.4-97.6-38.4l-73.6 94.8c-12.4 15.6-33.6 17.6-48 4.4-14.8-13.2-16.4-36.4-4.4-52l73.6-94.4c-6-7.2-12-15.2-17.2-23.2-38.4 15.2-79.6 23.6-122.4 23.6-135.6 0-259.2-83.6-318.8-214.4-111.6-31.6-194-141.2-194-271.6 0-154.8 116.4-280.8 260-280.8h605.2c126.4 0 229.2 111.2 229.2 248 0 66.4-24.4 126.8-64 171.6 0.4 0.8 1.2 1.6 1.6 2.4l99.2-61.6c5.2-3.2 11.2-4.8 16.8-4.8 12 0 23.6 6.4 29.6 18.4 9.6 17.6 4 40-12.4 50.4l-98.8 61.6c12 31.6 18 65.6 18 100.8 0 3.2 0 6.4 0 9.6l112.4 21.6c18.8 3.6 31.2 22.8 28 42.8z" />
<glyph unicode="&#xe928;" glyph-name="fog" horiz-adv-x="1126" d="M210 15.6v-75.6h696v75.6zM244.8 134.4c-19.2 0-34.8-17.2-34.8-38s15.6-37.6 34.8-37.6h626c19.6 0 35.2 16.8 35.2 37.6s-15.6 38-35.2 38zM525.2 960c163.6 0 302.4-117.2 347.6-278 4.4 0 8.8 0.4 13.2 0.4 129.6 0 235.2-114 235.2-254s-105.6-254-235.2-254h-619.6c-146.8 0-266.4 129.2-266.4 287.6 0 133.6 84.4 246 198.8 278.4 60.8 134 187.6 219.6 326.4 219.6zM525.2 884.4c-96.8 0-186-51.6-240.4-135.6 43.2-3.2 84.8-17.6 121.6-42 16.4-11.2 21.6-34.4 11.2-52-10-18-31.6-23.2-48-12.4-31.2 20.8-66.8 31.6-103.2 31.6-108.4 0-196.4-95.2-196.4-212s88-212 196.4-212h619.6c91.2 0 165.2 80 165.2 178.4 0 98-73.6 177.6-164 178.4 1.2-13.2 1.6-26.4 1.6-39.6 0-11.2-0.4-22.4-1.2-33.2-2.4-28.4-7.2-56.4-15.2-83.6-4.4-16-18.4-26.4-33.2-26.4-3.6 0-7.2 0.4-10.4 1.6-18.4 6-28.8 27.2-23.2 47.2 6.4 22 10.4 44.4 12.4 67.2 0.4 9.2 0.8 18.4 0.8 27.2 0 174.8-131.6 317.2-293.6 317.2z" />
<glyph unicode="&#xe929;" glyph-name="fog-moon" d="M182 7.2v-65.2h603.6v65.2zM212.4 109.2c-16.8 0-30.4-14.8-30.4-32.8 0-17.6 13.6-32.4 30.4-32.4h542.8c16.8 0 30.4 14.8 30.4 32.4 0 18-13.6 32.8-30.4 32.8zM738 960c8.8 0 18-0.4 27.2-1.2 9.6-1.2 18.4-6.8 23.2-15.6 5.2-9.2 5.6-20 2-29.6-7.2-18-10.8-37.2-10.8-57.2 0-80.8 61.6-146.8 137.6-146.8 19.6 0 38.8 4.4 56.4 12.8 8.8 4.4 18.8 4 27.2-1.2 8.4-4.8 14.4-14 15.6-24 1.2-12 2-24.4 2-37.2 0-73.6-24.4-142.8-69.2-197.6 14.4-30 22.8-64.4 22.8-100.8 0-120.4-91.2-218-203.6-218h-537.6c-127.2 0-230.8 110.8-230.8 247.2 0 114.4 73.2 211.2 172.4 238.8 52.8 115.2 162.8 188.8 283.2 188.8 14.4 0 28.8-1.2 42.8-3.2 50.4 90 140.4 144.8 239.6 144.8zM455.6 753.6c-84 0-161.6-44.4-208.8-116.4 37.6-2.8 73.6-15.2 105.6-36.4 14.4-9.6 18.8-29.6 10-44.8-9.2-15.2-27.6-20-42-10.4-26.8 18-57.6 27.2-89.6 27.2-93.6 0-170-81.6-170-182 0-100.8 76.4-182.4 170-182.4h537.6c78.8 0 143.2 68.8 143.2 153.2s-64 152.8-142.4 153.2c1.2-11.2 1.6-22.4 1.6-34 0-9.2-0.4-18.8-1.2-28.4-2-24.4-6.4-48.4-12.8-71.6-4-14-16-22.8-29.2-22.8-2.8 0-6 0.4-8.8 1.2-16 5.6-25.2 23.6-20 40.8 5.2 18.8 8.8 38 10.4 57.6 0.8 8 1.2 15.6 1.2 23.2 0 150.4-114.4 272.8-254.8 272.8zM722 894.4c-64.8-4.8-123.2-40-160.8-95.6 93.2-35.6 166.8-117.2 196-219.2 3.6 0 7.2 0.4 11.2 0.4 56 0 106.8-24.4 143.6-63.6 27.6 38 43.6 84 45.6 132.4-13.2-2.8-26.8-4.4-40.4-4.4-109.2 0-198 95.2-198 212 0 13.2 0.8 25.6 2.8 38z" />
<glyph unicode="&#xe92a;" glyph-name="fog-sun" d="M170.8 0v-60.8h566.4v60.8zM199.2 95.2c-15.6 0-28.4-13.6-28.4-30.4s12.8-30.4 28.4-30.4h509.6c15.6 0 28.4 13.6 28.4 30.4s-12.8 30.4-28.4 30.4zM697.2 960c15.6 0 28.4-13.6 28.4-30.4v-101.6c29.6-4 57.2-15.2 81.2-31.6l61.2 78c10.4 12.8 28 14.4 40.4 3.6 12-10.8 13.6-29.6 3.2-42.8l-61.2-77.6c19.6-22.8 34.4-50 43.6-80l93.6 17.6c15.6 2.8 30.4-8 32.8-24.4 2.8-16.4-7.6-32.4-22.8-35.2l-94-17.6c0-2.8 0.4-5.6 0.4-8 0-29.2-5.2-57.2-15.2-83.2l82.4-50.4c13.6-8.4 18.4-27.2 10.4-41.6-5.2-9.6-14.8-15.2-24.8-15.2-4.8 0-9.6 1.2-14 4l-82.4 50.8c-0.8-0.4-1.2-1.2-1.6-2 32.8-36.8 53.2-86.4 53.2-141.2 0-112.4-85.6-204-191.2-204h-504c-119.6 0-216.8 103.6-216.8 231.2 0 106.8 68.8 197.2 162 223.2 49.2 107.6 152.4 176.4 265.6 176.4 35.6 0 70-6.8 101.6-19.2 4.8 6.4 9.2 12.8 14.4 18.8l-61.2 77.6c-10 13.2-8.4 32 3.6 42.8s30 9.2 40-3.6l61.2-78c24.8 16.4 52.4 27.6 81.6 31.6v101.6c0 16.8 12.4 30.4 28.4 30.4zM427.6 697.2c-78.8 0-151.6-41.6-196-108.8 35.2-2.4 69.2-14 99.2-34 13.2-8.8 17.2-27.2 9.2-41.6-8.4-14.4-26-18.4-39.2-9.6-25.2 16.4-54.4 25.2-84 25.2-88.4 0-160-76.4-160-170 0-94 71.6-170.4 160-170.4h504c74 0 134.4 64.4 134.4 143.2s-59.6 142.8-133.6 143.2c1.2-10.4 1.6-21.2 1.6-31.6 0-9.2-0.4-18-1.2-26.8-1.6-22.8-5.6-45.6-12-67.2-4-12.8-15.2-21.2-27.2-21.2-2.8 0-5.6 0.4-8.4 1.2-15.2 5.2-23.6 22-18.8 38 5.2 17.6 8.4 35.6 10 54 0.4 7.2 0.8 14.8 0.8 22 0 140.4-107.2 254.4-238.8 254.4zM697.2 769.6c-45.2 0-87.6-21.6-115.6-58 60.8-40 107.6-102.4 128.8-176.8 3.6 0 6.8 0.4 10.4 0.4 33.6 0 65.2-9.6 92.8-25.6 4.8 6.4 9.2 13.2 13.2 20 0 0 0 0.4 0 0.4s0 0 0.4 0.4c12.8 24 19.6 51.2 19.6 79.6 0 88-67.2 159.6-149.6 159.6z" />
<glyph unicode="&#xe92b;" glyph-name="point" horiz-adv-x="964" d="M481.876 843.864c185.351 0 335.596-150.244 335.596-335.597 0-141.811-99.647-296.359-296.356-465.289-10.938-9.397-24.884-14.559-39.303-14.547s-28.356 5.198-39.278 14.613l-13.011 11.288c-188.003 164.533-283.243 315.291-283.243 453.935 0 185.352 150.244 335.597 335.596 335.597zM481.876 637.343c-34.233 0-67.064-13.599-91.27-37.805s-37.805-57.037-37.805-91.27c0-34.233 13.599-67.064 37.805-91.27s57.037-37.805 91.27-37.805c34.234 0 67.064 13.599 91.27 37.805s37.808 57.037 37.808 91.27c0 34.233-13.602 67.064-37.808 91.27s-57.037 37.805-91.27 37.805z" />
<glyph unicode="&#xe92c;" glyph-name="location" d="M512.010 277.331c94.257 0 170.665 76.41 170.665 170.666s-76.408 170.667-170.665 170.667c-94.257 0-170.666-76.41-170.666-170.667s76.41-170.666 170.666-170.666zM563.2 854.067v105.933h-102.4v-105.933c-90.097-11.504-173.825-52.591-238.051-116.817s-105.313-147.954-116.817-238.051h-105.933v-102.4h105.933c11.487-90.106 52.569-173.843 116.797-238.067 64.228-64.23 147.967-105.312 238.070-116.8v-105.933h102.4v105.933c90.106 11.482 173.85 52.557 238.080 116.787s105.306 147.974 116.787 238.080h105.933v102.4h-105.933c-11.488 90.103-52.57 173.841-116.8 238.070-64.224 64.228-147.962 105.311-238.067 116.797v0zM512 140.8c-169.421 0-307.2 137.779-307.2 307.2s137.779 307.2 307.2 307.2c169.421 0 307.2-137.779 307.2-307.2s-137.779-307.2-307.2-307.2z" />
<glyph unicode="&#xe92d;" glyph-name="arrow-left" horiz-adv-x="964" d="M903.523 439.425c0 7.988-3.174 15.649-8.818 21.297-5.65 5.648-13.312 8.821-21.299 8.821h-710.354l189.56 189.5c2.8 2.8 5.021 6.125 6.537 9.783s2.296 7.58 2.296 11.54c0 3.96-0.78 7.882-2.296 11.54s-3.736 6.983-6.537 9.783c-2.8 2.8-6.125 5.022-9.783 6.537s-7.58 2.296-11.54 2.296c-3.96 0-7.882-0.78-11.54-2.296s-6.982-3.737-9.783-6.537l-240.941-240.941c-2.805-2.797-5.030-6.121-6.549-9.78s-2.3-7.582-2.3-11.543c0-3.961 0.782-7.884 2.3-11.543s3.744-6.982 6.549-9.78l240.941-240.944c2.8-2.795 6.124-5.018 9.783-6.536 3.659-1.512 7.58-2.295 11.54-2.295s7.881 0.783 11.54 2.295c3.659 1.518 6.983 3.741 9.783 6.536 2.8 2.801 5.021 6.126 6.537 9.788 1.516 3.656 2.296 7.578 2.296 11.535 0 3.963-0.78 7.885-2.296 11.541-1.516 3.662-3.736 6.987-6.537 9.782l-189.56 189.503h710.354c7.987 0 15.649 3.173 21.299 8.821 5.644 5.648 8.818 13.309 8.818 21.296z" />
<glyph unicode="&#xe92e;" glyph-name="regular-cloud" horiz-adv-x="964" d="M763.669 527.238c-43.104 113.694-152.937 194.541-281.598 194.541-128.659 0-238.494-80.753-281.601-194.447-80.659-21.176-140.235-94.588-140.235-182.021 0-104.002 84.235-188.235 188.141-188.235h467.014c103.906 0 188.139 84.233 188.139 188.235 0 87.245-59.386 160.657-139.86 181.927zM797.835 262.77c-10.8-10.866-23.648-19.48-37.798-25.347-14.155-5.861-29.329-8.861-44.646-8.818h-467.014c-31.153 0-60.424 12.137-82.447 34.165-10.865 10.818-19.479 23.678-25.343 37.846s-8.862 29.359-8.821 44.695c0 26.351 8.565 51.104 24.659 71.81 15.761 20.058 37.583 34.485 62.212 41.13l35.671 9.317 13.082 34.447c8.094 21.459 19.389 41.506 33.6 59.67 14.031 18.004 30.65 33.831 49.318 46.965 38.682 27.2 84.235 41.6 131.765 41.6s93.082-14.4 131.763-41.6c18.733-13.176 35.298-28.988 49.321-46.965 14.21-18.165 25.504-38.305 33.599-59.67l12.987-34.353 35.575-9.412c51.11-13.648 86.685-60.047 86.685-112.939 0-31.154-12.143-60.518-34.165-82.54z" />
</font>
</defs>
</svg>
