<svg width="150" height="150" viewBox="0 0 150 150" fill="none" xmlns="http://www.w3.org/2000/svg">
<path d="M82.9827 11.1384L75 34.5596L67.0173 11.1384C66.5869 9.8699 66.465 8.51709 66.6616 7.19206C66.8583 5.86704 67.3679 4.60797 68.1482 3.51918C68.9285 2.43039 69.9571 1.54324 71.1487 0.931232C72.3402 0.31923 73.6605 0 75 0C76.3395 0 77.6598 0.31923 78.8513 0.931232C80.0429 1.54324 81.0715 2.43039 81.8518 3.51918C82.6321 4.60797 83.1417 5.86704 83.3384 7.19206C83.535 8.51709 83.4131 9.8699 82.9827 11.1384ZM11.1384 67.0173L34.5596 75L11.1384 82.9827C9.8699 83.4131 8.51709 83.535 7.19206 83.3384C5.86704 83.1417 4.60797 82.6321 3.51918 81.8518C2.43039 81.0715 1.54324 80.0429 0.931232 78.8513C0.31923 77.6598 0 76.3395 0 75C0 73.6605 0.31923 72.3402 0.931232 71.1487C1.54324 69.9571 2.43039 68.9285 3.51918 68.1482C4.60797 67.3679 5.86704 66.8583 7.19206 66.6616C8.51709 66.465 9.8699 66.5869 11.1384 67.0173ZM67.0173 138.862L75 115.44L82.9827 138.862C83.4131 140.13 83.535 141.483 83.3384 142.808C83.1417 144.133 82.6321 145.392 81.8518 146.481C81.0715 147.57 80.0429 148.457 78.8513 149.069C77.6598 149.681 76.3395 150 75 150C73.6605 150 72.3402 149.681 71.1487 149.069C69.9571 148.457 68.9285 147.57 68.1482 146.481C67.3679 145.392 66.8583 144.133 66.6616 142.808C66.465 141.483 66.5869 140.13 67.0173 138.862ZM138.862 82.9667L115.44 74.984L138.862 67.0013C140.13 66.5709 141.483 66.449 142.808 66.6457C144.133 66.8423 145.392 67.3519 146.481 68.1323C147.57 68.9126 148.457 69.9411 149.069 71.1327C149.681 72.3242 150 73.6445 150 74.984C150 76.3236 149.681 77.6438 149.069 78.8354C148.457 80.0269 147.57 81.0555 146.481 81.8358C145.392 82.6161 144.133 83.1257 142.808 83.3224C141.483 83.5191 140.13 83.3972 138.862 82.9667ZM35.4856 24.1981L46.398 46.398L24.1981 35.4856C22.9917 34.8953 21.9436 34.0256 21.141 32.9486C20.3384 31.8717 19.8045 30.6187 19.5837 29.2939C19.3629 27.9691 19.4615 26.6107 19.8713 25.3317C20.2812 24.0526 20.9905 22.8899 21.9402 21.9402C22.8899 20.9905 24.0526 20.2812 25.3317 19.8713C26.6107 19.4615 27.9691 19.3629 29.2939 19.5837C30.6187 19.8045 31.8717 20.3384 32.9486 21.141C34.0256 21.9436 34.8953 22.9917 35.4856 24.1981ZM24.1981 114.506L46.398 103.594L35.4856 125.794C34.8953 127 34.0256 128.048 32.9486 128.851C31.8717 129.654 30.6187 130.188 29.2939 130.408C27.9691 130.629 26.6107 130.531 25.3317 130.121C24.0526 129.711 22.8899 129.002 21.9402 128.052C20.9905 127.102 20.2812 125.939 19.8713 124.66C19.4615 123.381 19.3629 122.023 19.5837 120.698C19.8045 119.373 20.3384 118.12 21.141 117.043C21.9436 115.966 22.9917 115.097 24.1981 114.506ZM114.506 125.794L103.594 103.594L125.794 114.506C127 115.097 128.048 115.966 128.851 117.043C129.654 118.12 130.188 119.373 130.408 120.698C130.629 122.023 130.531 123.381 130.121 124.66C129.711 125.939 129.002 127.102 128.052 128.052C127.102 129.002 125.939 129.711 124.66 130.121C123.381 130.531 122.023 130.629 120.698 130.408C119.373 130.188 118.12 129.654 117.043 128.851C115.966 128.048 115.097 127 114.506 125.794ZM125.786 35.4697L103.578 46.39L114.498 24.1821C115.089 22.9757 115.958 21.9276 117.035 21.125C118.112 20.3225 119.365 19.7886 120.69 19.5677C122.015 19.3469 123.373 19.4455 124.652 19.8554C125.931 20.2652 127.094 20.9745 128.044 21.9242C128.994 22.874 129.703 24.0367 130.113 25.3157C130.523 26.5947 130.621 27.9531 130.4 29.2779C130.18 30.6028 129.646 31.8557 128.843 32.9327C128.04 34.0096 126.992 34.8794 125.786 35.4697ZM75 110.922C55.1949 110.922 39.0779 94.8051 39.0779 75C39.0779 55.1949 55.1949 39.0779 75 39.0779C94.8051 39.0779 110.922 55.1949 110.922 75C110.922 94.8051 94.8051 110.922 75 110.922ZM75 55.0433C63.9919 55.0433 55.0433 63.9919 55.0433 75C55.0433 86.0081 63.9919 94.9567 75 94.9567C86.0081 94.9567 94.9567 86.0081 94.9567 75C94.9567 63.9919 86.0081 55.0433 75 55.0433Z" fill="#0066FF"/>
</svg>
