<svg width="187" height="30" viewBox="0 0 187 30" fill="none" xmlns="http://www.w3.org/2000/svg">
<path d="M54.7157 10.925C55.7824 11.3917 56.3157 11.9667 56.3157 12.65C56.3157 12.9333 56.1824 13.3917 55.9157 14.025C55.6491 14.6417 55.4241 15.1833 55.2407 15.65L52.4907 22.35C52.2407 23.0833 51.8241 23.6 51.2407 23.9C50.9907 24.0167 50.6741 24.075 50.2907 24.075C49.9074 24.075 49.5324 23.9333 49.1657 23.65C48.8157 23.35 48.5824 23.05 48.4657 22.75L48.2657 22.325C48.1324 21.9917 47.6407 20.6917 46.7907 18.425C46.6241 18.825 46.3741 19.4833 46.0407 20.4C45.7241 21.3 45.5157 21.8667 45.4157 22.1C45.3324 22.3167 45.2741 22.4667 45.2407 22.55C45.2241 22.6167 45.1574 22.75 45.0407 22.95C44.9241 23.15 44.7907 23.325 44.6407 23.475C44.2407 23.875 43.7824 24.075 43.2657 24.075C42.7491 24.075 42.3157 23.9333 41.9657 23.65C41.6157 23.35 41.3824 23.05 41.2657 22.75L37.4907 13.55C37.3241 13.05 37.2407 12.725 37.2407 12.575C37.2407 11.9083 37.7157 11.3833 38.6657 11C39.1991 10.7833 39.6324 10.675 39.9657 10.675C40.2991 10.675 40.5657 10.75 40.7657 10.9C40.9824 11.0333 41.1324 11.175 41.2157 11.325C41.2991 11.4583 41.3657 11.6 41.4157 11.75C41.6991 12.4167 42.2907 13.9833 43.1907 16.45L44.6657 12.4C44.7657 12.0667 44.9491 11.775 45.2157 11.525C45.6991 11.0417 46.1907 10.8 46.6907 10.8C47.1907 10.8 47.6157 10.9333 47.9657 11.2C48.3324 11.4667 48.5824 11.7333 48.7157 12L48.9157 12.425C49.7491 14.7583 50.2407 16.0917 50.3907 16.425L51.9157 12.275C52.3157 11.2083 52.9157 10.675 53.7157 10.675C54.0324 10.675 54.3657 10.7583 54.7157 10.925ZM69.9017 15.85C69.9017 16.8667 69.6433 17.625 69.1267 18.125C68.6267 18.6083 68.0683 18.85 67.4517 18.85H61.5267C61.5267 19.3167 61.8017 19.7083 62.3517 20.025C62.9017 20.3417 63.4517 20.5 64.0017 20.5C64.9683 20.5 65.7267 20.4 66.2767 20.2L66.5517 20.1C66.9517 19.9167 67.285 19.825 67.5517 19.825C68.085 19.825 68.5433 20.2 68.9267 20.95C69.1433 21.4 69.2517 21.7833 69.2517 22.1C69.2517 23.5833 67.4767 24.325 63.9267 24.325C62.6933 24.325 61.5933 24.1167 60.6267 23.7C59.6767 23.2667 58.935 22.7 58.4017 22C57.3517 20.65 56.8267 19.1417 56.8267 17.475C56.8267 15.375 57.5017 13.7 58.8517 12.45C60.2183 11.1833 61.9183 10.55 63.9517 10.55C66.2683 10.55 67.9683 11.3667 69.0517 13C69.6183 13.8667 69.9017 14.8167 69.9017 15.85ZM64.6267 16.575C65.26 16.575 65.5767 16.3083 65.5767 15.775C65.5767 15.3917 65.4267 15.0833 65.1267 14.85C64.8433 14.6167 64.4267 14.5 63.8767 14.5C63.3433 14.5 62.81 14.725 62.2767 15.175C61.7433 15.6083 61.4767 16.075 61.4767 16.575H64.6267ZM80.0827 12.225C80.1827 11.2917 80.841 10.825 82.0577 10.825C82.7077 10.825 83.191 10.875 83.5077 10.975C83.8244 11.075 84.041 11.25 84.1577 11.5C84.291 11.75 84.366 11.975 84.3827 12.175C84.416 12.3583 84.4327 12.6417 84.4327 13.025V21.775C84.4327 22.1583 84.416 22.45 84.3827 22.65C84.366 22.8333 84.2994 23.05 84.1827 23.3C83.9494 23.7333 83.3744 23.95 82.4577 23.95C81.5577 23.95 80.9494 23.8417 80.6327 23.625C80.3327 23.3917 80.1577 23.0583 80.1077 22.625C79.491 23.5083 78.4577 23.95 77.0077 23.95C75.5744 23.95 74.241 23.2917 73.0077 21.975C71.7744 20.6583 71.1577 19.1333 71.1577 17.4C71.1577 15.65 71.7744 14.125 73.0077 12.825C74.2577 11.5083 75.6244 10.85 77.1077 10.85C77.6744 10.85 78.191 10.95 78.6577 11.15C79.1244 11.35 79.4494 11.5417 79.6327 11.725C79.816 11.8917 79.966 12.0583 80.0827 12.225ZM75.5327 17.425C75.5327 17.975 75.7494 18.475 76.1827 18.925C76.616 19.3583 77.141 19.575 77.7577 19.575C78.3744 19.575 78.8827 19.35 79.2827 18.9C79.6994 18.45 79.9077 17.9583 79.9077 17.425C79.9077 16.875 79.7077 16.3667 79.3077 15.9C78.9244 15.4333 78.3994 15.2 77.7327 15.2C77.0827 15.2 76.5494 15.4333 76.1327 15.9C75.7327 16.3667 75.5327 16.875 75.5327 17.425ZM94.0753 15.25L92.4503 15.15V18.6C92.4503 19.05 92.517 19.375 92.6503 19.575C92.8003 19.775 93.067 19.875 93.4503 19.875C93.8503 19.875 94.1503 19.8917 94.3503 19.925C94.567 19.9417 94.792 20.0167 95.0253 20.15C95.4086 20.3667 95.6003 20.925 95.6003 21.825C95.6003 22.875 95.367 23.5167 94.9003 23.75C94.6503 23.8667 94.4253 23.9417 94.2253 23.975C94.042 23.9917 93.767 24 93.4003 24C91.667 24 90.3503 23.6083 89.4503 22.825C88.5503 22.0417 88.1003 20.7167 88.1003 18.85V15.15C87.7836 15.2 87.442 15.225 87.0753 15.225C86.7086 15.225 86.4003 15.0833 86.1503 14.8C85.917 14.5167 85.8003 14.0333 85.8003 13.35C85.8003 12.6667 85.842 12.175 85.9253 11.875C86.0086 11.5583 86.1253 11.3333 86.2753 11.2C86.542 10.9833 86.8753 10.875 87.2753 10.875L88.1003 10.975V8.4C88.1003 8.01667 88.1086 7.73333 88.1253 7.55C88.1586 7.36667 88.242 7.16667 88.3753 6.95C88.592 6.53333 89.2336 6.325 90.3003 6.325C91.4336 6.325 92.1086 6.63333 92.3253 7.25C92.4086 7.51667 92.4503 7.94167 92.4503 8.525V10.975C93.1836 10.9083 93.7336 10.875 94.1003 10.875C94.4836 10.875 94.767 10.8917 94.9503 10.925C95.1503 10.9417 95.3753 11.0167 95.6253 11.15C96.0586 11.3667 96.2753 12.0083 96.2753 13.075C96.2753 14.125 96.0503 14.7667 95.6003 15C95.3503 15.1167 95.1253 15.1917 94.9253 15.225C94.742 15.2417 94.4586 15.25 94.0753 15.25ZM104.956 10.875C106.622 10.875 108.006 11.5083 109.106 12.775C110.222 14.0417 110.781 15.5917 110.781 17.425V21.825C110.781 22.2083 110.764 22.5 110.731 22.7C110.714 22.8833 110.639 23.1 110.506 23.35C110.289 23.7833 109.647 24 108.581 24C107.564 24 106.931 23.7833 106.681 23.35C106.547 23.1 106.464 22.875 106.431 22.675C106.414 22.475 106.406 22.175 106.406 21.775V17.4C106.406 16.7167 106.214 16.1833 105.831 15.8C105.447 15.4167 104.956 15.225 104.356 15.225C103.772 15.225 103.256 15.4083 102.806 15.775C102.356 16.125 102.097 16.525 102.031 16.975V21.825C102.031 22.2083 102.014 22.5 101.981 22.7C101.964 22.8833 101.889 23.1 101.756 23.35C101.539 23.7833 100.897 24 99.8308 24C98.7808 24 98.1391 23.775 97.9058 23.325C97.7891 23.075 97.7141 22.8583 97.6808 22.675C97.6641 22.4917 97.6558 22.2 97.6558 21.8V6.85C97.6558 6.46667 97.6641 6.18333 97.6808 6C97.7141 5.8 97.7891 5.58333 97.9058 5.35C98.1391 4.9 98.7891 4.675 99.8558 4.675C100.906 4.675 101.539 4.9 101.756 5.35C101.889 5.6 101.964 5.825 101.981 6.025C102.014 6.20833 102.031 6.49167 102.031 6.875V12.4C102.864 11.3833 103.839 10.875 104.956 10.875ZM125.492 15.85C125.492 16.8667 125.234 17.625 124.717 18.125C124.217 18.6083 123.659 18.85 123.042 18.85H117.117C117.117 19.3167 117.392 19.7083 117.942 20.025C118.492 20.3417 119.042 20.5 119.592 20.5C120.559 20.5 121.317 20.4 121.867 20.2L122.142 20.1C122.542 19.9167 122.876 19.825 123.142 19.825C123.676 19.825 124.134 20.2 124.517 20.95C124.734 21.4 124.842 21.7833 124.842 22.1C124.842 23.5833 123.067 24.325 119.517 24.325C118.284 24.325 117.184 24.1167 116.217 23.7C115.267 23.2667 114.526 22.7 113.992 22C112.942 20.65 112.417 19.1417 112.417 17.475C112.417 15.375 113.092 13.7 114.442 12.45C115.809 11.1833 117.509 10.55 119.542 10.55C121.859 10.55 123.559 11.3667 124.642 13C125.209 13.8667 125.492 14.8167 125.492 15.85ZM120.217 16.575C120.851 16.575 121.167 16.3083 121.167 15.775C121.167 15.3917 121.017 15.0833 120.717 14.85C120.434 14.6167 120.017 14.5 119.467 14.5C118.934 14.5 118.401 14.725 117.867 15.175C117.334 15.6083 117.067 16.075 117.067 16.575H120.217ZM136.074 10.975C136.39 11.075 136.649 11.25 136.849 11.5C137.065 11.7333 137.174 12.1167 137.174 12.65C137.174 13.1833 137.015 13.7667 136.699 14.4C136.382 15.0333 135.924 15.35 135.324 15.35C135.024 15.35 134.732 15.2833 134.449 15.15C134.182 15.0167 133.824 14.95 133.374 14.95C132.924 14.95 132.499 15.1083 132.099 15.425C131.715 15.7417 131.524 16.125 131.524 16.575V21.825C131.524 22.2083 131.507 22.5 131.474 22.7C131.457 22.8833 131.382 23.1 131.249 23.35C130.999 23.7833 130.349 24 129.299 24C128.499 24 127.924 23.8583 127.574 23.575C127.307 23.3417 127.157 22.9833 127.124 22.5C127.124 22.3333 127.124 22.0917 127.124 21.775V13C127.124 12.6167 127.132 12.3333 127.149 12.15C127.182 11.95 127.257 11.7333 127.374 11.5C127.607 11.05 128.257 10.825 129.324 10.825C130.324 10.825 130.949 11.0167 131.199 11.4C131.382 11.6667 131.474 11.9417 131.474 12.225C131.557 12.1083 131.674 11.9667 131.824 11.8C131.99 11.6333 132.332 11.4083 132.849 11.125C133.365 10.8417 133.815 10.7 134.199 10.7C134.599 10.7 134.932 10.725 135.199 10.775C135.465 10.8083 135.757 10.875 136.074 10.975ZM146.707 6.975L153.457 20.925C153.741 21.4917 153.882 21.9167 153.882 22.2C153.882 22.8 153.399 23.3417 152.432 23.825C151.866 24.1083 151.416 24.25 151.082 24.25C150.766 24.25 150.499 24.175 150.282 24.025C150.082 23.875 149.932 23.7167 149.832 23.55C149.749 23.3833 149.624 23.1333 149.457 22.8L148.157 20.1H141.232L139.932 22.8C139.766 23.1333 139.632 23.375 139.532 23.525C139.449 23.675 139.299 23.8333 139.082 24C138.882 24.15 138.616 24.225 138.282 24.225C137.966 24.225 137.524 24.0833 136.957 23.8C135.991 23.3333 135.507 22.8 135.507 22.2C135.507 21.9167 135.649 21.4917 135.932 20.925L142.682 6.95C142.866 6.56667 143.141 6.25833 143.507 6.025C143.891 5.79167 144.291 5.675 144.707 5.675C145.607 5.675 146.274 6.10833 146.707 6.975ZM144.682 12.975L143.032 16.4H146.357L144.682 12.975ZM155.249 27.575V12.975C155.249 12.5917 155.257 12.3083 155.274 12.125C155.307 11.9417 155.382 11.7333 155.499 11.5C155.732 11.05 156.29 10.825 157.174 10.825C158.057 10.825 158.649 10.9417 158.949 11.175C159.265 11.3917 159.449 11.7167 159.499 12.15C160.132 11.2833 161.124 10.85 162.474 10.85C163.84 10.85 165.132 11.4917 166.349 12.775C167.565 14.0583 168.174 15.55 168.174 17.25C168.174 18.95 167.565 20.4417 166.349 21.725C165.149 23.0083 163.865 23.65 162.499 23.65C161.132 23.65 160.14 23.2667 159.524 22.5V27.55C159.524 27.9333 159.507 28.2167 159.474 28.4C159.457 28.5833 159.382 28.7917 159.249 29.025C159.132 29.275 158.924 29.45 158.624 29.55C158.324 29.65 157.915 29.7 157.399 29.7C156.882 29.7 156.465 29.65 156.149 29.55C155.849 29.45 155.632 29.2833 155.499 29.05C155.382 28.8167 155.307 28.6083 155.274 28.425C155.257 28.2417 155.249 27.9583 155.249 27.575ZM160.199 15.8C159.815 16.25 159.624 16.7417 159.624 17.275C159.624 17.8083 159.815 18.3 160.199 18.75C160.599 19.1833 161.099 19.4 161.699 19.4C162.315 19.4 162.832 19.1833 163.249 18.75C163.682 18.3167 163.899 17.825 163.899 17.275C163.899 16.725 163.699 16.2333 163.299 15.8C162.899 15.35 162.374 15.125 161.724 15.125C161.09 15.125 160.582 15.35 160.199 15.8ZM169.799 27.575V12.975C169.799 12.5917 169.808 12.3083 169.824 12.125C169.858 11.9417 169.933 11.7333 170.049 11.5C170.283 11.05 170.841 10.825 171.724 10.825C172.608 10.825 173.199 10.9417 173.499 11.175C173.816 11.3917 173.999 11.7167 174.049 12.15C174.683 11.2833 175.674 10.85 177.024 10.85C178.391 10.85 179.683 11.4917 180.899 12.775C182.116 14.0583 182.724 15.55 182.724 17.25C182.724 18.95 182.116 20.4417 180.899 21.725C179.699 23.0083 178.416 23.65 177.049 23.65C175.683 23.65 174.691 23.2667 174.074 22.5V27.55C174.074 27.9333 174.058 28.2167 174.024 28.4C174.008 28.5833 173.933 28.7917 173.799 29.025C173.683 29.275 173.474 29.45 173.174 29.55C172.874 29.65 172.466 29.7 171.949 29.7C171.433 29.7 171.016 29.65 170.699 29.55C170.399 29.45 170.183 29.2833 170.049 29.05C169.933 28.8167 169.858 28.6083 169.824 28.425C169.808 28.2417 169.799 27.9583 169.799 27.575ZM174.749 15.8C174.366 16.25 174.174 16.7417 174.174 17.275C174.174 17.8083 174.366 18.3 174.749 18.75C175.149 19.1833 175.649 19.4 176.249 19.4C176.866 19.4 177.383 19.1833 177.799 18.75C178.233 18.3167 178.449 17.825 178.449 17.275C178.449 16.725 178.249 16.2333 177.849 15.8C177.449 15.35 176.924 15.125 176.274 15.125C175.641 15.125 175.133 15.35 174.749 15.8Z" fill="#0066FF"/>
<path d="M16.5965 2.22768L15 6.91193L13.4035 2.22768C13.3174 1.97398 13.293 1.70342 13.3323 1.43841C13.3717 1.17341 13.4736 0.921594 13.6296 0.703836C13.7857 0.486078 13.9914 0.308647 14.2297 0.186246C14.468 0.0638459 14.7321 0 15 0C15.2679 0 15.532 0.0638459 15.7703 0.186246C16.0086 0.308647 16.2143 0.486078 16.3704 0.703836C16.5264 0.921594 16.6283 1.17341 16.6677 1.43841C16.707 1.70342 16.6826 1.97398 16.5965 2.22768ZM2.22768 13.4035L6.91193 15L2.22768 16.5965C1.97398 16.6826 1.70342 16.707 1.43841 16.6677C1.17341 16.6283 0.921594 16.5264 0.703836 16.3704C0.486078 16.2143 0.308647 16.0086 0.186246 15.7703C0.0638459 15.532 0 15.2679 0 15C0 14.7321 0.0638459 14.468 0.186246 14.2297C0.308647 13.9914 0.486078 13.7857 0.703836 13.6296C0.921594 13.4736 1.17341 13.3717 1.43841 13.3323C1.70342 13.293 1.97398 13.3174 2.22768 13.4035ZM13.4035 27.7723L15 23.0881L16.5965 27.7723C16.6826 28.026 16.707 28.2966 16.6677 28.5616C16.6283 28.8266 16.5264 29.0784 16.3704 29.2962C16.2143 29.5139 16.0086 29.6914 15.7703 29.8138C15.532 29.9362 15.2679 30 15 30C14.7321 30 14.468 29.9362 14.2297 29.8138C13.9914 29.6914 13.7857 29.5139 13.6296 29.2962C13.4736 29.0784 13.3717 28.8266 13.3323 28.5616C13.293 28.2966 13.3174 28.026 13.4035 27.7723ZM27.7723 16.5933L23.0881 14.9968L27.7723 13.4003C28.026 13.3142 28.2966 13.2898 28.5616 13.3291C28.8266 13.3685 29.0784 13.4704 29.2962 13.6265C29.5139 13.7825 29.6914 13.9882 29.8138 14.2265C29.9362 14.4648 30 14.7289 30 14.9968C30 15.2647 29.9362 15.5288 29.8138 15.7671C29.6914 16.0054 29.5139 16.2111 29.2962 16.3672C29.0784 16.5232 28.8266 16.6251 28.5616 16.6645C28.2966 16.7038 28.026 16.6794 27.7723 16.5933ZM7.09713 4.83962L9.2796 9.2796L4.83962 7.09713C4.59834 6.97907 4.38872 6.80511 4.2282 6.58972C4.06769 6.37434 3.9609 6.12375 3.91674 5.85878C3.87257 5.59382 3.89229 5.32214 3.97427 5.06633C4.05624 4.81053 4.1981 4.57798 4.38804 4.38804C4.57798 4.1981 4.81053 4.05624 5.06633 3.97427C5.32214 3.89229 5.59382 3.87257 5.85878 3.91674C6.12375 3.9609 6.37434 4.06769 6.58972 4.2282C6.80511 4.38872 6.97907 4.59834 7.09713 4.83962ZM4.83962 22.9013L9.2796 20.7188L7.09713 25.1588C6.97907 25.4001 6.80511 25.6097 6.58972 25.7702C6.37434 25.9307 6.12375 26.0375 5.85878 26.0817C5.59382 26.1258 5.32214 26.1061 5.06633 26.0241C4.81053 25.9422 4.57798 25.8003 4.38804 25.6104C4.1981 25.4204 4.05624 25.1879 3.97427 24.9321C3.89229 24.6763 3.87257 24.4046 3.91674 24.1396C3.9609 23.8747 4.06769 23.6241 4.2282 23.4087C4.38872 23.1933 4.59834 23.0193 4.83962 22.9013ZM22.9013 25.1588L20.7188 20.7188L25.1588 22.9013C25.4001 23.0193 25.6097 23.1933 25.7702 23.4087C25.9307 23.6241 26.0375 23.8747 26.0817 24.1396C26.1258 24.4046 26.1061 24.6763 26.0241 24.9321C25.9422 25.1879 25.8003 25.4204 25.6104 25.6104C25.4204 25.8003 25.1879 25.9422 24.9321 26.0241C24.6763 26.1061 24.4046 26.1258 24.1396 26.0817C23.8747 26.0375 23.6241 25.9307 23.4087 25.7702C23.1933 25.6097 23.0193 25.4001 22.9013 25.1588ZM25.1572 7.09393L20.7156 9.278L22.8997 4.83643C23.0177 4.59514 23.1917 4.38553 23.4071 4.22501C23.6225 4.06449 23.8731 3.95771 24.138 3.91354C24.403 3.86938 24.6747 3.8891 24.9305 3.97107C25.1863 4.05305 25.4188 4.1949 25.6088 4.38485C25.7987 4.57479 25.9406 4.80733 26.0225 5.06314C26.1045 5.31895 26.1242 5.59063 26.0801 5.85559C26.0359 6.12055 25.9291 6.37115 25.7686 6.58653C25.6081 6.80192 25.3985 6.97587 25.1572 7.09393ZM15 22.1844C11.039 22.1844 7.81557 18.961 7.81557 15C7.81557 11.039 11.039 7.81557 15 7.81557C18.961 7.81557 22.1844 11.039 22.1844 15C22.1844 18.961 18.961 22.1844 15 22.1844ZM15 11.0086C12.7984 11.0086 11.0086 12.7984 11.0086 15C11.0086 17.2016 12.7984 18.9914 15 18.9914C17.2016 18.9914 18.9914 17.2016 18.9914 15C18.9914 12.7984 17.2016 11.0086 15 11.0086Z" fill="#0066FF"/>
</svg>
