<svg width="548" height="501" viewBox="0 0 548 501" fill="#0066ff" xmlns="http://www.w3.org/2000/svg">
<g id="map">
<path id="mazowieckie" d="M487.67 215.694C486.732 215.694 485.237 215.414 484.342 214.598C481.252 211.773 477.45 211.442 473.609 211.608C464.325 212.01 457.437 207.225 450.908 201.695C448.677 199.805 448.018 197.19 448.796 194.335C449.361 192.262 449.979 190.204 450.569 188.138C450.922 186.902 450.979 185.677 450.06 184.649C448.693 183.121 448.154 181.293 448.123 179.345C448.094 177.579 447.144 176.839 445.55 176.692C444.229 176.571 442.896 176.597 441.572 176.514C439.818 176.404 438.015 176.075 436.936 174.655C434.966 172.064 432.314 171.327 429.224 170.992C422.8 170.295 415.8 163.69 414.933 157.445C414.617 155.162 413.665 153.385 412.228 151.735C410.184 149.388 407.923 147.235 405.18 145.724C402.982 144.513 401.966 142.756 401.576 140.422C400.701 135.176 400.606 129.871 400.254 124.587C399.915 119.485 400.009 119.514 394.862 119.753C391.567 119.905 388.115 119.927 385.323 121.645C382.293 123.509 379.165 124.019 375.768 124.107C373.185 124.174 370.498 124.33 368.48 126.136C365.929 128.417 362.956 129.506 359.625 129.918C357.859 130.137 356.015 130.683 355.28 132.282C353.702 135.719 350.839 136.166 347.562 136.23C339.434 136.388 339.88 135.712 336.176 143.134C334.89 145.71 332.93 146.887 330.067 146.955C325.744 147.057 321.368 146.937 317.336 145.491C311.901 143.542 307.072 145.032 302.159 146.955C300.628 147.554 299.749 148.624 299.673 150.253C299.561 152.629 299.434 155.006 299.418 157.384C299.402 159.78 298.45 161.295 295.923 161.789C293.893 162.186 292.286 163.232 291.849 165.41C291.445 167.424 290.268 168.519 288.163 168.581C287.002 168.616 286.155 169.148 285.925 170.245C285.537 172.097 285.637 173.952 286.83 175.537C289.476 179.053 289.107 183.514 285.799 186.391C282.905 188.91 281.521 192.178 280.79 195.788C280.568 196.882 280.836 197.864 281.495 198.83C283.757 202.137 282.988 205.645 279.627 207.72C276.657 209.554 276.466 211.173 279.166 213.41C282.403 216.092 286.015 218.231 289.906 219.882C291.965 220.755 294.127 220.885 296.342 220.581C301.063 219.933 305.799 219.456 310.567 219.296C318.418 219.032 318.809 219.24 321.298 226.5C322.272 229.342 323.937 231.614 326.734 232.792C329.597 233.997 330.63 236.099 330.685 238.955C330.732 241.331 330.747 243.704 331.205 246.066C331.637 248.288 332.674 249.559 335.094 249.942C340.611 250.815 346.156 250.687 351.694 250.594C353.442 250.564 353.967 251.201 354.222 252.71C354.681 255.425 355.006 258.24 356.715 260.539C360.089 265.074 357.64 272.637 352.233 274.304C350.324 274.893 348.351 274.648 346.433 274.98C345.237 275.187 343.686 275.003 343.243 276.423C342.845 277.699 344.063 278.469 344.897 279.245C346.048 280.318 347.157 281.48 347.565 282.972C348.282 285.596 348.352 288.432 350.656 290.435C350.936 290.679 350.929 291.296 350.964 291.747C351.178 294.473 350.112 296.128 347.448 297.303C346.151 297.874 344.73 298.447 344.794 300.14C344.852 301.684 346.254 301.966 347.435 302.345C349.424 302.984 350.78 304.242 351.472 306.192C352.266 308.432 353.775 309.931 356.078 310.751C357.998 311.435 359.771 312.489 361.192 313.929C365.173 317.966 369.493 318.946 374.692 316.102C377.4 314.62 380.755 315.504 381.829 317.965C383.132 320.95 385.573 322.142 388.358 323.038C391.568 324.071 394.678 325.211 397.084 327.716C398.404 329.09 399.82 328.653 400.948 327.427C402.529 325.707 404.532 325.044 406.773 324.872C408.641 324.727 410.513 324.634 412.383 324.519C415.915 324.303 416.679 323.506 417.127 320.135C418.371 310.776 417.71 301.436 416.946 292.094C416.708 289.183 415.445 286.845 412.999 285.091C410.706 283.445 409.22 281.216 408.763 278.425C408.316 275.701 409.633 273.718 412.356 273.547C416.805 273.265 418.77 270.543 419.852 266.802C420.671 263.966 420.522 261.016 420.76 258.112C420.916 256.195 420.914 254.115 422.167 252.612C423.529 250.977 423.294 249.967 421.937 248.506C419.46 245.839 420.313 243.12 423.815 241.981C425.442 241.452 427.299 241.332 428.699 240.472C431.168 238.956 433.805 238.747 436.536 238.628C439.111 238.516 441.687 238.399 444.263 238.265C445.435 238.204 446.876 238.27 447.609 237.484C449.026 235.966 450.74 235.933 452.525 235.849C454.869 235.738 456.815 235.15 457.514 232.555C457.758 231.645 458.574 231.068 459.562 230.834C462.526 230.135 465.695 229.892 468.25 231.384C470.828 232.891 472.289 231.852 473.944 230.373C476.462 228.123 478.203 225.295 479.916 222.449C481.736 219.428 484.099 217.092 487.837 216.55C488.607 216.616 488.927 216.504 488.89 216.035C488.847 215.461 488.608 215.694 487.67 215.694Z"/>
<path id="wielkopolskie" d="M180.694 291.646C183.249 289.983 182.908 287.774 182.429 285.667C181.645 282.222 179.376 279.855 176.237 278.281C173.76 277.04 171.689 278.066 169.81 279.619C167.51 281.521 165.082 283.064 162.018 283.566C157.263 284.344 152.88 283.165 148.594 281.378C145.274 279.993 142.222 278.128 139.349 275.998C137.158 274.375 135.404 272.579 134.524 269.753C133.538 266.593 130.945 264.221 128.618 261.834C126.129 259.283 123.686 256.699 121.638 253.779C120.658 252.381 119.745 250.95 119.354 249.279C118.873 247.227 117.531 246.601 115.536 246.831C113.211 247.1 110.881 247.323 108.549 247.531C107.377 247.636 106.238 247.355 105.863 246.157C104.532 241.897 101.524 238.751 98.1221 236.262C91.8996 231.711 90.3734 226.077 92.5282 219.054C93.0214 217.447 93.1436 215.734 93.5584 214.1C94.4062 210.754 94.2083 207.747 91.3297 205.279C90.0852 204.212 90.1241 202.865 91.2776 201.629C92.6262 200.183 92.7687 198.537 92.2887 196.69C91.3412 193.041 90.1679 189.471 88.5256 186.07C87.7567 184.477 87.8477 183.219 89.1908 181.937C90.9395 180.269 91.51 177.977 92.0744 175.745C92.7123 173.22 93.874 171.283 96.1351 169.607C99.8155 166.879 101.174 162.688 101.496 158.276C101.803 154.06 101.73 154.264 106.044 153.657C113.542 152.602 119.841 149.455 123.776 142.714C124.537 141.41 125.473 140.355 127.121 140.084C127.706 139.988 128.283 139.629 128.781 139.276C132.626 136.555 135.87 133.247 138.377 129.299C139.957 126.809 139.253 124.704 136.511 123.509C134.103 122.462 132.056 120.991 130.348 119.044C130.054 118.708 129.549 118.402 129.71 117.9C129.934 117.203 130.629 117.468 131.117 117.458C133.974 117.398 136.69 116.835 139.19 115.424C142.769 113.405 145.303 110.67 145.549 106.391C145.654 104.55 146.259 104.207 147.773 105.471C150.27 107.557 152.782 109.627 155.529 111.409C159.203 113.792 163.157 114.861 167.539 114.117C169.106 113.851 170.659 113.835 172.179 114.296C174.035 114.86 174.314 115.963 173.005 117.347C168.029 122.605 168.435 126.597 174.392 131.006C177.73 133.477 177.616 135.736 173.86 137.514C171.574 138.596 170.372 140.232 170.004 142.593C169.34 146.849 168.951 151.122 168.958 155.435C168.964 158.765 170.413 161.142 173.389 162.698C175.106 163.596 176.926 164.343 178.385 165.661C181.045 168.065 181.006 170.724 178.068 172.798C175.934 174.304 174.387 176.072 173.898 178.65C173.171 182.488 175.321 185.352 179.278 185.715C181.067 185.88 182.875 185.95 184.645 185.545C186.119 185.207 186.793 185.74 187.059 187.194C188.141 193.096 189.651 193.698 194.855 190.399C196.76 189.191 197.905 189.423 199.128 191.348C199.58 192.058 200.054 192.812 200.252 193.611C201.06 196.869 203.442 198.337 206.465 199.192C209.695 200.107 212.705 201.354 215.484 203.377C218.187 205.346 221.521 205.164 224.72 204.343C225.597 204.118 226.071 203.524 226.314 202.569C226.794 200.685 227.706 200.452 229.278 201.685C229.76 202.063 230.203 202.524 230.554 203.022C232.056 205.151 234.136 206.154 236.733 206.164C239.527 206.175 241.314 207.373 242.495 209.976C244.918 215.309 248.89 217.236 255.059 216.517C256.683 216.327 258.325 216.146 259.954 216.172C262.45 216.212 263.179 217.049 262.799 219.515C262.285 222.851 260.977 225.936 258.437 228.236C256.483 230.005 255.28 232.03 254.931 234.538C254.635 236.664 253.477 238.094 251.396 238.224C245.948 238.568 242.539 244.173 244.239 250.661C244.278 250.809 244.358 250.946 244.404 251.092C246.001 256.144 244.137 258.845 238.578 259.449C236.945 259.627 235.317 259.473 233.683 259.201C229.588 258.52 227.693 259.688 226.59 263.649C225.196 268.651 225.225 273.828 224.856 278.95C224.526 283.544 224.227 288.137 223.586 292.707C223.322 294.583 222.286 295.084 220.916 294.159C216.792 291.376 214.099 293.302 211.424 296.415C209.886 298.204 208.151 299.91 205.643 300.539C204.167 300.91 204.372 302.136 205.068 302.895C207.638 305.699 209.024 309.084 210.373 312.518C210.657 313.238 211.232 313.766 212.09 313.947C212.764 314.088 213.159 314.55 213.126 315.278C213.091 316.025 212.563 316.415 211.936 316.508C210.218 316.759 208.981 317.802 207.671 318.773C206.267 319.815 204.62 320.279 202.894 320.505C199.502 320.95 198.143 320.21 196.985 317.044C194.861 311.236 193.802 305.184 193.086 299.086C192.749 296.213 191.314 294.695 188.531 294.055C185.973 293.468 183.359 292.985 180.694 291.646Z"/>
<path id="lubelskie" d="M514.646 240.964C514.343 244.18 513.927 247.395 514.481 250.615C514.56 251.069 514.46 251.66 514.716 251.96C516.76 254.343 515.406 256.066 513.783 257.934C512.708 259.172 512.449 260.855 512.269 262.466C511.877 265.987 511.83 269.508 512.177 273.043C512.4 275.304 513.174 277.282 515.041 278.615C518.047 280.762 519.192 283.7 519.176 287.19C519.121 298.877 519.478 299.046 526.251 306.435C530.313 310.866 533.439 316.119 535.736 321.691C536.77 324.2 537.758 326.479 539.975 328.29C541.954 329.907 542.987 332.353 544.131 334.631C544.933 336.229 544.636 337.493 543.388 338.783C540.619 341.642 540.468 343.101 542.525 346.528C543.753 348.574 545.163 350.513 546.439 352.532C548.098 355.158 548.334 358.006 547.619 360.961C546.93 363.805 546.034 366.592 544.469 369.095C542.692 371.934 540.436 374.17 536.749 374.406C535.286 374.5 534.138 375.384 533.014 376.207C528.356 379.621 524.265 383.615 520.566 388.011C518.688 390.243 518.203 390.292 515.701 388.656C514.662 387.977 513.607 387.304 512.651 386.519C508.271 382.929 503.159 382.144 497.685 382.593C495.209 382.796 493.349 383.948 492.268 386.085C490.493 389.594 487.626 390.771 483.806 390.474C481.468 390.293 479.113 390.215 476.86 389.573C470.849 387.861 464.762 386.689 458.501 386.27C456.095 386.108 453.388 385.503 452.742 382.763C452.042 379.795 454.614 378.456 456.705 377.152C458.612 375.963 460.676 375.015 462.306 373.425C464.24 371.538 464.486 370.184 462.988 367.909C460.831 364.632 457.704 362.773 453.751 362.304C453.133 362.231 452.502 362.278 451.878 362.236C446.696 361.892 444.219 359.529 443.883 354.438C443.731 352.142 443.788 349.832 443.81 347.528C443.819 346.619 443.657 346.093 442.547 346.145C439.823 346.27 437.085 345.977 434.369 346.5C433.205 346.725 432.166 347.035 431.174 347.759C428.601 349.639 426.771 349.273 425.219 346.51C422.487 341.647 421.619 336.243 420.915 330.838C420.088 324.485 420.188 318.123 421.239 311.787C421.466 310.418 421.73 309.098 422.65 307.951C423.501 306.894 423.293 305.586 423.047 304.395C422.036 299.513 420.982 294.639 419.883 289.775C419.133 286.457 417.566 283.598 414.714 281.537C414.588 281.446 414.467 281.346 414.361 281.234C413.328 280.14 411.639 279.191 412.251 277.466C412.806 275.904 414.6 276.241 415.957 276.139C419.184 275.895 421.001 273.946 422.146 271.237C423.367 268.347 423.456 265.262 423.573 262.189C423.678 259.439 423.936 256.859 425.586 254.332C427.103 252.011 426.79 249.075 425.155 246.697C424.443 245.662 424.409 245.369 425.579 245.054C431.524 243.457 437.119 240.507 443.614 241.06C446.504 241.305 449.352 240.969 452.073 239.266C454.148 237.967 456.947 238.56 459.433 238.403C462.235 238.227 462.349 238.113 461.784 235.392C461.625 234.623 461.373 233.747 462.279 233.369C463.529 232.848 464.879 233.123 465.758 234.052C467.437 235.827 469.47 235.8 471.599 235.542C474.007 235.25 476.063 234.286 477.65 232.405C479.301 230.448 480.687 228.322 482.048 226.169C482.786 225 483.559 223.826 484.49 222.806C487.581 219.421 491.222 218.78 495.226 220.993C497.554 222.279 499.873 223.436 502.556 223.864C504.351 224.151 505.849 225.221 507.315 226.245C508.587 227.135 509.711 228.399 511.12 228.896C514.47 230.075 514.886 232.482 514.669 235.437C514.536 237.271 514.646 239.121 514.646 240.964Z"/>
<path id="warm-maz" d="M454.561 36.4807C451.914 38.7322 449.687 40.5223 447.579 42.4383C442.865 46.7238 442.766 50.0541 447.333 54.5368C449.74 56.8996 451.092 59.6012 450.999 62.9402C450.893 66.7321 451.879 69.8863 455.635 71.7481C457.469 72.6569 457.331 74.3258 456.815 75.9775C455.048 81.6339 451.588 86.1909 446.637 89.3676C440.993 92.9899 436.185 97.347 432.085 102.562C429.865 105.385 426.859 107.072 423.315 107.938C414.158 110.178 405.426 113.844 396.195 115.833C392.465 116.637 388.401 116.604 385.008 118.093C379.856 120.354 374.664 121.603 369.095 121.874C367.378 121.957 365.907 123.009 364.624 124.21C362.938 125.787 360.951 126.577 358.578 126.889C355.248 127.327 351.878 128.021 350.831 132.023C350.598 132.915 349.606 133.157 348.724 133.228C346.779 133.386 344.833 133.541 342.884 133.624C338.186 133.821 334.928 135.914 333.263 140.345C331.973 143.776 331.09 144.296 327.331 144.215C326.475 144.196 325.607 144.143 324.77 143.982C319.196 142.908 313.702 141.669 307.906 141.768C303.2 141.848 300.502 138.745 300.302 134.107C300.195 131.635 298.873 130.163 296.915 128.975C293.388 126.835 289.605 125.188 285.906 123.378C283.533 122.218 281.198 120.983 278.849 119.776C276.537 118.588 275.45 116.703 275.548 114.146C275.56 113.84 275.543 113.531 275.539 113.224C275.466 108.099 275.252 107.818 270.272 106.332C267.136 105.397 266.722 104.166 268.699 101.587C269.754 100.209 271.093 99.1695 272.735 98.5424C275.636 97.4348 277.536 95.4922 278.186 92.434C278.612 90.4246 279.922 89.5901 281.943 88.899C287.383 87.0366 291.325 83.1924 294.078 78.2993C295.18 76.3389 294.056 74.2638 291.857 73.181C289.948 72.2404 287.835 71.9829 285.796 71.4911C283.561 70.9524 282.059 69.7031 281.347 67.5262C280.599 65.2361 279.448 63.2203 277.668 61.4803C275.567 59.4256 276.048 55.8696 278.529 54.1333C279.423 53.507 279.58 52.6463 279.665 51.7473C279.839 49.913 279.983 48.0722 280.036 46.2309C280.093 44.2136 281.096 43.3312 283.116 43.3354C287.155 43.3441 290.734 41.8855 294.087 39.8193C295.699 38.8268 297.116 37.6779 297.422 35.6158C297.653 34.0577 299.029 34.1185 300.176 34.1139C305.107 34.095 310.005 34.6403 314.889 35.2023C328.147 36.7274 341.275 39.249 354.586 40.3527C369.015 41.549 383.471 41.1627 397.922 40.7971C416.295 40.3324 434.483 37.5848 452.811 36.5872C453.197 36.5674 453.582 36.5411 454.561 36.4807Z"/>
<path id="zach-pom" d="M102.866 143.751C103.15 138.835 103.15 138.829 98.1791 138.886C97.3214 138.896 96.4644 138.994 95.6068 139.016C93.7847 139.062 93.029 139.976 92.8876 141.755C92.4958 146.688 92.3927 146.769 87.3024 147.612C85.4578 147.918 83.5897 148.237 81.7281 148.261C78.4335 148.304 75.3505 148.735 72.9212 151.209C72.6642 151.471 72.2587 151.708 71.9008 151.742C67.7294 152.134 65.0766 154.952 62.0149 157.32C57.7027 160.654 52.4727 161.216 47.1069 160.816C40.8243 160.346 36.4288 163.734 34.8892 169.835C33.6174 174.873 30.6606 178.455 25.1472 179.441C24.6909 179.522 24.1253 179.596 23.8332 179.888C21.2108 182.511 20.0374 180.488 18.2854 178.615C13.6883 173.703 8.66151 169.177 4.05873 164.269C-1.07445 158.796 -1.57482 159.192 3.91805 154C11.0457 147.262 14.7523 138.802 18.8069 130.39C19.9816 127.954 20.3451 125.445 19.4972 122.793C16.9574 114.851 16.1212 106.584 14.7856 98.4131C14.1905 94.7719 13.2381 91.2509 11.8167 87.8075C10.0281 83.4752 10.8877 79.047 12.1013 74.7158C12.4952 73.3098 13.8336 73.0786 15.1078 72.9321C27.8047 71.4738 39.5938 67.2913 50.8806 61.533C56.5519 58.6396 62.798 57.5212 68.974 56.2386C73.627 55.2716 78.3141 54.4565 82.9447 53.4C85.9877 52.7057 88.868 51.568 91.3811 49.5976C93.4707 47.9588 96.0408 47.4415 98.6558 47.4701C112.086 47.6167 121.878 41.6693 128.79 30.5318C131.362 26.3879 135.62 24.3581 140.305 23.2678C142.426 22.7745 143.42 24.2728 144.186 25.8624C146.166 29.969 146.519 34.4236 146.936 38.852C147.072 40.3005 146.998 41.7674 147.029 43.2261C147.069 45.035 146.293 46.3549 144.564 47.017C139.928 48.7909 139.653 54.1107 142.571 56.9028C145.845 60.0365 145.988 63.585 145.354 67.4911C144.864 70.5047 145.104 73.007 148.335 74.6878C150.397 75.7603 150.967 78.0041 150.802 80.3017C150.736 81.2148 150.389 82.0611 149.444 82.2437C147.568 82.6057 147.222 84.0306 146.986 85.469C146.33 89.4802 145.785 93.5087 145.154 97.5242C144.926 98.9685 144.531 100.337 143.302 101.375C142.574 101.99 142.254 102.982 142.324 103.893C142.79 109.941 136.729 114.348 130.083 114.712C128.999 114.771 127.879 114.783 126.846 115.066C124.677 115.661 124.144 116.986 125.225 118.915C126.268 120.776 127.927 122.08 129.644 123.295C131.353 124.505 133.084 125.69 134.856 126.808C135.834 127.425 136.245 127.852 135.109 128.781C131.173 131.997 127.908 136.062 122.86 137.86C121.815 138.232 121.285 139.299 120.754 140.251C117.758 145.628 112.773 148.549 107.171 150.529C104.21 151.576 102.747 150.337 102.686 147.201C102.666 146.052 102.802 144.9 102.866 143.751Z"/>
<path id="podlaskie" d="M445.966 48.7498C449.784 45.3093 453.659 42.4276 456.986 38.9572C458.215 37.6742 459.514 36.4438 460.299 34.8132C461.277 32.7839 462.985 32.3952 465.011 32.8867C465.761 33.0688 466.596 33.2744 467.171 33.7358C471.23 36.991 476.039 39.0752 480.315 41.9786C482.253 43.2952 484.131 44.5335 486.597 44.812C488.445 45.0208 489.833 46.307 490.941 47.7389C494.966 52.9422 496.909 58.7921 496.46 65.3579C496.382 66.5075 496.275 67.656 496.238 68.8067C496.195 70.1335 496.456 71.0596 497.825 72.0147C500.362 73.7827 500.505 76.9148 500.922 79.6935C501.31 82.2755 501.239 84.8995 500.757 87.4961C500.272 90.104 500.63 92.477 502.49 94.6022C503.932 96.2502 504.669 98.3398 505.151 100.434C506.211 105.045 508.078 109.314 510.447 113.398C511.963 116.013 513.153 118.736 513.574 121.761C513.84 123.675 514.659 125.438 515.511 127.163C521.445 139.172 524.534 151.945 526.059 165.134C526.379 167.904 526.076 170.647 525.498 173.371C524.569 177.753 522.176 180.846 517.786 182.437C509.916 185.286 503.831 190.423 498.953 197.03C498.635 197.462 498.187 197.932 498.149 198.411C497.759 203.417 493.264 206.152 491.349 210.349C489.949 213.415 488.614 213.395 486.016 211.066C484.731 209.914 483.199 209.44 481.555 209.26C479.772 209.064 477.968 208.816 476.185 208.892C466.415 209.305 459.446 203.793 452.629 198.095C450.529 196.339 452.136 191.178 455.086 190.226C457.168 189.554 456.93 188.408 456.33 187.085C455.797 185.908 455.048 184.801 454.257 183.765C452.539 181.516 451.171 179.142 451.023 176.259C450.943 174.695 450.13 173.858 448.571 173.718C446.861 173.565 445.15 173.415 443.437 173.313C441.696 173.207 440.357 172.827 440.553 170.634C440.728 168.679 439.164 168.68 437.836 168.654C433.808 168.577 429.901 168.077 426.353 165.998C421.546 163.182 418.135 159.424 417.661 153.671C417.519 151.948 416.479 150.682 415.452 149.441C413.371 146.922 411.007 144.632 408.121 143.061C405.716 141.752 404.75 139.804 404.405 137.325C403.505 130.847 403.346 124.316 402.916 117.804C402.84 116.644 403.191 116.257 404.404 116.07C408.7 115.408 413.018 114.902 416.964 112.745C419.064 111.597 421.625 111.497 424.015 111.193C427.746 110.719 430.865 109.153 433.454 106.551C435.803 104.192 438.064 101.747 440.362 99.3386C442.911 96.666 445.55 94.2946 448.959 92.4582C453.917 89.7862 456.988 85.0698 459.254 79.9757C459.658 79.0675 459.938 78.1016 460.227 77.1475C461.722 72.2032 461.416 71.2314 457.29 68.1845C455.356 66.7558 454.29 64.8235 454.034 62.5382C453.397 56.8172 451.741 51.6933 445.966 48.7498Z"/>
<path id="dolnoslaskie" d="M119.911 258.515C123.252 262.049 126.722 265.058 129.468 268.721C130.619 270.258 131.776 271.801 132.075 273.797C132.24 274.891 132.976 275.77 133.806 276.474C141.556 283.044 150.214 287.308 160.79 286.759C165.248 286.527 169.044 284.588 172.703 282.366C174.116 281.508 175.04 281.539 176.045 282.824C176.66 283.609 177.461 284.252 178.16 284.975C179.258 286.112 180.018 286.96 178.195 288.455C175.833 290.391 176.759 294.04 179.691 295.092C181.806 295.851 184.02 296.357 186.21 296.9C188.541 297.479 189.793 298.89 190.042 301.237C190.44 304.975 190.737 308.728 191.531 312.415C191.811 313.715 191.138 314.277 189.903 314.346C188.889 314.403 187.87 314.389 186.86 314.48C182.607 314.861 180.297 317.039 179.919 321.175C179.76 322.914 179.469 324.494 178.031 325.707C177.646 326.031 177.33 326.606 177.269 327.1C176.782 331.042 173.98 333.609 171.601 336.417C170.353 337.89 168.966 339.25 167.674 340.689C165.167 343.476 163.233 346.513 162.317 350.239C161.495 353.578 160.107 356.78 158.396 359.81C157.062 362.172 155.758 364.524 152.682 365.16C151.626 365.378 151.004 366.359 150.916 367.404C150.71 369.846 149.097 371.245 147.201 372.394C144.723 373.897 142.295 375.318 141.577 378.472C141.361 379.421 140.36 380.221 139.652 381.033C137.522 383.473 137.366 385.344 139.506 387.76C141.14 389.605 143.102 391.167 144.821 392.945C146.018 394.183 148.006 395.258 147.45 397.247C146.913 399.166 144.705 398.972 143.103 399.368C138.091 400.604 134.117 403.498 130.369 406.817C127.794 409.097 127.778 409.036 125.385 406.701C123.438 404.802 122.114 402.612 121.797 399.897C121.585 398.073 120.586 396.592 119.582 395.135C117.164 391.625 114.259 388.514 111.269 385.476C110.237 384.428 109.164 383.416 108.17 382.334C104.918 378.793 105.398 376.64 109.854 374.632C114.541 372.518 115.661 369.787 114.176 364.095C113.155 360.186 108.619 356.776 104.82 357.062C104.028 357.122 103.184 357.218 102.692 357.864C101.38 359.588 99.5511 359.696 97.6326 359.571C93.642 359.311 90.0313 357.968 86.7542 355.754C85.7196 355.055 84.5699 354.215 84.3819 352.998C84.0153 350.615 82.4009 350.324 80.4933 350.287C72.2953 350.13 65.6124 346.662 59.9614 341.075C57.1496 338.295 55.087 335.086 55.0853 330.947C55.0853 329.423 54.1837 328.653 52.6986 328.751C49.4886 328.961 46.5571 328.06 43.6125 326.946C39.044 325.217 36.2007 326.899 35.3641 331.655C35.2047 332.562 35.0776 333.476 34.9636 334.39C34.5552 337.659 31.7649 339.174 28.6918 337.81C27.8881 337.453 27.6634 336.863 27.9457 336.132C28.1919 335.495 28.5108 334.845 28.9531 334.329C32.5354 330.147 34.58 325.192 36.5946 320.183C38.3125 315.911 40.3707 311.774 42.2217 307.553C43.5427 304.54 44.2194 301.633 41.4751 298.82C40.1371 297.447 41.5735 293.661 43.7509 291.985C45.5737 290.582 46.9295 290.709 48.8095 292.567C49.5083 293.257 50.3121 293.633 51.25 293.816C55.8755 294.716 61.7463 290.757 62.4592 286.228C62.628 285.158 62.5989 283.902 64.0046 283.735C65.2803 283.584 65.8387 284.646 66.4053 285.597C67.3956 287.259 67.8712 289.52 70.4507 289.541C73.628 289.567 76.5225 288.776 78.4559 286.061C79.1173 285.133 79.5256 284.027 80.0204 282.99C80.8249 281.303 81.6496 279.437 83.3944 278.698C86.5065 277.378 87.4502 274.908 87.9675 272C88.1544 270.948 88.4689 269.914 88.7901 268.892C89.1167 267.851 89.7227 267.075 90.999 267.351C92.5285 267.682 92.9899 266.898 92.9406 265.6C92.8765 263.903 93.8941 262.94 95.228 262.142C97.8227 260.587 100.665 259.869 103.667 259.691C105.263 259.597 106.399 260.227 106.835 261.812C107.302 263.512 107.664 265.245 108.213 266.918C108.687 268.363 109.11 270.091 110.867 270.437C112.674 270.792 113.668 269.279 114.553 268.049C115.585 266.616 116.44 265.054 117.302 263.51C118.166 261.972 118.94 260.388 119.911 258.515Z"/>
<path id="pomorskie" d="M215.245 0.124488C218.915 0.124488 222.62 -0.1913 226.25 0.183036C237.79 1.37196 246.627 7.28617 253.766 15.9927C255.278 17.8367 255.528 19.8006 254.902 22.0273C254.304 24.1539 253.191 24.72 251.361 23.3822C249.615 22.1066 248.042 20.5908 246.465 19.1068C242.969 15.8162 239.76 12.2208 235.921 9.29432C234.897 8.51249 233.749 6.99209 232.292 8.16718C230.874 9.30956 231.719 10.8848 232.365 12.1816C233.784 15.0292 235.921 17.4043 237.882 19.8841C239.217 21.5714 240.022 23.3084 240.049 25.5378C240.088 28.7552 240.463 31.9749 241.685 35.0221C243.278 38.9941 246.016 40.8957 250.349 40.6076C256.494 40.1996 262.589 39.0397 268.793 39.5713C270.597 39.7261 272.369 39.9949 274.03 40.6827C276.676 41.7781 277.724 43.8581 277.145 46.6454C276.75 48.5434 275.944 50.285 275.019 51.9801C273.941 53.9529 273.072 56.0107 272.836 58.2518C272.571 60.7632 273.17 62.9795 275.44 64.5035C277.364 65.7942 278.447 67.6576 278.711 69.8642C279.014 72.4042 280.485 73.6508 282.858 74.1755C285.141 74.6797 287.416 75.2184 289.698 75.7253C291.349 76.0927 291.888 76.8432 290.564 78.1835C286.97 81.8219 283.409 85.5202 278.018 86.5561C276.393 86.868 275.662 88.0171 275.375 89.4387C274.701 92.7739 272.664 94.8194 269.478 95.9835C266.69 97.0022 265.203 99.0687 264.593 101.95C263.643 106.44 262.486 106.951 258.113 105.169C256.448 104.49 254.814 103.709 253.45 102.559C247.953 97.9299 241.365 96.2987 234.388 95.9668C230.829 95.7977 227.881 94.7827 224.881 92.7755C220.407 89.7808 214.786 88.8855 210.185 91.405C207.011 93.1435 204.039 94.4789 200.546 95.1308C198.995 95.42 197.843 96.7388 197.123 98.1152C195.633 100.965 193.157 101.818 190.153 101.849C188.044 101.871 185.934 101.902 183.829 102.008C181.536 102.124 179.775 103.159 178.875 105.286C177.324 108.955 174.611 110.552 170.572 110.207C169.356 110.104 168.023 110.263 166.874 110.662C164.045 111.646 161.664 110.763 159.379 109.273C156.778 107.575 154.213 105.825 151.917 103.723C149.918 101.893 148.958 99.6274 148.91 96.964C148.859 94.1918 149.168 91.4433 149.6 88.7136C149.863 87.0517 150.147 85.407 152.273 84.8225C153.351 84.5268 153.468 83.2926 153.553 82.2933C153.737 80.1482 153.791 77.9998 153.564 75.8514C153.366 73.9783 152.594 72.4419 150.808 71.5924C148.89 70.6798 148.399 69.103 148.548 67.2008C148.615 66.3593 148.67 65.5044 148.868 64.6883C149.867 60.5574 148.96 57.2557 145.256 54.6209C143.014 53.0252 143.35 51.8455 145.811 50.5233C146.424 50.1937 147.073 49.9227 147.719 49.6594C149.49 48.9389 150.412 47.7213 150.391 45.7658C150.322 39.1444 149.757 32.5824 148.056 26.1556C147.785 25.1312 147.399 24.076 146.807 23.2066C145.57 21.3934 146.214 20.4682 148.061 19.7633C152.347 18.1281 156.627 16.4768 160.861 14.7185C162.704 13.9528 164.451 13.0667 165.639 11.2246C166.447 9.97153 168.234 9.9273 169.675 9.6705C172.514 9.16433 175.377 8.7937 178.226 8.34005C179.065 8.20634 180.041 8.13906 179.727 6.84222C179.24 4.8378 180.887 4.30995 182.162 3.73231C186.043 1.9745 190.257 1.48814 194.436 0.999016C201.344 0.190873 208.284 -0.194066 215.245 0.124488Z"/>
<path id="lodzkie" d="M220.605 297.498C225.343 297.762 226.638 296.715 227.191 292.565C228.026 286.304 227.671 279.985 228.086 273.703C228.092 273.626 228.092 273.55 228.094 273.473C228.402 264.809 229.196 263.923 237.926 262.865C240.434 262.561 242.856 262.035 245.044 260.772C248.587 258.726 249.676 255.799 248.447 251.956C248.097 250.861 247.745 249.753 247.558 248.625C246.898 244.632 249.081 241.689 253.124 241.018C256.919 240.387 257.281 240.144 257.829 236.479C258.25 233.669 259.471 231.608 262.206 230.448C264.331 229.547 265.317 227.85 265.539 225.57C266.222 218.551 273.816 214.885 279.915 218.584C280.911 219.189 281.916 219.792 282.845 220.487C286.341 223.107 290.27 223.793 294.57 223.372C299.931 222.846 305.307 222.432 310.685 222.112C315.079 221.85 316.664 222.787 317.57 226.938C318.507 231.235 320.776 234.13 324.799 235.881C326.691 236.704 327.46 238.301 327.644 240.305C327.91 243.206 327.761 246.131 328.372 249.02C328.835 251.212 329.994 252.289 332.239 252.639C336.972 253.377 341.74 253.24 346.496 253.419C350.628 253.574 350.84 253.808 351.975 257.629C352.563 259.609 353.332 261.544 354.137 263.451C355.809 267.413 353.754 270.967 349.366 271.445C348.14 271.578 346.867 271.466 345.632 271.329C343.469 271.09 341.547 271.464 340.217 273.285C338.852 275.154 338.943 277.2 339.909 279.185C340.339 280.067 340.945 280.934 341.67 281.596C343.823 283.56 345.233 285.811 345.364 288.784C345.415 289.939 345.952 291.019 346.753 291.897C347.651 292.88 347.406 293.646 346.233 293.957C343.74 294.618 342.311 296.103 341.506 298.529C341.065 299.86 339.951 300.987 339.082 302.166C338.162 303.415 337.146 304.669 336.862 306.178C336.421 308.518 335.269 310.016 332.942 310.833C331.667 311.281 330.81 312.396 330.744 313.855C330.671 315.451 329.775 316.111 328.237 316.339C325.669 316.719 323.09 316.603 320.517 316.644C314.956 316.733 314.403 320.34 315.059 324.609C315.211 325.602 315.899 326.393 316.913 326.843C317.798 327.237 318.422 327.894 318.752 328.825C319.195 330.078 319.237 331.302 318.168 332.224C317.005 333.228 315.776 332.647 314.726 331.955C313.561 331.187 312.866 329.399 311.034 330.161C309.238 330.907 308.452 332.576 307.886 334.267C306.529 338.319 304.73 342.083 301.613 345.174C300.639 346.14 300.122 346.282 299.462 345.012C297.862 341.938 295.183 340.702 291.78 340.711C289.708 340.716 288.384 339.704 287.871 337.742C286.394 332.094 282.196 329.994 276.778 329.549C274.211 329.337 271.631 329.272 269.055 329.173C266.568 329.077 264.508 328.208 263.045 326.149C262.053 324.753 260.646 323.887 258.968 323.678C254.217 323.088 249.288 322.628 244.796 324.151C241.639 325.221 240.051 324.151 238.136 322.338C236.101 320.411 233.661 319.361 230.771 319.27C228.668 319.204 226.624 318.911 224.865 317.462C223.769 316.559 222.234 316.622 220.819 316.575C219.102 316.517 217.612 316.149 216.986 314.238C216.758 313.541 216.138 312.963 215.665 312.354C215.238 311.806 214.743 311.308 214.323 310.756C211.97 307.667 210.879 304.272 212.745 300.659C214.508 297.242 218.054 297.725 220.605 297.498Z"/>
<path id="kuj-pom" d="M301.427 142.958C300.817 143.957 299.983 144.017 299.298 144.331C295.32 146.156 293.47 152.257 295.984 155.766C297.036 157.236 296.751 157.926 295.193 158.441C294.455 158.685 293.714 158.945 292.954 159.099C290.347 159.627 288.49 160.713 288.521 163.758C288.536 165.088 287.409 165.754 286.121 165.832C284.372 165.938 283.435 166.978 282.89 168.418C281.494 172.104 281.47 175.679 284.365 178.734C285.833 180.284 285.778 181.408 284.06 182.675C282.192 184.054 281.036 186.104 279.552 187.775C275.252 192.62 276.948 197.281 278.954 202.097C279.442 203.268 279.031 203.875 278.184 204.386C275.703 205.882 274.279 207.887 273.91 210.848C273.597 213.355 269.363 215.949 266.886 215.522C266.461 215.449 265.81 215.191 265.724 214.891C265.097 212.687 263.237 213.055 261.697 213.058C259.046 213.062 256.395 213.287 253.745 213.423C250.32 213.597 247.907 212.109 246.405 209.116C245.992 208.292 245.523 207.492 245.152 206.65C244.283 204.675 242.754 203.672 240.596 203.621C237.521 203.55 234.875 202.933 232.873 200.186C231.327 198.067 225.907 197.374 223.429 198.461C222.686 198.788 222.086 199.204 221.965 200.092C221.657 202.357 220.151 202.28 218.503 201.692C217.858 201.462 217.211 201.086 216.721 200.617C214.307 198.309 211.462 196.88 208.196 196.078C205.774 195.485 204.295 193.652 203.119 191.585C202.396 190.313 201.7 189.027 200.625 187.985C198.014 185.454 195.16 185.202 192.196 187.264C191.707 187.603 191.314 188.319 190.619 188.024C189.796 187.674 190.172 186.818 190.093 186.176C190.009 185.493 190.042 184.796 189.993 184.107C189.887 182.613 189.121 181.903 187.543 182.047C185.292 182.253 183.057 182.733 180.78 182.505C179.308 182.358 177.62 182.319 177.065 180.663C176.545 179.117 177.812 178.109 178.815 177.153C179.484 176.515 180.267 175.993 181.002 175.422C184.306 172.857 185.024 169.455 182.993 165.82C181.515 163.175 179.252 161.274 176.601 159.896C173.304 158.181 171.817 155.684 172.297 152.016C172.545 150.116 172.58 148.19 172.784 146.283C173.057 143.737 174.16 141.676 176.236 140C181.355 135.865 181.153 131.074 175.818 127.299C174.926 126.669 174.054 126.028 173.43 125.122C172.247 123.403 172.481 122.124 174.368 121.165C175.95 120.361 176.675 119.257 177.16 117.525C178.344 113.293 180.495 109.45 182.996 105.806C183.697 104.785 184.59 104.489 185.792 104.574C187.449 104.69 189.05 105.083 190.57 105.642C195.051 107.289 198.201 105.02 199.67 101.466C200.92 98.4455 202.976 97.5108 205.684 97.3411C208.229 97.1816 210.237 96.6882 211.91 94.4833C213.482 92.4119 219.474 92.3397 221.697 94.682C225.273 98.4519 229.851 98.4401 234.354 99.058C236.131 99.302 237.927 99.413 239.708 99.6263C243.459 100.076 246.786 101.388 249.408 104.192C252.423 107.418 256.509 108.157 260.64 108.697C263.734 109.101 266.839 109.459 269.95 109.695C271.481 109.811 272.263 110.318 272.157 111.912C271.745 118.109 275.093 121.902 280.359 124.65C284.425 126.772 288.549 128.769 292.726 130.653C295.808 132.043 297.618 134.058 297.409 137.562C297.243 140.34 298.702 142.152 301.427 142.958Z"/>
<path id="podkarpackie" d="M484.588 393.152C485.916 393.152 487.244 393.172 488.571 393.148C491.097 393.101 492.935 392.176 494.21 389.808C496.443 385.661 499.963 384.535 504.506 386.102C508.376 387.437 511.216 390.235 514.315 392.676C515.377 393.513 514.465 393.979 514.05 394.5C510.727 398.669 507.177 402.681 504.085 407.009C498.308 415.095 491.947 422.798 487.056 431.481C482.933 438.8 477.028 445.005 473.438 452.677C472.623 454.42 472.28 455.774 473.133 457.586C476.106 463.908 477.499 470.47 476.256 477.5C475.719 480.537 476.248 483.625 477.529 486.515C478.749 489.269 480.739 491.163 483.69 492.091C486.923 493.107 488.286 496.22 487.038 499.389C486.608 500.481 485.812 500.659 484.814 500.631C483.07 500.583 481.437 500.016 479.811 499.501C474.692 497.882 469.581 496.238 464.506 494.491C462.751 493.887 461.037 493.082 459.437 492.149C456.2 490.261 452.813 488.748 449.248 487.579C446.211 486.583 444.055 484.809 442.224 481.984C438.698 476.544 434.12 472.012 427.035 471.145C426.649 471.098 426.182 471.106 425.904 470.895C422.215 468.095 417.884 468.542 413.755 468.91C407.513 469.466 403.911 466.997 401.742 461.236C399.411 455.044 397.227 448.837 395.596 442.436C394.75 439.115 393.558 436.098 390.328 434.1C388.038 432.684 388.338 430.551 390.652 429.2C393.523 427.523 393.867 425.895 391.492 423.568C389.749 421.859 389.035 419.875 388.912 417.598C388.565 411.159 388.335 404.718 386.321 398.489C385.706 396.588 386.662 394.887 387.646 393.286C390.945 387.922 395.522 383.728 400.709 380.255C407.653 375.607 413.629 370.165 417.845 362.921C419.584 359.931 421.727 357.167 424.002 354.524C425.529 352.75 427.297 351.583 429.809 351.576C431.598 351.572 433.296 351.149 434.777 349.895C436.071 348.798 437.823 348.471 439.415 349.145C440.955 349.798 440.72 351.464 440.862 352.798C441.097 355.005 440.797 357.239 441.36 359.441C442.11 362.38 443.959 364.087 446.95 364.601C448.176 364.813 449.426 364.899 450.669 365.004C453.745 365.266 456.363 366.494 458.578 368.585C459.903 369.836 460.162 370.98 458.31 372.035C456.556 373.033 454.838 374.096 453.132 375.171C449.486 377.471 448.341 382.955 450.708 386.554C451.686 388.04 453.224 388.9 454.831 388.865C463.011 388.687 470.576 391.83 478.516 392.877C480.522 393.142 482.558 393.192 484.581 393.34C484.583 393.277 484.586 393.215 484.588 393.152Z"/>
<path id="malopolskie" d="M309.083 488.865C312.309 484.083 312.031 479.256 311.539 474.427C311.371 472.78 309.882 472.75 308.64 472.758C305.418 472.78 302.46 472.085 299.882 470.084C296.739 467.643 294.661 464.618 294.412 460.583C294.283 458.483 293.697 456.744 291.622 455.634C290.382 454.97 290.069 453.608 290.029 452.231C289.848 446.021 286.821 441.711 280.837 439.726C277.043 438.468 275.166 436.292 275.503 432.264C275.854 428.051 273.467 425.145 270.266 422.804C268.7 421.66 268.539 420.862 269.915 419.279C273.468 415.189 277.17 411.241 280.9 407.311C282.5 405.625 284.022 403.869 285.002 401.743C285.897 399.802 286.064 398.022 283.712 396.888C282.173 396.147 282.749 395.073 283.5 394.266C287.227 390.257 291.65 387.341 297.25 386.644C300.273 386.268 303.316 386.101 306.155 384.888C308.252 383.992 310.241 382.976 311.273 380.768C311.816 379.607 312.993 379.171 314.141 378.99C319.007 378.226 323.903 377.75 328.827 378.34C331.709 378.686 332.704 379.735 333.276 382.537C333.911 385.641 333.309 388.826 333.988 391.936C334.332 393.513 334.677 395.081 335.281 396.579C337.628 402.4 340.342 404.141 346.693 403.961C350.629 403.85 354.36 403.039 358.049 401.575C365.063 398.792 372.316 396.686 379.66 394.88C381.482 394.433 382.286 395.05 382.761 396.621C384.084 400.994 384.5 405.497 384.726 410.022C384.902 413.548 384.939 417.083 385.626 420.565C385.774 421.317 385.93 422.072 386.163 422.8C386.745 424.624 388.906 426.053 386.173 428.362C384.439 429.829 386.006 435.713 388.106 437.203C390.588 438.964 391.725 441.397 392.382 444.1C394.037 450.899 396.358 457.466 398.995 463.95C400.296 467.145 400.094 467.338 396.691 467.41C392.555 467.499 388.415 467.417 384.277 467.461C380.639 467.499 380.442 467.702 379.951 471.222C379.513 474.36 377.204 476.821 373.993 477.569C370.882 478.294 368.87 477.504 366.87 474.55C365.778 472.939 364.321 472.16 362.425 471.959C356.505 471.331 350.569 471.468 344.636 471.615C342.172 471.676 340.155 472.587 338.721 474.737C337.543 476.503 335.902 477.722 333.647 478.125C331.931 478.432 330.851 479.804 329.968 481.16C328.245 483.804 326.657 486.533 325.01 489.226C324.182 490.581 323.109 490.928 322.064 489.581C319.381 486.121 316.069 486.249 312.434 487.724C311.515 488.097 310.551 488.369 309.083 488.865Z"/>
<path id="lubuskie" d="M109.46 250.366C110.98 250.388 112.606 250.172 114.242 250.579C116.197 251.065 117.001 252.32 116.755 254.138C116.306 257.45 115.028 260.491 113.198 263.301C112.817 263.885 112.278 264.551 111.542 264.396C110.684 264.214 110.487 263.357 110.409 262.562C110.379 262.256 110.371 261.949 110.348 261.643C109.941 256.467 108.97 255.585 103.739 256.35C98.9106 257.056 94.6346 258.893 90.5322 261.751C86.9434 264.252 85.1454 267.119 84.6237 271.2C84.3398 273.419 83.2471 275.2 80.8535 276.027C79.2286 276.589 78.3518 278.05 77.5819 279.493C77.2213 280.169 76.9599 280.896 76.6344 281.591C75.8086 283.356 74.9712 285.238 72.7135 285.46C70.3472 285.693 69.4156 283.818 68.3875 282.163C67.422 280.608 66.5775 278.77 64.2715 278.961C62.1771 279.133 60.0854 281.184 59.6601 283.601C59.1548 286.471 57.393 288.41 55.218 290.122C54.0253 291.06 52.8469 291.31 51.7777 289.942C50.9279 288.855 49.6964 288.626 48.4391 288.575C46.8804 288.511 45.3164 288.56 43.7548 288.572C41.7547 288.587 39.8667 288.823 38.4068 286.722C37.4239 285.308 35.3244 285.024 33.6221 284.487C31.8391 283.924 30.0374 283.416 28.3862 282.533C25.6428 281.064 24.9605 279.357 25.8538 276.42C26.411 274.588 27.2082 272.828 27.4445 270.9C27.8849 267.305 26.8246 264.242 24.2233 261.677C22.9008 260.372 21.6327 259.014 20.3108 257.708C18.887 256.302 18.7947 254.938 19.9591 253.239C22.059 250.176 24.4507 247.344 26.7819 244.462C27.3671 243.738 27.8689 243.071 27.7639 242.007C26.9948 234.218 26.8916 226.372 25.6081 218.625C24.9896 214.891 24.0934 211.253 22.2011 207.933C20.8547 205.57 21.0325 203.489 22.7963 201.369C25.3347 198.317 26.1868 194.694 26.0287 190.811C25.9584 189.083 25.5645 187.43 24.2702 186.18C22.8478 184.806 23.3942 183.895 24.8962 183.234C25.9552 182.768 27.0656 182.327 28.1991 182.127C32.7554 181.322 37.0844 176.971 37.7123 172.324C38.246 168.373 40.8257 165.921 43.9733 163.906C45.2943 163.06 46.7664 163.455 47.9782 164.201C50.9865 166.051 53.8411 165.649 56.8319 164.12C60.8547 162.063 64.5647 159.565 68.3497 157.132C72.2285 154.639 76.636 152.75 81.0557 151.328C84.1699 150.326 87.7051 150.649 91.0265 150.197C94.9403 149.664 95.5656 148.882 95.8133 145.015C95.8429 144.556 95.8396 144.085 95.9454 143.642C96.1881 142.619 96.6589 141.655 97.8732 141.647C99.2487 141.638 99.5123 142.822 99.4657 143.785C99.1484 150.373 98.8054 156.969 96.6243 163.293C96.2161 164.476 95.4182 165.466 94.4186 166.223C91.4594 168.465 89.5683 171.324 88.6871 174.917C88.2504 176.702 87.2979 178.291 85.9427 179.66C84.0127 181.611 83.4104 184.903 85.0122 187.104C87.1856 190.09 87.2081 193.405 87.3988 196.755C87.5681 199.739 87.236 202.744 87.8536 205.712C88.0432 206.623 88.1128 207.648 88.7677 208.281C90.7377 210.187 90.4484 212.44 90.0209 214.738C89.2751 218.744 88.8312 222.78 88.5583 226.844C88.3052 230.615 89.4077 233.767 92.3631 236.291C94.8379 238.404 97.3011 240.541 99.4301 243.012C100.542 244.303 101.652 245.601 102.339 247.169C103.768 250.424 104.223 250.728 107.715 250.514C108.259 250.48 108.803 250.422 109.46 250.366Z"/>
<path id="swietokrzyskie" d="M321.845 331.344C321.845 330.193 321.953 329.029 321.819 327.893C321.637 326.355 321.176 324.978 319.663 324.022C317.759 322.82 318.022 320.849 320.107 320.002C321.191 319.562 322.356 319.393 323.543 319.368C325.651 319.323 327.758 319.235 329.865 319.16C331.99 319.083 333.665 318.668 333.759 315.97C333.805 314.641 335.042 313.757 336.362 313.259C338.192 312.57 339.273 311.39 339.437 309.345C339.613 307.158 340.766 305.577 343.104 305.166C345.249 304.789 347.47 305.951 348.268 308.265C349.267 311.165 351.129 312.794 354.061 313.706C356.38 314.428 358.312 315.982 359.923 317.798C361.706 319.809 363.895 320.65 366.58 320.45C369.694 320.218 372.813 320.045 375.931 319.876C377.611 319.785 378.894 320.212 379.659 321.968C380.52 323.949 382.551 324.711 384.464 325.366C387.86 326.528 391.141 327.76 394.027 330.036C396.646 332.103 401.691 331.705 404.363 329.568C405.421 328.722 406.544 328.091 407.84 327.757C413.375 326.327 415.339 327.343 417.121 332.683C418.749 337.562 420.283 342.469 421.475 347.474C422.003 349.696 421.725 351.71 420.503 353.648C418.935 356.137 417.273 358.518 414.893 360.371C413.415 361.522 412.346 363.086 411.459 364.709C408.945 369.308 405.229 372.733 400.799 375.476C396.556 378.104 392.552 381.026 389.034 384.555C387.724 385.87 386.429 387.203 385.79 389.009C385.168 390.764 383.452 390.941 381.992 391.278C376.069 392.646 370.193 394.176 364.356 395.864C360.315 397.032 356.334 398.338 352.454 399.977C345.663 402.844 341.245 401.036 338.362 394.354C337.159 391.568 336.643 388.628 336.495 385.621C336.42 384.087 336.49 382.542 336.333 381.017C335.926 377.043 334.239 375.449 330.208 375.134C326.144 374.816 322.092 375.258 318.034 375.369C315.146 375.447 312.238 375.538 309.437 374.692C307.494 374.105 307.077 373.02 308.476 371.707C311.123 369.225 310.835 365.116 308.682 361.98C307.431 360.158 305.651 358.893 304 357.496C302.407 356.147 301.813 354.621 302.571 352.591C303.558 349.952 304.377 347.397 306.798 345.408C308.954 343.636 309.933 340.787 310.171 338C310.38 335.539 311.546 334.812 313.818 335.049C315.68 335.243 317.572 335.228 319.414 335.525C321.449 335.853 322.341 335.296 321.963 333.184C321.856 332.588 321.946 331.957 321.946 331.344C321.913 331.344 321.879 331.344 321.845 331.344Z"/>
<path id="slaskie" d="M252.107 325.913C255.791 325.735 258.893 326.67 260.972 329.945C261.985 331.541 263.556 332.36 265.487 332.423C268.608 332.525 271.735 332.518 274.847 332.722C280.13 333.069 284.184 335.034 285.374 340.713C285.773 342.618 287.232 343.423 289.198 343.429C291.779 343.437 294.187 343.825 295.612 346.368C295.847 346.786 296.46 347.228 296.922 347.255C299.777 347.426 299.494 349.372 299.357 351.241C299.295 352.082 299.178 352.921 299.039 353.753C298.596 356.383 299.296 358.603 301.378 360.376C302.913 361.682 304.404 363.039 305.935 364.35C307.401 365.606 307.504 366.858 306.1 368.251C304.942 369.399 303.943 370.662 303.471 372.273C302.894 374.247 303.368 375.671 305.32 376.658C307.944 377.984 308.031 379.376 305.554 380.987C302.589 382.918 299.252 383.749 295.735 383.177C292.729 382.689 290.205 383.36 287.904 385.258C284.61 387.975 281.353 390.731 278.563 393.962C276.626 396.204 276.777 397.057 279.409 398.221C281.362 399.085 281.561 400.244 280.45 401.838C279.072 403.814 277.282 405.432 275.597 407.139C272.604 410.171 269.563 413.169 267.279 416.783C264.493 421.189 264.948 423.522 269.223 426.464C271.218 427.838 272.308 429.658 272.649 431.976C272.694 432.28 272.754 432.587 272.746 432.891C272.589 438.213 274.346 441.818 280.272 443.24C284.229 444.189 287.377 450.813 286.717 454.777C286.379 456.805 284.887 457.924 283.234 458.861C281.548 459.817 279.755 460.604 278.118 461.633C275.385 463.35 273.878 466.038 272.443 468.805C270.691 472.185 268.822 473.118 265.746 472.494C265.034 472.35 264.398 472.163 264.009 471.485C262.364 468.615 259.824 466.53 257.361 464.421C253.988 461.532 252.115 458.05 252.005 453.608C251.913 449.889 250.686 446.883 246.515 445.817C240.24 444.213 237.52 440.229 238.548 433.872C238.572 433.722 238.548 433.565 238.547 433.411C238.485 427.946 238.436 428.149 233.151 426.925C224.434 424.907 216.085 422.075 210.587 414.391C209.62 413.04 207.916 411.744 208.561 409.979C209.266 408.049 211.476 408.3 213.211 407.962C218.792 406.872 223.845 404.518 228.629 401.565C230.075 400.673 230.389 399.337 230.036 397.749C229.438 395.054 228.844 392.356 228.337 389.642C227.781 386.661 227.777 383.794 230.631 381.742C230.874 381.567 231.139 381.297 231.205 381.028C232.176 377.026 235.538 375.452 238.804 373.823C240.666 372.894 241.004 371.828 239.838 370.047C237.934 367.141 236.177 364.121 233.679 361.674C232.671 360.686 232.813 359.973 233.541 359.154C235.885 356.509 236.858 353.326 237.576 349.98C238.126 347.409 239.095 344.918 241.073 343.067C243.216 341.061 243.756 338.671 243.461 335.939C243.33 334.719 243.161 333.495 243.133 332.271C243.045 328.479 244.536 326.793 248.378 326.284C249.617 326.122 250.865 326.035 252.107 325.913Z"/>
<path id="opolskie" d="M144.869 378.198C146.745 377.097 148.461 376.18 150.078 375.118C151.922 373.905 153.53 372.471 153.832 370.096C153.993 368.827 154.763 367.96 156.03 367.689C158.143 367.235 159.324 365.747 160.369 364.093C162.526 360.681 164.185 356.999 165.14 353.137C166.201 348.843 168.609 345.494 171.487 342.316C173.512 340.081 175.538 337.844 177.469 335.53C178.652 334.112 179.668 332.589 179.976 330.669C180.175 329.43 181.039 328.467 182.106 327.744C182.684 327.352 183.317 327.029 183.853 326.59C186.252 324.62 186.051 322.764 183.334 321.524C184.812 318.526 190.487 316.763 193.266 318.41C194.215 318.973 194.364 319.831 194.369 320.782C194.378 322.205 195.253 322.923 196.548 323.032C200.288 323.348 204.04 323.518 207.73 322.591C208.397 322.424 209.127 322.182 209.63 321.752C212.625 319.188 216.205 319.238 219.825 319.443C220.358 319.473 221.027 319.528 221.385 319.843C223.89 322.047 227.04 321.74 230.02 322.111C234.653 322.688 237.485 325.523 237.921 330.071C238.033 331.252 238.322 332.329 239.143 333.229C241.058 335.33 241.428 336.692 239.57 338.605C236.335 341.937 234.863 345.899 233.941 350.254C233.498 352.351 232.501 354.283 231.065 355.978C229.885 357.372 229.412 359.104 229.204 360.874C229.056 362.126 229.295 363.077 230.645 363.908C232.944 365.323 234.165 367.749 235.338 370.103C235.932 371.294 235.049 371.866 234.176 372.203C231.434 373.262 229.23 374.759 228.587 377.829C228.5 378.243 228.162 378.695 227.807 378.954C224.793 381.15 224.771 384.264 225.001 387.483C225.225 390.622 225.484 393.762 225.589 396.906C225.645 398.57 225.366 400.146 223.066 400.317C222.343 400.372 221.596 400.85 220.968 401.285C217.319 403.816 213.366 405.32 208.839 405.653C205.705 405.884 204.158 408.654 204.774 411.998C205.38 415.284 203.253 419.654 200.35 421.134C199.509 421.564 198.721 421.565 197.925 421.05C195.338 419.378 192.957 417.387 191.808 414.555C191.043 412.672 189.864 411.519 188.218 410.553C187.159 409.932 185.816 409.301 185.837 407.937C185.861 406.426 187.402 406.135 188.549 405.809C190.781 405.175 191.45 403.532 191.438 401.589C191.397 395.024 192.695 396.497 186.502 396.013C182.614 395.709 178.705 395.679 174.828 395.156C172.26 394.81 169.971 393.825 168.187 392.037C161.819 385.657 154.414 381.029 145.593 378.685C145.383 378.628 145.211 378.434 144.869 378.198Z"/>
</g>
</svg>
